# File generated by ImageToStl.com - Free Image and 3D model conversion tools

mtllib KEYBOW.mtl

o obj1
v 0.89595938 1.82841599 -0.08489161
v 0.97187543 1.70869815 -0.02941674
v 0.97187543 1.70703876 -0.08098605
v 0.89595938 1.83007538 -0.0333223
v 0.88246042 1.80819869 -0.11032356
v 0.97187543 1.70703876 -0.08098605
v 0.94860739 1.70244145 -0.10692061
v 0.89595938 1.82841599 -0.08489161
v 0.97187543 1.70869815 -0.02941674
v 0.89595938 1.83007538 -0.0333223
v 0.88246042 1.81153488 -0.00664323
v 0.94860739 1.70577765 -0.00324028
v 0.72744042 1.86496639 -0.03444498
v 0.89595938 1.83007538 -0.0333223
v 0.72744042 1.863307 -0.08601429
v 0.89595938 1.82841599 -0.08489161
v 0.97187543 1.70869815 -0.02941674
v 0.93054539 1.53851628 -0.02394081
v 0.97187543 1.70703876 -0.08098605
v 0.93054539 1.53685689 -0.07551012
v 0.88246042 1.80819869 -0.11032356
v 0.73049438 1.83966148 -0.11133595
v 0.72744042 1.863307 -0.08601429
v 0.89595938 1.82841599 -0.08489161
v 0.72744042 1.86496639 -0.03444498
v 0.88246042 1.81153488 -0.00664323
v 0.89595938 1.83007538 -0.0333223
v 0.73049438 1.84299767 -0.00765561
v 0.97187543 1.70869815 -0.02941674
v 0.9116444 1.5535754 0.00165713
v 0.93054539 1.53851628 -0.02394081
v 0.94860739 1.70577765 -0.00324028
v 0.9116444 1.55023921 -0.10202321
v 0.94860739 1.70244145 -0.10692061
v 0.97187543 1.70703876 -0.08098605
v 0.93054539 1.53685689 -0.07551012
v -0.38759661 1.10791874 -0.06666175
v -0.27116656 1.47507632 -0.01694594
v -0.27116656 1.47309864 -0.07841212
v -0.38759661 1.10989642 -0.00519554
v 0.65486443 1.60028708 -0.07755111
v 0.83101737 1.56266177 -0.02471773
v 0.83101737 1.56100237 -0.07628705
v 0.65486443 1.60194647 -0.0259818
v 0.44927943 1.64463115 -0.0015219
v 0.44927943 1.64131105 -0.10470451
v 0.3955614 1.65434325 -0.10512385
v 0.3955614 1.65766335 -0.00194124
v 0.44927943 1.64131105 -0.10470451
v 0.57860243 1.43251395 0.00530339
v 0.57860243 1.42919385 -0.09787922
v 0.44927943 1.64463115 -0.0015219
v -0.09759559 0.88873214 -0.05960898
v -0.38759661 1.10989642 -0.00519554
v -0.38759661 1.10791874 -0.06666175
v -0.09759559 0.89070994 0.00185721
v 0.68503642 1.77063286 -0.08303233
v 0.62090343 1.50821805 -0.0229659
v 0.62090343 1.50655866 -0.07453521
v 0.68503642 1.77229226 -0.03146301
v 0.83101737 1.56266177 -0.02471773
v 0.65486443 1.60194647 -0.0259818
v 0.67085141 1.5765636 0.00091744
v 0.8470034 1.53727877 0.0021815
v 0.67085141 1.57322741 -0.1027629
v 0.83101737 1.56100237 -0.07628705
v 0.8470034 1.53394258 -0.10149884
v 0.65486443 1.60028708 -0.07755111
v 0.57860243 1.42919385 -0.09787922
v 0.56556344 1.37882268 0.00703101
v 0.56556344 1.37550271 -0.09615158
v 0.57860243 1.43251395 0.00530339
v -0.45521063 0.77055782 0.0040975
v -0.30629361 1.07585955 -0.06400433
v -0.45521063 0.76868457 -0.05412037
v -0.30629361 1.0777328 -0.00578646
v -0.38759661 1.10989642 -0.00519554
v -0.25466859 1.45220125 0.00350231
v -0.27116656 1.47507632 -0.01694594
v -0.35908562 1.11787438 0.01425994
v -0.38759661 1.10791874 -0.06666175
v -0.27116656 1.47309864 -0.07841212
v -0.25466859 1.44895613 -0.0973475
v -0.35908562 1.11462927 -0.08658987
v 0.68503642 1.77229226 -0.03146301
v 0.6018694 1.52272832 0.00264969
v 0.62090343 1.50821805 -0.0229659
v 0.66889542 1.79872048 -0.00623091
v 0.6018694 1.51939213 -0.10103065
v 0.66889542 1.79538429 -0.10991125
v 0.68503642 1.77063286 -0.08303233
v 0.62090343 1.50655866 -0.07453521
v 0.57665241 1.78668475 -0.08354883
v 0.72744042 1.86496639 -0.03444498
v 0.72744042 1.863307 -0.08601429
v 0.57665241 1.78834414 -0.03197952
v -0.38759661 1.10791874 -0.06666175
v -0.10665958 0.92676657 -0.08054501
v -0.09759559 0.88873214 -0.05960898
v -0.35908562 1.11462927 -0.08658987
v -0.38759661 1.10989642 -0.00519554
v -0.10665958 0.93001157 0.0203048
v -0.35908562 1.11787438 0.01425994
v -0.09759559 0.89070994 0.00185721
v -0.29229158 1.06417012 -0.08363555
v -0.43737757 0.76850224 -0.07412186
v -0.45521063 0.76868457 -0.05412037
v -0.30629361 1.07585955 -0.06400433
v -0.45521063 0.77055782 0.0040975
v -0.29229158 1.06732965 0.01455663
v -0.30629361 1.0777328 -0.00578646
v -0.43737757 0.77166176 0.02407034
v -0.27116656 1.47309864 -0.07841212
v -0.07989557 1.47960413 -0.01709162
v -0.07989557 1.47762644 -0.07855781
v -0.27116656 1.47507632 -0.01694594
v 0.5954054 1.77101696 -0.10912718
v 0.72744042 1.863307 -0.08601429
v 0.73049438 1.83966148 -0.11133595
v 0.57665241 1.78668475 -0.08354883
v 0.72744042 1.86496639 -0.03444498
v 0.57665241 1.78834414 -0.03197952
v 0.5954054 1.77435315 -0.00544683
v 0.73049438 1.84299767 -0.00765561
v 0.27632841 1.58172691 -0.10278726
v 0.27632841 1.58504701 0.00039534
v 0.3955614 1.65434325 -0.10512385
v 0.3955614 1.65766335 -0.00194124
v -0.06220458 1.24205101 -0.07064155
v -0.27838659 0.70982754 -0.05351619
v -0.27838659 0.71178377 0.00727835
v -0.06220458 1.24400723 -0.00984701
v -0.07989557 1.47960413 -0.01709162
v -0.27116656 1.47507632 -0.01694594
v -0.25466859 1.45220125 0.00350231
v -0.09231658 1.45604432 0.00337866
v -0.07989557 1.47762644 -0.07855781
v -0.25466859 1.44895613 -0.0973475
v -0.27116656 1.47309864 -0.07841212
v -0.09231658 1.4527992 -0.09747115
v -0.02239059 1.16791737 -0.00706249
v -0.11953358 1.33789766 -0.07406177
v -0.02239059 1.16593969 -0.06852868
v -0.11953358 1.33987534 -0.01259558
v -0.11953358 1.33789766 -0.07406177
v -0.01418859 1.19603097 -0.08920912
v -0.02239059 1.16593969 -0.06852868
v -0.10696457 1.36146045 -0.09453215
v -0.01418859 1.19927609 0.01164068
v -0.10696457 1.36470556 0.00631765
v -0.11953358 1.33987534 -0.01259558
v -0.02239059 1.16791737 -0.00706249
v -0.06220458 1.24400723 -0.00984701
v 0.32891941 1.52152169 -0.01877658
v -0.06220458 1.24205101 -0.07064155
v 0.32891941 1.51956546 -0.07957112
v 0.53689539 1.62297833 -0.07828124
v 0.39778143 1.53555965 -0.07546838
v 0.39778143 1.53721905 -0.02389906
v 0.53689539 1.62463772 -0.02671193
v 0.93054539 1.53851628 -0.02394081
v 0.80821443 1.46876943 -0.02169656
v 0.93054539 1.53685689 -0.07551012
v 0.80821443 1.46711004 -0.07326587
v 0.53689539 1.62463772 -0.02671193
v 0.39778143 1.53721905 -0.02389906
v 0.4255594 1.53092718 0.00238588
v 0.55606341 1.61235595 -0.00023425
v 0.4255594 1.52759099 -0.10129446
v 0.53689539 1.62297833 -0.07828124
v 0.55606341 1.60901976 -0.10391459
v 0.39778143 1.53555965 -0.07546838
v 0.9116444 1.55023921 -0.10202321
v 0.80821443 1.46711004 -0.07326587
v 0.8049494 1.48940659 -0.1000658
v 0.93054539 1.53685689 -0.07551012
v 0.80821443 1.46876943 -0.02169656
v 0.93054539 1.53851628 -0.02394081
v 0.9116444 1.5535754 0.00165713
v 0.8049494 1.49274278 0.00361454
v -0.27838659 0.70982754 -0.05351619
v -0.04196358 1.22278178 -0.09555772
v -0.24600358 0.70092291 -0.07876588
v -0.06220458 1.24205101 -0.07064155
v 0.32891941 1.51956546 -0.07957112
v 0.34053141 1.49182546 -0.10421474
v -0.27838659 0.71178377 0.00727835
v -0.04196358 1.22637951 0.01625641
v -0.06220458 1.24400723 -0.00984701
v -0.24600358 0.70452076 0.03304826
v 0.32891941 1.52152169 -0.01877658
v 0.34053141 1.4954232 0.0075994
v 0.44633043 1.30288529 -0.09381498
v 0.56556344 1.37550271 -0.09615158
v 0.56556344 1.37882268 0.00703101
v 0.44633043 1.30620527 0.00936762
v -0.29674858 0.79325181 0.05087186
v -0.46229959 0.79325181 0.05087186
v -0.42091161 0.72160292 0.0531773
v -0.33813661 0.72160292 0.0531773
v -0.46229959 0.64995396 0.05548275
v -0.29674858 0.64995396 0.05548275
v -0.5450756 0.64995396 0.05548275
v -0.21397258 0.64995396 0.05548275
v -0.46229959 0.50665617 0.06009364
v -0.29674858 0.50665617 0.06009364
v -0.42091161 0.57830501 0.0577882
v -0.33813661 0.57830501 0.0577882
v -0.29674858 0.78832465 -0.1022569
v -0.21397258 0.6450268 -0.09764601
v -0.29674858 0.6450268 -0.09764601
v -0.29674858 0.50172901 -0.09303512
v -0.33813661 0.71667576 -0.09995145
v -0.33813661 0.57337785 -0.09534056
v -0.46229959 0.78832465 -0.1022569
v -0.42091161 0.57337785 -0.09534056
v -0.42091161 0.71667576 -0.09995145
v -0.46229959 0.50172901 -0.09303512
v -0.46229959 0.6450268 -0.09764601
v -0.5450756 0.6450268 -0.09764601
v -0.46229959 0.6450268 -0.09764601
v -0.42091161 0.71667576 -0.09995145
v -0.4112286 0.70034307 -0.08602699
v -0.44293362 0.64545745 -0.08426094
v -0.34781963 0.70034307 -0.08602699
v -0.4112286 0.59057188 -0.08249489
v -0.33813661 0.71667576 -0.09995145
v -0.42091161 0.57337785 -0.09534056
v -0.29674858 0.6450268 -0.09764601
v -0.33813661 0.57337785 -0.09534056
v -0.3161146 0.64545745 -0.08426094
v -0.34781963 0.59057188 -0.08249489
v -0.29674858 0.64995396 0.05548275
v -0.34781963 0.59463775 0.04386372
v -0.33813661 0.57830501 0.0577882
v -0.42091161 0.57830501 0.0577882
v -0.3161146 0.64952332 0.04209767
v -0.4112286 0.59463775 0.04386372
v -0.34781963 0.70440894 0.04033162
v -0.46229959 0.64995396 0.05548275
v -0.33813661 0.72160292 0.0531773
v -0.44293362 0.64952332 0.04209767
v -0.4112286 0.70440894 0.04033162
v -0.42091161 0.72160292 0.0531773
v -0.1285906 0.67949671 0.03385345
v 0.08214241 1.10626948 -0.00541501
v 0.06240942 1.12523293 0.019511
v -0.10035957 0.67520869 0.00845522
v 0.37451342 1.39940596 0.01068893
v 0.39828843 1.38019276 -0.01422904
v -0.1285906 0.67589885 -0.07796068
v 0.08214241 1.10431325 -0.06620955
v -0.10035957 0.67325246 -0.05233932
v 0.06240942 1.1216352 -0.09230313
v 0.37451342 1.39580822 -0.1011252
v 0.39828843 1.37823653 -0.07502358
v -0.10035957 0.67325246 -0.05233932
v 0.08214241 1.10431325 -0.06620955
v 0.08214241 1.10626948 -0.00541501
v -0.10035957 0.67520869 0.00845522
v 0.39828843 1.37823653 -0.07502358
v 0.39828843 1.38019276 -0.01422904
v 0.29237542 1.52460384 0.01476165
v 0.54951739 1.4400636 0.0174819
v 0.44230342 1.61591744 0.01182346
v 0.3884064 1.6289928 0.01140272
v 0.30545741 1.57847393 0.01302828
v 0.39958841 1.34875178 0.02042003
v 0.53643441 1.38619447 0.01921525
v 0.45348543 1.33567464 0.02084082
v 0.39958841 1.3446331 -0.10757974
v 0.53643441 1.38207579 -0.10878452
v 0.45348543 1.33155596 -0.10715895
v 0.54951739 1.43594491 -0.11051786
v 0.29237542 1.52048516 -0.11323813
v 0.44230342 1.61179876 -0.11617631
v 0.3884064 1.62487411 -0.11659704
v 0.30545741 1.57435524 -0.11497149
v -0.34781963 0.59463775 0.04386372
v -0.34781963 0.70440894 0.04033162
v -0.4112286 0.70440894 0.04033162
v -0.3161146 0.64952332 0.04209767
v -0.4112286 0.59463775 0.04386372
v -0.44293362 0.64952332 0.04209767
v -0.34781963 0.70034307 -0.08602699
v -0.34781963 0.59057188 -0.08249489
v -0.4112286 0.70034307 -0.08602699
v -0.3161146 0.64545745 -0.08426094
v -0.4112286 0.59057188 -0.08249489
v -0.44293362 0.64545745 -0.08426094
v -0.46229959 0.50172901 -0.09303512
v -0.57253063 0.64603841 -0.06620628
v -0.5450756 0.6450268 -0.09764601
v -0.46229959 0.78832465 -0.1022569
v -0.47602761 0.47897688 -0.06083075
v -0.47602761 0.81309998 -0.07158181
v -0.28302157 0.47897688 -0.06083075
v -0.29674858 0.78832465 -0.1022569
v -0.29674858 0.50172901 -0.09303512
v -0.28302056 0.81309998 -0.07158181
v -0.18651758 0.64603841 -0.06620628
v -0.21397258 0.6450268 -0.09764601
v -0.57253063 0.64894235 0.02404302
v -0.47602761 0.48188081 0.02941855
v -0.46229959 0.50665617 0.06009364
v -0.28302157 0.48188081 0.02941855
v -0.5450756 0.64995396 0.05548275
v -0.29674858 0.50665617 0.06009364
v -0.46229959 0.79325181 0.05087186
v -0.18651758 0.64894235 0.02404302
v -0.47602761 0.81600392 0.01866748
v -0.21397258 0.64995396 0.05548275
v -0.29674858 0.79325181 0.05087186
v -0.28302056 0.81600392 0.01866748
v 0.3926124 1.31591761 -0.09423432
v 0.26328942 1.52803576 -0.10105964
v 0.29237542 1.52048516 -0.11323813
v 0.30545741 1.57435524 -0.11497149
v 0.39958841 1.3446331 -0.10757974
v 0.27632841 1.58172691 -0.10278726
v 0.44633043 1.30288529 -0.09381498
v 0.3884064 1.62487411 -0.11659704
v 0.45348543 1.33155596 -0.10715895
v 0.3955614 1.65434325 -0.10512385
v 0.56556344 1.37550271 -0.09615158
v 0.44230342 1.61179876 -0.11617631
v 0.53643441 1.38207579 -0.10878452
v 0.44927943 1.64131105 -0.10470451
v 0.54951739 1.43594491 -0.11051786
v 0.57860243 1.42919385 -0.09787922
v 0.56556344 1.37882268 0.00703101
v 0.45348543 1.33567464 0.02084082
v 0.44633043 1.30620527 0.00936762
v 0.39958841 1.34875178 0.02042003
v 0.53643441 1.38619447 0.01921525
v 0.3926124 1.31923759 0.00894829
v 0.54951739 1.4400636 0.0174819
v 0.29237542 1.52460384 0.01476165
v 0.57860243 1.43251395 0.00530339
v 0.26328942 1.53135586 0.00212295
v 0.44927943 1.64463115 -0.0015219
v 0.30545741 1.57847393 0.01302828
v 0.44230342 1.61591744 0.01182346
v 0.27632841 1.58504701 0.00039534
v 0.3955614 1.65766335 -0.00194124
v 0.3884064 1.6289928 0.01140272
v -0.24600358 0.70452076 0.03304826
v 0.06240942 1.12523293 0.019511
v -0.04196358 1.22637951 0.01625641
v -0.1285906 0.67949671 0.03385345
v 0.37451342 1.39940596 0.01068893
v 0.34053141 1.4954232 0.0075994
v 0.37451342 1.39580822 -0.1011252
v -0.04196358 1.22278178 -0.09555772
v 0.34053141 1.49182546 -0.10421474
v 0.06240942 1.1216352 -0.09230313
v -0.24600358 0.70092291 -0.07876588
v -0.1285906 0.67589885 -0.07796068
v 0.89874041 1.74697733 -0.10835366
v 0.66889542 1.79538429 -0.10991125
v 0.73049438 1.83966148 -0.11133595
v 0.5954054 1.77101696 -0.10912718
v 0.88246042 1.80819869 -0.11032356
v 0.55606341 1.60901976 -0.10391459
v 0.94860739 1.70244145 -0.10692061
v 0.6018694 1.51939213 -0.10103065
v 0.4255594 1.52759099 -0.10129446
v 0.4645744 1.44888759 -0.09876202
v 0.8470034 1.53394258 -0.10149884
v 0.9116444 1.55023921 -0.10202321
v 0.8049494 1.48940659 -0.1000658
v 0.67085141 1.57322741 -0.1027629
v 0.65829742 1.52153409 -0.10109957
v 0.8470034 1.53727877 0.0021815
v 0.94860739 1.70577765 -0.00324028
v 0.89874041 1.75031352 -0.00467331
v 0.88246042 1.81153488 -0.00664323
v 0.9116444 1.5535754 0.00165713
v 0.73049438 1.84299767 -0.00765561
v 0.8049494 1.49274278 0.00361454
v 0.67085141 1.5765636 0.00091744
v 0.65829742 1.52487028 0.00258077
v 0.66889542 1.79872048 -0.00623091
v 0.5954054 1.77435315 -0.00544683
v 0.55606341 1.61235595 -0.00023425
v 0.6018694 1.52272832 0.00264969
v 0.4255594 1.53092718 0.00238588
v 0.4645744 1.45222378 0.00491832
v -0.07217957 1.00814509 0.0177907
v -0.28011656 1.14903617 0.01325725
v -0.10665958 0.93001157 0.0203048
v -0.35908562 1.11787438 0.01425994
v -0.2053376 1.36237776 0.00639256
v -0.25466859 1.45220125 0.00350231
v -0.09231658 1.45604432 0.00337866
v -0.10696457 1.36470556 0.00631765
v 0.04456042 1.22836912 0.01070456
v -0.01418859 1.19927609 0.01164068
v -0.25466859 1.44895613 -0.0973475
v -0.09231658 1.4527992 -0.09747115
v -0.2053376 1.35913265 -0.09445724
v -0.35908562 1.11462927 -0.08658987
v -0.10696457 1.36146045 -0.09453215
v 0.04456042 1.225124 -0.09014525
v -0.01418859 1.19603097 -0.08920912
v -0.28011656 1.14579105 -0.08759256
v -0.10665958 0.92676657 -0.08054501
v -0.07217957 1.00489998 -0.08305912
v -0.35527861 0.77378166 0.02400212
v -0.29229158 1.06732965 0.01455663
v -0.43737757 0.77166176 0.02407034
v -0.22782759 1.01647198 0.01619308
v -0.35527861 0.77062213 -0.07419007
v -0.29229158 1.06417012 -0.08363555
v -0.22782759 1.01331246 -0.08199911
v -0.43737757 0.76850224 -0.07412186
v 0.45579743 1.42018259 -0.02013318
v 0.62090343 1.50821805 -0.0229659
v 0.6018694 1.52272832 0.00264969
v 0.4645744 1.45222378 0.00491832
v 0.6018694 1.51939213 -0.10103065
v 0.45579743 1.41852319 -0.0717025
v 0.4645744 1.44888759 -0.09876202
v 0.62090343 1.50655866 -0.07453521
v -0.07989557 1.47960413 -0.01709162
v 0.04456042 1.22836912 0.01070456
v 0.07979441 1.21851921 -0.0086907
v -0.09231658 1.45604432 0.00337866
v 0.04456042 1.225124 -0.09014525
v -0.09231658 1.4527992 -0.09747115
v -0.07989557 1.47762644 -0.07855781
v 0.07979441 1.21654153 -0.07015689
v 0.45579743 1.41852319 -0.0717025
v 0.62090343 1.50655866 -0.07453521
v 0.62090343 1.50821805 -0.0229659
v 0.45579743 1.42018259 -0.02013318
v 0.27632841 1.58504701 0.00039534
v 0.27632841 1.58172691 -0.10278726
v 0.26328942 1.52803576 -0.10105964
v 0.26328942 1.53135586 0.00212295
v -0.10696457 1.36470556 0.00631765
v -0.19000159 1.33820713 -0.0125419
v -0.11953358 1.33987534 -0.01259558
v -0.2053376 1.36237776 0.00639256
v -0.10696457 1.36146045 -0.09453215
v -0.19000159 1.33622944 -0.07400809
v -0.2053376 1.35913265 -0.09445724
v -0.11953358 1.33789766 -0.07406177
v 0.07979441 1.21654153 -0.07015689
v -0.07989557 1.47762644 -0.07855781
v -0.07989557 1.47960413 -0.01709162
v 0.07979441 1.21851921 -0.0086907
v -0.19000159 1.33622944 -0.07400809
v -0.11953358 1.33789766 -0.07406177
v -0.19000159 1.33820713 -0.0125419
v -0.11953358 1.33987534 -0.01259558
v 0.3926124 1.31923759 0.00894829
v 0.3926124 1.31591761 -0.09423432
v 0.44633043 1.30288529 -0.09381498
v 0.44633043 1.30620527 0.00936762
v -0.2138256 1.00478065 -0.00343908
v -0.35527861 0.77378166 0.02400212
v -0.33744562 0.77359927 0.00399964
v -0.22782759 1.01647198 0.01619308
v -0.2138256 1.0029074 -0.06165695
v -0.35527861 0.77062213 -0.07419007
v -0.22782759 1.01331246 -0.08199911
v -0.33744562 0.77172601 -0.05421823
v -0.07217957 1.00489998 -0.08305912
v -0.28011656 1.14579105 -0.08759256
v -0.25032061 1.15358901 -0.06813128
v -0.04276258 1.01299083 -0.06360725
v -0.25032061 1.15556669 -0.00666509
v -0.07217957 1.00814509 0.0177907
v -0.04276258 1.01496851 -0.00214106
v -0.28011656 1.14903617 0.01325725
v 0.5954054 1.77101696 -0.10912718
v 0.55606341 1.60901976 -0.10391459
v 0.53689539 1.62297833 -0.07828124
v 0.57665241 1.78668475 -0.08354883
v 0.53689539 1.62463772 -0.02671193
v 0.5954054 1.77435315 -0.00544683
v 0.57665241 1.78834414 -0.03197952
v 0.55606341 1.61235595 -0.00023425
v -0.28011656 1.14903617 0.01325725
v -0.19000159 1.33820713 -0.0125419
v -0.2053376 1.36237776 0.00639256
v -0.25032061 1.15556669 -0.00666509
v -0.28011656 1.14579105 -0.08759256
v -0.2053376 1.35913265 -0.09445724
v -0.19000159 1.33622944 -0.07400809
v -0.25032061 1.15358901 -0.06813128
v -0.33744562 0.77172601 -0.05421823
v -0.2138256 1.0029074 -0.06165695
v -0.2138256 1.00478065 -0.00343908
v -0.33744562 0.77359927 0.00399964
v 0.3926124 1.31923759 0.00894829
v 0.26328942 1.53135586 0.00212295
v 0.3926124 1.31591761 -0.09423432
v 0.26328942 1.52803576 -0.10105964
v 0.80821443 1.46876943 -0.02169656
v 0.65829742 1.52487028 0.00258077
v 0.63206142 1.50805306 -0.0229606
v 0.8049494 1.49274278 0.00361454
v 0.65829742 1.52153409 -0.10109957
v 0.8049494 1.48940659 -0.1000658
v 0.80821443 1.46711004 -0.07326587
v 0.63206142 1.50639367 -0.07452991
v 0.53689539 1.62463772 -0.02671193
v 0.57665241 1.78834414 -0.03197952
v 0.53689539 1.62297833 -0.07828124
v 0.57665241 1.78668475 -0.08354883
v -0.25032061 1.15556669 -0.00666509
v -0.04276258 1.01496851 -0.00214106
v -0.25032061 1.15358901 -0.06813128
v -0.04276258 1.01299083 -0.06360725
v 0.63206142 1.50805306 -0.0229606
v 0.67085141 1.5765636 0.00091744
v 0.65486443 1.60194647 -0.0259818
v 0.65829742 1.52487028 0.00258077
v 0.63206142 1.50639367 -0.07452991
v 0.65486443 1.60028708 -0.07755111
v 0.67085141 1.57322741 -0.1027629
v 0.65829742 1.52153409 -0.10109957
v -0.19000159 1.33820713 -0.0125419
v -0.25032061 1.15556669 -0.00666509
v -0.19000159 1.33622944 -0.07400809
v -0.25032061 1.15358901 -0.06813128
v 0.80821443 1.46876943 -0.02169656
v 0.63206142 1.50805306 -0.0229606
v 0.80821443 1.46711004 -0.07326587
v 0.63206142 1.50639367 -0.07452991
v 0.63206142 1.50639367 -0.07452991
v 0.65486443 1.60194647 -0.0259818
v 0.65486443 1.60028708 -0.07755111
v 0.63206142 1.50805306 -0.0229606
v 0.89874041 1.74697733 -0.10835366
v 0.8470034 1.53394258 -0.10149884
v 0.83101737 1.56100237 -0.07628705
v 0.8723464 1.73118436 -0.08176298
v 0.83101737 1.56266177 -0.02471773
v 0.89874041 1.75031352 -0.00467331
v 0.8723464 1.73284376 -0.03019367
v 0.8470034 1.53727877 0.0021815
v 0.66889542 1.79872048 -0.00623091
v 0.8723464 1.73284376 -0.03019367
v 0.89874041 1.75031352 -0.00467331
v 0.68503642 1.77229226 -0.03146301
v 0.66889542 1.79538429 -0.10991125
v 0.89874041 1.74697733 -0.10835366
v 0.8723464 1.73118436 -0.08176298
v 0.68503642 1.77063286 -0.08303233
v -0.28302157 0.48188081 0.02941855
v -0.47602761 0.48188081 0.02941855
v -0.28302157 0.47897688 -0.06083075
v -0.47602761 0.47897688 -0.06083075
v -0.18651758 0.64603841 -0.06620628
v -0.57253063 0.64894235 0.02404302
v -0.18651758 0.64894235 0.02404302
v -0.57253063 0.64603841 -0.06620628
v -0.28302056 0.81309998 -0.07158181
v -0.47602761 0.81600392 0.01866748
v -0.28302056 0.81600392 0.01866748
v -0.47602761 0.81309998 -0.07158181
v 0.83101737 1.56100237 -0.07628705
v 0.8723464 1.73284376 -0.03019367
v 0.8723464 1.73118436 -0.08176298
v 0.83101737 1.56266177 -0.02471773
v 0.8723464 1.73118436 -0.08176298
v 0.68503642 1.77229226 -0.03146301
v 0.68503642 1.77063286 -0.08303233
v 0.8723464 1.73284376 -0.03019367
vn 0.84795 0.52981 -0.01705
vn 0.84795 0.52981 -0.01705
vn 0.84795 0.52981 -0.01705
vn 0.84795 0.52981 -0.01705
vn 0.65141 0.38642 -0.65295
vn 0.65142 0.38643 -0.65294
vn 0.65142 0.38643 -0.65294
vn 0.65141 0.38642 -0.65295
vn 0.65142 0.4276 0.62675
vn 0.65141 0.4276 0.62676
vn 0.65141 0.4276 0.62675
vn 0.65142 0.4276 0.62675
vn 0.20285 0.9787 -0.0315
vn 0.20285 0.9787 -0.03149
vn 0.20285 0.9787 -0.03149
vn 0.20285 0.9787 -0.03149
vn 0.97178 -0.23576 0.00759
vn 0.97178 -0.23576 0.00759
vn 0.97178 -0.23576 0.00759
vn 0.97178 -0.23576 0.00759
vn 0.15583 0.73127 -0.66405
vn 0.15582 0.73126 -0.66406
vn 0.15582 0.73126 -0.66406
vn 0.15583 0.73127 -0.66405
vn 0.15582 0.77244 0.61568
vn 0.15583 0.77245 0.61566
vn 0.15583 0.77245 0.61566
vn 0.15582 0.77244 0.61568
vn 0.74654 -0.16052 0.64568
vn 0.74655 -0.16053 0.64568
vn 0.74655 -0.16053 0.64567
vn 0.74654 -0.16052 0.64569
vn 0.74655 -0.20171 -0.63402
vn 0.74654 -0.2017 -0.63403
vn 0.74654 -0.2017 -0.63403
vn 0.74655 -0.20171 -0.63402
vn -0.95279 0.30346 -0.00976
vn -0.95279 0.30346 -0.00976
vn -0.95279 0.30346 -0.00976
vn -0.95279 0.30346 -0.00976
vn 0.21777 0.97549 -0.03139
vn 0.21777 0.97549 -0.03139
vn 0.21777 0.97549 -0.03139
vn 0.21777 0.97549 -0.03139
vn 0.23588 0.97128 -0.03125
vn 0.23588 0.97128 -0.03125
vn 0.23588 0.97128 -0.03125
vn 0.23588 0.97128 -0.03125
vn 0.85395 0.52009 -0.01673
vn 0.85395 0.52009 -0.01673
vn 0.85395 0.52009 -0.01673
vn 0.85395 0.52009 -0.01673
vn -0.60316 -0.79721 0.02565
vn -0.60316 -0.79721 0.02565
vn -0.60316 -0.79721 0.02565
vn -0.60316 -0.79721 0.02565
vn 0.97178 -0.23576 0.00759
vn 0.97178 -0.23576 0.00759
vn 0.97178 -0.23576 0.00759
vn 0.97178 -0.23576 0.00759
vn 0.16604 0.76457 0.62279
vn 0.16604 0.76457 0.62279
vn 0.16604 0.76457 0.62279
vn 0.16604 0.76457 0.62279
vn 0.16604 0.72295 -0.67065
vn 0.16604 0.72295 -0.67065
vn 0.16604 0.72295 -0.67065
vn 0.16604 0.72295 -0.67065
vn 0.97178 -0.23576 0.00759
vn 0.97178 -0.23575 0.00759
vn 0.97178 -0.23576 0.00759
vn 0.97178 -0.23575 0.00759
vn -0.89992 0.43583 -0.01402
vn -0.89992 0.43583 -0.01402
vn -0.89992 0.43583 -0.01402
vn -0.89992 0.43583 -0.01402
vn -0.60673 0.21612 0.76496
vn -0.60671 0.21611 0.76498
vn -0.60671 0.21612 0.76498
vn -0.60672 0.21612 0.76497
vn -0.60673 0.1665 -0.77727
vn -0.60671 0.16649 -0.77729
vn -0.60671 0.16649 -0.77729
vn -0.60672 0.1665 -0.77728
vn 0.74654 -0.16052 0.64569
vn 0.74655 -0.16053 0.64567
vn 0.74655 -0.16053 0.64567
vn 0.74653 -0.16052 0.64569
vn 0.74655 -0.20171 -0.63402
vn 0.74653 -0.2017 -0.63404
vn 0.74654 -0.2017 -0.63404
vn 0.74655 -0.20171 -0.63401
vn -0.4532 0.89095 -0.02867
vn -0.4532 0.89095 -0.02867
vn -0.4532 0.89095 -0.02867
vn -0.4532 0.89095 -0.02867
vn -0.37861 -0.52902 -0.75947
vn -0.3786 -0.52901 -0.75948
vn -0.3786 -0.529 -0.75949
vn -0.3786 -0.529 -0.75949
vn -0.37861 -0.4791 0.79191
vn -0.3786 -0.47909 0.79192
vn -0.3786 -0.47907 0.79193
vn -0.3786 -0.47908 0.79193
vn -0.69117 0.31615 -0.64987
vn -0.69116 0.31614 -0.64988
vn -0.69118 0.31615 -0.64986
vn -0.69116 0.31615 -0.64988
vn -0.69116 0.35727 0.62821
vn -0.69116 0.35727 0.62822
vn -0.69118 0.35728 0.6282
vn -0.69117 0.35728 0.6282
vn -0.02368 0.9992 -0.03215
vn -0.02368 0.9992 -0.03215
vn -0.02368 0.9992 -0.03215
vn -0.02368 0.9992 -0.03215
vn -0.34815 0.66385 -0.66189
vn -0.34815 0.66384 -0.66189
vn -0.34815 0.66384 -0.66189
vn -0.34815 0.66385 -0.66189
vn -0.34815 0.70503 0.61784
vn -0.34815 0.70502 0.61784
vn -0.34815 0.70502 0.61784
vn -0.34815 0.70503 0.61784
vn -0.52035 0.85351 -0.02747
vn -0.52035 0.85351 -0.02746
vn -0.52035 0.85351 -0.02746
vn -0.52035 0.85351 -0.02746
vn -0.92655 0.37596 -0.0121
vn -0.92655 0.37596 -0.0121
vn -0.92655 0.37596 -0.0121
vn -0.92655 0.37596 -0.0121
vn -0.01506 0.66031 0.75084
vn -0.01506 0.66032 0.75083
vn -0.01506 0.66032 0.75083
vn -0.01506 0.66031 0.75084
vn -0.01506 0.61068 -0.79174
vn -0.01506 0.61068 -0.79173
vn -0.01506 0.61068 -0.79173
vn -0.01506 0.61068 -0.79174
vn -0.87078 -0.49142 0.01581
vn -0.87078 -0.49142 0.01581
vn -0.87078 -0.49142 0.01581
vn -0.87078 -0.49142 0.01581
vn -0.57381 -0.34685 -0.74191
vn -0.57381 -0.34685 -0.74191
vn -0.5738 -0.34684 -0.74193
vn -0.57378 -0.34682 -0.74195
vn -0.57381 -0.29844 0.76268
vn -0.57378 -0.29841 0.76271
vn -0.57381 -0.29844 0.76268
vn -0.57379 -0.29842 0.76269
vn -0.57887 0.815 -0.02622
vn -0.57887 0.815 -0.02623
vn -0.57887 0.815 -0.02622
vn -0.57887 0.815 -0.02623
vn -0.53226 0.84614 -0.02723
vn -0.53226 0.84614 -0.02723
vn -0.53226 0.84614 -0.02723
vn -0.53226 0.84614 -0.02723
vn 0.49549 -0.86816 0.02794
vn 0.49549 -0.86816 0.02793
vn 0.49549 -0.86816 0.02794
vn 0.49549 -0.86816 0.02793
vn -0.41311 0.67917 0.60668
vn -0.41308 0.67915 0.60673
vn -0.41313 0.67919 0.60665
vn -0.4131 0.67917 0.6067
vn -0.41311 0.63877 -0.64909
vn -0.41308 0.63875 -0.64913
vn -0.4131 0.63876 -0.64911
vn -0.41311 0.63877 -0.64909
vn 0.38065 -0.68753 -0.61839
vn 0.38066 -0.68754 -0.61838
vn 0.38066 -0.68754 -0.61838
vn 0.38065 -0.68753 -0.61839
vn 0.38065 -0.64636 0.6613
vn 0.38065 -0.64636 0.66131
vn 0.38065 -0.64636 0.66131
vn 0.38066 -0.64636 0.6613
vn -0.60947 0.21849 -0.76211
vn -0.51283 0.37599 -0.77178
vn -0.60949 0.21849 -0.7621
vn -0.50541 0.38651 -0.77147
vn -0.39091 0.52917 -0.75311
vn -0.3909 0.52915 -0.75312
vn -0.60947 0.26703 0.74649
vn -0.51279 0.4248 0.74605
vn -0.50541 0.43531 0.74503
vn -0.60948 0.26705 0.74647
vn -0.39091 0.57649 0.71753
vn -0.3909 0.57648 0.71754
vn 0.52036 -0.85351 0.02746
vn 0.52036 -0.85351 0.02746
vn 0.52036 -0.85351 0.02746
vn 0.52036 -0.85351 0.02747
vn -0 0.03216 0.99948
vn 0 0.03216 0.99948
vn 0 0.03216 0.99948
vn -0 0.03216 0.99948
vn 0 0.03216 0.99948
vn -0 0.03216 0.99948
vn 0 0.03216 0.99948
vn 0 0.03216 0.99948
vn 0 0.03216 0.99948
vn 0 0.03216 0.99948
vn 0 0.03216 0.99948
vn 0 0.03216 0.99948
vn -0 -0.03216 -0.99948
vn 0 -0.03216 -0.99948
vn -0 -0.03216 -0.99948
vn 0 -0.03216 -0.99948
vn -0 -0.03216 -0.99948
vn 0 -0.03216 -0.99948
vn 0 -0.03216 -0.99948
vn 0 -0.03216 -0.99948
vn 0 -0.03216 -0.99948
vn 0 -0.03216 -0.99948
vn 0 -0.03216 -0.99948
vn 0 -0.03216 -0.99948
vn 0.56877 -0.02645 -0.82207
vn 0.28438 -0.51876 -0.80624
vn 0.28438 -0.51876 -0.80624
vn 0.56877 -0.02645 -0.82207
vn -0.28438 -0.51876 -0.80624
vn 0.28438 0.46586 -0.83792
vn -0.28438 -0.51876 -0.80624
vn 0.28438 0.46586 -0.83792
vn -0.56877 -0.02645 -0.82207
vn -0.28438 0.46586 -0.83792
vn -0.56877 -0.02645 -0.82207
vn -0.28438 0.46586 -0.83792
vn -0.56877 0.02645 0.82207
vn -0.28438 0.51876 0.80624
vn -0.28438 0.51876 0.80624
vn 0.28438 0.51876 0.80624
vn -0.56877 0.02645 0.82207
vn 0.28438 0.51876 0.80624
vn -0.28438 -0.46586 0.83791
vn 0.56877 0.02645 0.82207
vn -0.28438 -0.46586 0.83792
vn 0.56877 0.02645 0.82207
vn 0.28438 -0.46586 0.83792
vn 0.28438 -0.46586 0.83792
vn 0.6408 -0.24958 0.72601
vn 0.55281 -0.36501 0.74912
vn 0.54209 -0.37757 0.75072
vn 0.6408 -0.24958 0.72601
vn 0.4424 -0.48275 0.7558
vn 0.44241 -0.48275 0.75579
vn 0.6408 -0.29574 -0.70846
vn 0.55281 -0.41241 -0.7241
vn 0.6408 -0.29574 -0.70846
vn 0.54209 -0.42505 -0.72489
vn 0.4424 -0.53034 -0.72321
vn 0.44241 -0.53034 -0.7232
vn 0.92094 -0.3895 0.01253
vn 0.80894 -0.58758 0.01891
vn 0.80894 -0.58758 0.01891
vn 0.92094 -0.3895 0.01253
vn 0.65503 -0.75521 0.0243
vn 0.65503 -0.75521 0.0243
vn 0 0.03216 0.99948
vn -0 0.03216 0.99948
vn -0 0.03216 0.99948
vn -0 0.03216 0.99948
vn 0 0.03216 0.99948
vn -0 0.03216 0.99948
vn -0 0.03216 0.99948
vn -0 0.03216 0.99948
vn 0 -0.03216 -0.99948
vn -0 -0.03216 -0.99948
vn 0 -0.03216 -0.99948
vn -0 -0.03216 -0.99948
vn -0 -0.03216 -0.99948
vn 0 -0.03216 -0.99948
vn 0 -0.03216 -0.99948
vn -0 -0.03216 -0.99948
vn 0 0.03216 0.99948
vn 0 0.03216 0.99948
vn -0 0.03216 0.99948
vn 0 0.03216 0.99948
vn -0 0.03216 0.99948
vn -0 0.03216 0.99948
vn -0 -0.03216 -0.99948
vn -0 -0.03216 -0.99948
vn 0 -0.03216 -0.99948
vn -0 -0.03216 -0.99948
vn 0 -0.03216 -0.99948
vn 0 -0.03216 -0.99948
vn -0.37669 -0.67328 -0.63624
vn -0.75339 -0.02115 -0.65723
vn -0.75339 -0.02115 -0.65723
vn -0.37668 0.63099 -0.67821
vn -0.3767 -0.67327 -0.63624
vn -0.3767 0.63098 -0.67821
vn 0.3767 -0.67328 -0.63623
vn 0.37669 0.63098 -0.67821
vn 0.37669 -0.67328 -0.63623
vn 0.3767 0.63098 -0.6782
vn 0.7534 -0.02115 -0.65723
vn 0.7534 -0.02115 -0.65723
vn -0.75339 0.02115 0.65723
vn -0.3767 -0.63098 0.67821
vn -0.37669 -0.63098 0.67821
vn 0.3767 -0.63098 0.6782
vn -0.75339 0.02115 0.65723
vn 0.37669 -0.63099 0.6782
vn -0.37668 0.67328 0.63624
vn 0.7534 0.02115 0.65723
vn -0.3767 0.67327 0.63624
vn 0.75339 0.02115 0.65723
vn 0.37669 0.67328 0.63624
vn 0.3767 0.67327 0.63624
vn -0.21429 -0.36837 -0.90464
vn -0.3996 -0.06444 -0.91442
vn -0.41482 -0.15058 -0.89736
vn -0.31289 0.26912 -0.91086
vn -0.29827 -0.34173 -0.89121
vn -0.3391 0.18472 -0.92244
vn 0.03499 -0.42886 -0.90269
vn -0.12164 0.38562 -0.91461
vn 0.12163 -0.44362 -0.88792
vn -0.03499 0.36995 -0.92839
vn 0.3391 -0.24365 -0.90865
vn 0.29828 0.28374 -0.91133
vn 0.3129 -0.32712 -0.89168
vn 0.2143 0.30947 -0.92645
vn 0.41482 0.09257 -0.90518
vn 0.39961 0.00552 -0.91667
vn 0.3391 -0.18473 0.92244
vn 0.12163 -0.38562 0.91461
vn 0.03499 -0.36994 0.9284
vn -0.29827 -0.28373 0.91134
vn 0.31289 -0.26912 0.91086
vn -0.21429 -0.30945 0.92646
vn 0.41483 0.15057 0.89736
vn -0.41482 -0.09258 0.90518
vn 0.39961 0.06444 0.91442
vn -0.3996 -0.00552 0.91667
vn 0.2143 0.36839 0.90464
vn -0.31289 0.32712 0.89168
vn 0.29828 0.34174 0.8912
vn -0.3391 0.24364 0.90865
vn -0.03499 0.42887 0.90269
vn -0.12164 0.44362 0.88792
vn 0 0.03216 0.99948
vn 0 0.03216 0.99948
vn 0 0.03216 0.99948
vn 0 0.03216 0.99948
vn 0 0.03216 0.99948
vn 0 0.03216 0.99948
vn 0 -0.03216 -0.99948
vn 0 -0.03216 -0.99948
vn 0 -0.03216 -0.99948
vn 0 -0.03216 -0.99948
vn 0 -0.03216 -0.99948
vn 0 -0.03216 -0.99948
vn 0 -0.03216 -0.99948
vn 0 -0.03216 -0.99948
vn 0 -0.03216 -0.99948
vn 0 -0.03216 -0.99948
vn 0 -0.03216 -0.99948
vn 0 -0.03216 -0.99948
vn 0 -0.03216 -0.99948
vn 0 -0.03216 -0.99948
vn 0 -0.03216 -0.99948
vn 0 -0.03216 -0.99948
vn 0 -0.03216 -0.99948
vn 0 -0.03216 -0.99948
vn -0 -0.03216 -0.99948
vn 0 -0.03216 -0.99948
vn 0 -0.03216 -0.99948
vn -0 0.03216 0.99948
vn -0 0.03216 0.99948
vn 0 0.03216 0.99948
vn -0 0.03216 0.99948
vn -0 0.03216 0.99948
vn -0 0.03216 0.99948
vn 0 0.03216 0.99948
vn -0 0.03216 0.99948
vn -0 0.03216 0.99948
vn 0 0.03216 0.99948
vn 0 0.03216 0.99948
vn 0 0.03216 0.99948
vn 0 0.03216 0.99948
vn 0 0.03216 0.99948
vn 0 0.03216 0.99948
vn 0 0.03216 0.99948
vn -0 0.03216 0.99948
vn 0 0.03216 0.99948
vn -0 0.03216 0.99948
vn -0 0.03216 0.99948
vn -0 0.03216 0.99948
vn -0 0.03216 0.99948
vn -0 0.03216 0.99948
vn -0 0.03216 0.99948
vn -0 0.03216 0.99948
vn 0 -0.03216 -0.99948
vn 0 -0.03216 -0.99948
vn 0 -0.03216 -0.99948
vn 0 -0.03216 -0.99948
vn 0 -0.03216 -0.99948
vn 0 -0.03216 -0.99948
vn 0 -0.03216 -0.99948
vn 0 -0.03216 -0.99948
vn -0 -0.03216 -0.99948
vn -0 -0.03216 -0.99948
vn 0 0.03216 0.99948
vn -0 0.03216 0.99948
vn 0 0.03216 0.99948
vn -0 0.03216 0.99948
vn 0 -0.03216 -0.99948
vn 0 -0.03216 -0.99948
vn 0 -0.03216 -0.99948
vn 0 -0.03216 -0.99948
vn 0.35321 -0.6522 0.67073
vn 0.35321 -0.65218 0.67075
vn 0.35321 -0.65219 0.67075
vn 0.35322 -0.65219 0.67073
vn 0.35321 -0.69395 -0.62743
vn 0.35321 -0.69397 -0.62742
vn 0.35322 -0.69396 -0.62742
vn 0.35321 -0.69395 -0.62743
vn 0.53899 0.35169 0.76538
vn 0.539 0.3517 0.76537
vn 0.53899 0.3517 0.76537
vn 0.539 0.3517 0.76537
vn 0.539 0.30176 -0.7864
vn 0.539 0.30177 -0.78639
vn 0.53899 0.30175 -0.78641
vn 0.53899 0.30176 -0.7864
vn 0.47069 -0.88184 0.02838
vn 0.47069 -0.88184 0.02838
vn 0.47069 -0.88184 0.02838
vn 0.47069 -0.88184 0.02838
vn -0.97178 0.23576 -0.00759
vn -0.97178 0.23575 -0.00759
vn -0.97178 0.23576 -0.00759
vn -0.97178 0.23576 -0.00759
vn 0.01506 -0.61068 0.79173
vn 0.01505 -0.61068 0.79173
vn 0.01506 -0.61068 0.79173
vn 0.01505 -0.61068 0.79174
vn 0.01506 -0.66032 -0.75084
vn 0.01505 -0.66032 -0.75084
vn 0.01505 -0.66032 -0.75084
vn 0.01506 -0.66032 -0.75083
vn 0.8532 0.52131 -0.01677
vn 0.8532 0.52131 -0.01677
vn 0.8532 0.52131 -0.01677
vn 0.8532 0.52131 -0.01677
vn 0.02368 -0.9992 0.03215
vn 0.02368 -0.9992 0.03215
vn 0.02368 -0.9992 0.03215
vn 0.02368 -0.9992 0.03215
vn -0.23588 -0.97128 0.03125
vn -0.23588 -0.97128 0.03125
vn -0.23588 -0.97128 0.03125
vn -0.23588 -0.97128 0.03125
vn 0.68087 -0.3399 0.64875
vn 0.68088 -0.33991 0.64874
vn 0.68087 -0.3399 0.64875
vn 0.68089 -0.3399 0.64873
vn 0.68089 -0.3809 -0.62554
vn 0.68087 -0.3809 -0.62556
vn 0.68087 -0.38091 -0.62556
vn 0.68089 -0.3809 -0.62554
vn 0.36795 0.51833 -0.77198
vn 0.36799 0.51829 -0.77198
vn 0.36823 0.51864 -0.77164
vn 0.36793 0.51831 -0.772
vn 0.36823 0.56717 0.7367
vn 0.36795 0.56689 0.73706
vn 0.36793 0.56687 0.73708
vn 0.36825 0.56719 0.73668
vn -0.74655 0.16053 -0.64567
vn -0.74655 0.16053 -0.64567
vn -0.74655 0.16053 -0.64567
vn -0.74655 0.16053 -0.64567
vn -0.74655 0.20171 0.63401
vn -0.74655 0.20171 0.63402
vn -0.74655 0.20171 0.63402
vn -0.74655 0.20171 0.63401
vn 0.60053 -0.17984 0.77912
vn 0.60054 -0.17986 0.77911
vn 0.60051 -0.17984 0.77913
vn 0.60052 -0.17983 0.77912
vn 0.60053 -0.22956 -0.76594
vn 0.60051 -0.22955 -0.76596
vn 0.60054 -0.22957 -0.76593
vn 0.60052 -0.22955 -0.76595
vn 0.88194 -0.47111 0.01516
vn 0.88194 -0.47111 0.01516
vn 0.88194 -0.47111 0.01516
vn 0.88194 -0.47111 0.01516
vn -0.85395 -0.52009 0.01674
vn -0.85395 -0.52009 0.01673
vn -0.85395 -0.52009 0.01674
vn -0.85395 -0.52009 0.01673
vn -0.16641 -0.73112 0.66164
vn -0.1664 -0.73111 0.66166
vn -0.16639 -0.73109 0.66168
vn -0.16641 -0.73111 0.66165
vn -0.1664 -0.77213 -0.61329
vn -0.1664 -0.77214 -0.61328
vn -0.16641 -0.77215 -0.61327
vn -0.16641 -0.77214 -0.61328
vn -0.97178 0.23576 -0.00759
vn -0.97178 0.23576 -0.00759
vn -0.97178 0.23576 -0.00759
vn -0.97178 0.23576 -0.00759
vn 0.56103 0.82737 -0.02662
vn 0.56103 0.82737 -0.02662
vn 0.56103 0.82737 -0.02662
vn 0.56103 0.82737 -0.02662
vn -0.74654 0.2017 0.63403
vn -0.74654 0.20171 0.63403
vn -0.74654 0.20171 0.63403
vn -0.74654 0.2017 0.63404
vn -0.74654 0.16053 -0.64569
vn -0.74654 0.16053 -0.64568
vn -0.74654 0.16053 -0.64568
vn -0.74654 0.16052 -0.64569
vn 0.9496 -0.31329 0.01008
vn 0.9496 -0.31329 0.01008
vn 0.9496 -0.31329 0.01008
vn 0.9496 -0.31329 0.01008
vn -0.21777 -0.9755 0.03139
vn -0.21777 -0.9755 0.03139
vn -0.21777 -0.9755 0.03139
vn -0.21777 -0.9755 0.03139
vn -0.97178 0.23576 -0.00759
vn -0.97178 0.23576 -0.00759
vn -0.97178 0.23576 -0.00759
vn -0.97178 0.23576 -0.00759
vn -0.74654 0.16052 -0.64568
vn -0.74656 0.16053 -0.64566
vn -0.74656 0.16053 -0.64567
vn -0.74654 0.16052 -0.64568
vn -0.74655 0.20171 0.63401
vn -0.74655 0.2017 0.63402
vn -0.74654 0.2017 0.63403
vn -0.74655 0.20171 0.63401
vn -0.1584 -0.73073 0.66404
vn -0.1584 -0.73073 0.66404
vn -0.1584 -0.73073 0.66404
vn -0.15839 -0.73073 0.66404
vn -0.1584 -0.77191 -0.61569
vn -0.1584 -0.77191 -0.61569
vn -0.1584 -0.77191 -0.61569
vn -0.1584 -0.77191 -0.61569
vn 0.49999 -0.86558 0.02785
vn -0.50001 -0.86557 0.02785
vn 0.50001 -0.86557 0.02785
vn -0.49999 -0.86558 0.02785
vn 1 1E-05 -0
vn -1 1E-05 -0
vn 1 -1E-05 0
vn -1 -1E-05 0
vn 0.49999 0.86558 -0.02785
vn -0.49999 0.86558 -0.02785
vn 0.50001 0.86557 -0.02785
vn -0.50001 0.86557 -0.02785
vn -0.97178 0.23575 -0.00759
vn -0.97178 0.23575 -0.00759
vn -0.97178 0.23575 -0.00759
vn -0.97178 0.23575 -0.00759
vn -0.20619 -0.97801 0.03147
vn -0.20619 -0.97801 0.03147
vn -0.20619 -0.97801 0.03147
vn -0.20619 -0.97801 0.03147
vt 0 0
usemtl mat0
f 1/1/1 2/1/2 3/1/3
f 2/1/2 1/1/1 4/1/4
f 5/1/5 6/1/6 7/1/7
f 6/1/6 5/1/5 8/1/8
f 9/1/9 10/1/10 11/1/11
f 9/1/9 11/1/11 12/1/12
f 13/1/13 14/1/14 15/1/15
f 16/1/16 15/1/15 14/1/14
f 17/1/17 18/1/18 19/1/19
f 20/1/20 19/1/19 18/1/18
f 21/1/21 22/1/22 23/1/23
f 21/1/21 23/1/23 24/1/24
f 25/1/25 26/1/26 27/1/27
f 26/1/26 25/1/25 28/1/28
f 29/1/29 30/1/30 31/1/31
f 30/1/30 29/1/29 32/1/32
f 33/1/33 34/1/34 35/1/35
f 33/1/33 35/1/35 36/1/36
f 37/1/37 38/1/38 39/1/39
f 38/1/38 37/1/37 40/1/40
f 41/1/41 42/1/42 43/1/43
f 42/1/42 41/1/41 44/1/44
f 45/1/45 46/1/46 47/1/47
f 47/1/47 48/1/48 45/1/45
f 49/1/49 50/1/50 51/1/51
f 50/1/50 49/1/49 52/1/52
f 53/1/53 54/1/54 55/1/55
f 54/1/54 53/1/53 56/1/56
f 57/1/57 58/1/58 59/1/59
f 58/1/58 57/1/57 60/1/60
f 61/1/61 62/1/62 63/1/63
f 61/1/61 63/1/63 64/1/64
f 65/1/65 66/1/66 67/1/67
f 66/1/66 65/1/65 68/1/68
f 69/1/69 70/1/70 71/1/71
f 70/1/70 69/1/69 72/1/72
f 73/1/73 74/1/74 75/1/75
f 74/1/74 73/1/73 76/1/76
f 77/1/77 78/1/78 79/1/79
f 78/1/78 77/1/77 80/1/80
f 81/1/81 82/1/82 83/1/83
f 81/1/81 83/1/83 84/1/84
f 85/1/85 86/1/86 87/1/87
f 86/1/86 85/1/85 88/1/88
f 89/1/89 90/1/90 91/1/91
f 91/1/91 92/1/92 89/1/89
f 93/1/93 94/1/94 95/1/95
f 94/1/94 93/1/93 96/1/96
f 97/1/97 98/1/98 99/1/99
f 98/1/98 97/1/97 100/1/100
f 101/1/101 102/1/102 103/1/103
f 101/1/101 104/1/104 102/1/102
f 105/1/105 106/1/106 107/1/107
f 107/1/107 108/1/108 105/1/105
f 109/1/109 110/1/110 111/1/111
f 110/1/110 109/1/109 112/1/112
f 113/1/113 114/1/114 115/1/115
f 114/1/114 113/1/113 116/1/116
f 117/1/117 118/1/118 119/1/119
f 118/1/118 117/1/117 120/1/120
f 121/1/121 122/1/122 123/1/123
f 121/1/121 123/1/123 124/1/124
f 125/1/125 126/1/126 127/1/127
f 127/1/127 126/1/126 128/1/128
f 129/1/129 130/1/130 131/1/131
f 129/1/129 131/1/131 132/1/132
f 133/1/133 134/1/134 135/1/135
f 133/1/133 135/1/135 136/1/136
f 137/1/137 138/1/138 139/1/139
f 138/1/138 137/1/137 140/1/140
f 141/1/141 142/1/142 143/1/143
f 142/1/142 141/1/141 144/1/144
f 145/1/145 146/1/146 147/1/147
f 146/1/146 145/1/145 148/1/148
f 149/1/149 150/1/150 151/1/151
f 149/1/149 151/1/151 152/1/152
f 153/1/153 154/1/154 155/1/155
f 156/1/156 155/1/155 154/1/154
f 157/1/157 158/1/158 159/1/159
f 157/1/157 159/1/159 160/1/160
f 161/1/161 162/1/162 163/1/163
f 164/1/164 163/1/163 162/1/162
f 165/1/165 166/1/166 167/1/167
f 167/1/167 168/1/168 165/1/165
f 169/1/169 170/1/170 171/1/171
f 170/1/170 169/1/169 172/1/172
f 173/1/173 174/1/174 175/1/175
f 174/1/174 173/1/173 176/1/176
f 177/1/177 178/1/178 179/1/179
f 177/1/177 179/1/179 180/1/180
f 181/1/181 182/1/182 183/1/183
f 182/1/182 181/1/181 184/1/184
f 185/1/185 182/1/182 184/1/184
f 182/1/182 185/1/185 186/1/186
f 187/1/187 188/1/188 189/1/189
f 188/1/188 187/1/187 190/1/190
f 191/1/191 189/1/189 188/1/188
f 191/1/191 188/1/188 192/1/192
f 193/1/193 194/1/194 195/1/195
f 193/1/193 195/1/195 196/1/196
f 197/1/197 198/1/198 199/1/199
f 197/1/197 199/1/199 200/1/200
f 198/1/198 201/1/201 199/1/199
f 202/1/202 197/1/197 200/1/200
f 203/1/203 201/1/201 198/1/198
f 197/1/197 202/1/202 204/1/204
f 205/1/205 201/1/201 203/1/203
f 206/1/206 204/1/204 202/1/202
f 201/1/201 205/1/205 207/1/207
f 206/1/206 202/1/202 208/1/208
f 205/1/205 208/1/208 207/1/207
f 208/1/208 205/1/205 206/1/206
f 209/1/209 210/1/210 211/1/211
f 212/1/212 211/1/211 210/1/210
f 209/1/209 211/1/211 213/1/213
f 211/1/211 212/1/212 214/1/214
f 209/1/209 213/1/213 215/1/215
f 212/1/212 216/1/216 214/1/214
f 215/1/215 213/1/213 217/1/217
f 212/1/212 218/1/218 216/1/216
f 219/1/219 215/1/215 217/1/217
f 218/1/218 219/1/219 216/1/216
f 215/1/215 219/1/219 220/1/220
f 220/1/220 219/1/219 218/1/218
f 221/1/221 222/1/222 223/1/223
f 221/1/221 223/1/223 224/1/224
f 222/1/222 225/1/225 223/1/223
f 226/1/226 221/1/221 224/1/224
f 225/1/225 222/1/222 227/1/227
f 221/1/221 226/1/226 228/1/228
f 229/1/229 225/1/225 227/1/227
f 230/1/230 228/1/228 226/1/226
f 225/1/225 229/1/229 231/1/231
f 230/1/230 226/1/226 232/1/232
f 229/1/229 232/1/232 231/1/231
f 232/1/232 229/1/229 230/1/230
f 233/1/233 234/1/234 235/1/235
f 234/1/234 236/1/236 235/1/235
f 234/1/234 233/1/233 237/1/237
f 236/1/236 234/1/234 238/1/238
f 233/1/233 239/1/239 237/1/237
f 240/1/240 236/1/236 238/1/238
f 239/1/239 233/1/233 241/1/241
f 240/1/240 238/1/238 242/1/242
f 241/1/241 243/1/243 239/1/239
f 243/1/243 240/1/240 242/1/242
f 241/1/241 244/1/244 243/1/243
f 240/1/240 243/1/243 244/1/244
f 245/1/245 246/1/246 247/1/247
f 246/1/246 245/1/245 248/1/248
f 249/1/249 247/1/247 246/1/246
f 246/1/246 250/1/250 249/1/249
f 251/1/251 252/1/252 253/1/253
f 252/1/252 251/1/251 254/1/254
f 255/1/255 252/1/252 254/1/254
f 252/1/252 255/1/255 256/1/256
f 257/1/257 258/1/258 259/1/259
f 257/1/257 259/1/259 260/1/260
f 261/1/261 259/1/259 258/1/258
f 259/1/259 261/1/261 262/1/262
f 263/1/263 264/1/264 265/1/265
f 266/1/266 263/1/263 265/1/265
f 263/1/263 266/1/266 267/1/267
f 264/1/264 263/1/263 268/1/268
f 264/1/264 268/1/268 269/1/269
f 269/1/269 268/1/268 270/1/270
f 271/1/271 272/1/272 273/1/273
f 272/1/272 271/1/271 274/1/274
f 275/1/275 274/1/274 271/1/271
f 275/1/275 276/1/276 274/1/274
f 276/1/276 275/1/275 277/1/277
f 277/1/277 275/1/275 278/1/278
f 279/1/279 280/1/280 281/1/281
f 280/1/280 279/1/279 282/1/282
f 279/1/279 281/1/281 283/1/283
f 281/1/281 284/1/284 283/1/283
f 285/1/285 286/1/286 287/1/287
f 286/1/286 285/1/285 288/1/288
f 289/1/289 287/1/287 286/1/286
f 287/1/287 289/1/289 290/1/290
f 291/1/291 292/1/292 293/1/293
f 294/1/294 293/1/293 292/1/292
f 292/1/292 291/1/291 295/1/295
f 292/1/292 296/1/296 294/1/294
f 297/1/297 295/1/295 291/1/291
f 296/1/296 298/1/298 294/1/294
f 297/1/297 291/1/291 299/1/299
f 296/1/296 300/1/300 298/1/298
f 301/1/301 297/1/297 299/1/299
f 301/1/301 298/1/298 300/1/300
f 299/1/299 302/1/302 301/1/301
f 298/1/298 301/1/301 302/1/302
f 303/1/303 304/1/304 305/1/305
f 306/1/306 305/1/305 304/1/304
f 303/1/303 305/1/305 307/1/307
f 305/1/305 306/1/306 308/1/308
f 309/1/309 303/1/303 307/1/307
f 310/1/310 308/1/308 306/1/306
f 303/1/303 309/1/309 311/1/311
f 308/1/308 310/1/310 312/1/312
f 313/1/313 311/1/311 309/1/309
f 310/1/310 313/1/313 312/1/312
f 311/1/311 313/1/313 314/1/314
f 313/1/313 310/1/310 314/1/314
f 315/1/315 316/1/316 317/1/317
f 316/1/316 318/1/318 317/1/317
f 315/1/315 317/1/317 319/1/319
f 318/1/318 316/1/316 320/1/320
f 319/1/319 321/1/321 315/1/315
f 320/1/320 322/1/322 318/1/318
f 321/1/321 319/1/319 323/1/323
f 320/1/320 324/1/324 322/1/322
f 325/1/325 321/1/321 323/1/323
f 324/1/324 326/1/326 322/1/322
f 325/1/325 323/1/323 327/1/327
f 326/1/326 324/1/324 328/1/328
f 329/1/329 325/1/325 327/1/327
f 328/1/328 329/1/329 326/1/326
f 325/1/325 329/1/329 330/1/330
f 328/1/328 330/1/330 329/1/329
f 331/1/331 332/1/332 333/1/333
f 333/1/333 332/1/332 334/1/334
f 332/1/332 331/1/331 335/1/335
f 336/1/336 333/1/333 334/1/334
f 331/1/331 337/1/337 335/1/335
f 338/1/338 336/1/336 334/1/334
f 337/1/337 331/1/331 339/1/339
f 336/1/336 338/1/338 340/1/340
f 341/1/341 337/1/337 339/1/339
f 338/1/338 342/1/342 340/1/340
f 337/1/337 341/1/341 343/1/343
f 340/1/340 342/1/342 344/1/344
f 345/1/345 343/1/343 341/1/341
f 346/1/346 344/1/344 342/1/342
f 343/1/343 345/1/345 346/1/346
f 344/1/344 346/1/346 345/1/345
f 347/1/347 348/1/348 349/1/349
f 348/1/348 347/1/347 350/1/350
f 351/1/351 349/1/349 348/1/348
f 349/1/349 351/1/351 352/1/352
f 353/1/353 354/1/354 355/1/355
f 354/1/354 353/1/353 356/1/356
f 357/1/357 354/1/354 356/1/356
f 357/1/357 356/1/356 358/1/358
f 359/1/359 360/1/360 361/1/361
f 362/1/362 361/1/361 360/1/360
f 359/1/359 361/1/361 363/1/363
f 360/1/360 364/1/364 362/1/362
f 363/1/363 365/1/365 359/1/359
f 364/1/364 360/1/360 366/1/366
f 366/1/366 367/1/367 364/1/364
f 367/1/367 366/1/366 368/1/368
f 369/1/369 359/1/359 365/1/365
f 369/1/369 365/1/365 370/1/370
f 370/1/370 371/1/371 369/1/369
f 372/1/372 369/1/369 371/1/371
f 371/1/371 373/1/373 372/1/372
f 374/1/374 375/1/375 376/1/376
f 375/1/375 377/1/377 376/1/376
f 375/1/375 374/1/374 378/1/378
f 379/1/379 376/1/376 377/1/377
f 380/1/380 378/1/378 374/1/374
f 381/1/381 380/1/380 374/1/374
f 380/1/380 381/1/381 382/1/382
f 383/1/383 376/1/376 379/1/379
f 379/1/379 384/1/384 383/1/383
f 385/1/385 383/1/383 384/1/384
f 383/1/383 385/1/385 386/1/386
f 387/1/387 386/1/386 385/1/385
f 386/1/386 387/1/387 388/1/388
f 389/1/389 390/1/390 391/1/391
f 392/1/392 391/1/391 390/1/390
f 393/1/393 392/1/392 390/1/390
f 392/1/392 393/1/393 394/1/394
f 395/1/395 394/1/394 393/1/393
f 395/1/395 393/1/393 396/1/396
f 396/1/396 397/1/397 395/1/395
f 397/1/397 396/1/396 398/1/398
f 399/1/399 400/1/400 401/1/401
f 401/1/401 402/1/402 399/1/399
f 401/1/401 400/1/400 403/1/403
f 404/1/404 403/1/403 400/1/400
f 403/1/403 404/1/404 405/1/405
f 402/1/402 401/1/401 406/1/406
f 407/1/407 402/1/402 406/1/406
f 407/1/407 406/1/406 408/1/408
f 409/1/409 410/1/410 411/1/411
f 410/1/410 409/1/409 412/1/412
f 413/1/413 414/1/414 415/1/415
f 414/1/414 413/1/413 416/1/416
f 417/1/417 418/1/418 419/1/419
f 417/1/417 419/1/419 420/1/420
f 421/1/421 422/1/422 423/1/423
f 422/1/422 421/1/421 424/1/424
f 425/1/425 426/1/426 427/1/427
f 426/1/426 425/1/425 428/1/428
f 429/1/429 430/1/430 431/1/431
f 429/1/429 431/1/431 432/1/432
f 433/1/433 434/1/434 435/1/435
f 433/1/433 435/1/435 436/1/436
f 437/1/437 438/1/438 439/1/439
f 439/1/439 440/1/440 437/1/437
f 441/1/441 442/1/442 443/1/443
f 442/1/442 441/1/441 444/1/444
f 445/1/445 446/1/446 447/1/447
f 446/1/446 445/1/445 448/1/448
f 449/1/449 450/1/450 451/1/451
f 449/1/449 451/1/451 452/1/452
f 453/1/453 454/1/454 455/1/455
f 454/1/454 456/1/456 455/1/455
f 457/1/457 458/1/458 459/1/459
f 459/1/459 460/1/460 457/1/457
f 461/1/461 462/1/462 463/1/463
f 462/1/462 461/1/461 464/1/464
f 465/1/465 466/1/466 467/1/467
f 466/1/466 465/1/465 468/1/468
f 469/1/469 470/1/470 471/1/471
f 471/1/471 472/1/472 469/1/469
f 473/1/473 474/1/474 475/1/475
f 474/1/474 473/1/473 476/1/476
f 477/1/477 478/1/478 479/1/479
f 477/1/477 479/1/479 480/1/480
f 481/1/481 482/1/482 483/1/483
f 482/1/482 481/1/481 484/1/484
f 485/1/485 486/1/486 487/1/487
f 486/1/486 485/1/485 488/1/488
f 489/1/489 490/1/490 491/1/491
f 491/1/491 492/1/492 489/1/489
f 493/1/493 494/1/494 495/1/495
f 493/1/493 495/1/495 496/1/496
f 497/1/497 498/1/498 499/1/499
f 500/1/500 499/1/499 498/1/498
f 501/1/501 502/1/502 503/1/503
f 502/1/502 501/1/501 504/1/504
f 505/1/505 506/1/506 507/1/507
f 505/1/505 507/1/507 508/1/508
f 509/1/509 510/1/510 511/1/511
f 512/1/512 511/1/511 510/1/510
f 513/1/513 514/1/514 515/1/515
f 516/1/516 515/1/515 514/1/514
f 517/1/517 518/1/518 519/1/519
f 518/1/518 517/1/517 520/1/520
f 521/1/521 522/1/522 523/1/523
f 521/1/521 523/1/523 524/1/524
f 525/1/525 526/1/526 527/1/527
f 528/1/528 527/1/527 526/1/526
f 529/1/529 530/1/530 531/1/531
f 532/1/532 531/1/531 530/1/530
f 533/1/533 534/1/534 535/1/535
f 534/1/534 533/1/533 536/1/536
f 537/1/537 538/1/538 539/1/539
f 537/1/537 539/1/539 540/1/540
f 541/1/541 542/1/542 543/1/543
f 542/1/542 541/1/541 544/1/544
f 545/1/545 546/1/546 547/1/547
f 546/1/546 545/1/545 548/1/548
f 549/1/549 550/1/550 551/1/551
f 549/1/549 551/1/551 552/1/552
f 553/1/553 554/1/554 555/1/555
f 556/1/556 555/1/555 554/1/554
f 555/1/555 557/1/557 553/1/553
f 554/1/554 558/1/558 556/1/556
f 559/1/559 553/1/553 557/1/557
f 560/1/560 556/1/556 558/1/558
f 557/1/557 561/1/561 559/1/559
f 558/1/558 562/1/562 560/1/560
f 563/1/563 559/1/559 561/1/561
f 564/1/564 560/1/560 562/1/562
f 562/1/562 563/1/563 564/1/564
f 561/1/561 564/1/564 563/1/563
f 565/1/565 566/1/566 567/1/567
f 566/1/566 565/1/565 568/1/568
f 569/1/569 570/1/570 571/1/571
f 570/1/570 569/1/569 572/1/572
# Vertices: 572, normals: 572, texture coordinates: 1, faces: 374

o obj2
v 0.87936807 -1.83934188 -0.02579787
v 0.95528412 -1.71790183 0.02579811
v 0.95528412 -1.71790183 -0.02579788
v 0.87936807 -1.83934188 0.02579813
v 0.8658691 -1.81995285 -0.05186687
v 0.95528412 -1.71790183 -0.02579788
v 0.93201607 -1.71414089 -0.05186689
v 0.87936807 -1.83934188 -0.02579787
v 0.95528412 -1.71790183 0.02579811
v 0.87936807 -1.83934188 0.02579813
v 0.8658691 -1.81995285 0.05186713
v 0.93201607 -1.71414089 0.05186712
v 0.71084911 -1.87425089 0.02579813
v 0.87936807 -1.83934188 0.02579813
v 0.71084911 -1.87425089 -0.02579787
v 0.87936807 -1.83934188 -0.02579787
v 0.95528412 -1.71790183 0.02579811
v 0.91395408 -1.54763186 0.0257981
v 0.95528412 -1.71790183 -0.02579788
v 0.91395408 -1.54763186 -0.0257979
v 0.8658691 -1.81995285 -0.05186687
v 0.71390307 -1.85143197 -0.05186687
v 0.71084911 -1.87425089 -0.02579787
v 0.87936807 -1.83934188 -0.02579787
v 0.71084911 -1.87425089 0.02579813
v 0.8658691 -1.81995285 0.05186713
v 0.87936807 -1.83934188 0.02579813
v 0.71390307 -1.85143197 0.05186713
v 0.95528412 -1.71790183 0.02579811
v 0.89505309 -1.56185997 0.0518671
v 0.91395408 -1.54763186 0.0257981
v 0.93201607 -1.71414089 0.05186712
v 0.89505309 -1.56185997 -0.0518669
v 0.93201607 -1.71414089 -0.05186689
v 0.95528412 -1.71790183 -0.02579788
v 0.91395408 -1.54763186 -0.0257979
v -0.40418792 -1.11863089 -0.03074896
v -0.2877579 -1.48399985 0.03074908
v -0.2877579 -1.48399985 -0.03074891
v -0.40418792 -1.11863089 0.03074905
v 0.63827312 -1.61109483 -0.0257979
v 0.81442606 -1.57178986 0.0257981
v 0.81442606 -1.57178986 -0.0257979
v 0.63827312 -1.61109483 0.0257981
v 0.43268809 -1.65297091 0.05161811
v 0.43268809 -1.65297091 -0.05161789
v 0.37897009 -1.6660099 -0.05161789
v 0.37897009 -1.6660099 0.05161811
v 0.43268809 -1.65297091 -0.05161789
v 0.56201112 -1.44074392 0.05161808
v 0.56201112 -1.44074392 -0.05161792
v 0.43268809 -1.65297091 0.05161811
v -0.11418691 -0.89933085 -0.03074898
v -0.40418792 -1.11863089 0.03074905
v -0.40418792 -1.11863089 -0.03074896
v -0.11418691 -0.89933085 0.03074902
v 0.66844511 -1.78152883 -0.02579788
v 0.60431206 -1.51731789 0.0257981
v 0.60431206 -1.51731789 -0.02579791
v 0.66844511 -1.78152883 0.02579813
v 0.81442606 -1.57178986 0.0257981
v 0.63827312 -1.61109483 0.0257981
v 0.6542601 -1.58485997 0.0518671
v 0.83041209 -1.54555488 0.0518671
v 0.6542601 -1.58485997 -0.0518669
v 0.81442606 -1.57178986 -0.0257979
v 0.83041209 -1.54555488 -0.0518669
v 0.63827312 -1.61109483 -0.0257979
v 0.56201112 -1.44074392 -0.05161792
v 0.54897213 -1.38702488 0.05161807
v 0.54897213 -1.38702488 -0.05161792
v 0.56201112 -1.44074392 0.05161808
v -0.47180194 -0.77916884 0.029124
v -0.32288492 -1.08650291 -0.02912396
v -0.47180194 -0.77916884 -0.029124
v -0.32288492 -1.08650291 0.02912404
v -0.40418792 -1.11863089 0.03074905
v -0.2712599 -1.4604789 0.05045108
v -0.2877579 -1.48399985 0.03074908
v -0.37567693 -1.12597895 0.05045105
v -0.40418792 -1.11863089 -0.03074896
v -0.2877579 -1.48399985 -0.03074891
v -0.2712599 -1.4604789 -0.05045092
v -0.37567693 -1.12597895 -0.05045095
v 0.66844511 -1.78152883 0.02579813
v 0.58527809 -1.53099692 0.0518671
v 0.60431206 -1.51731789 0.0257981
v 0.65230405 -1.80713189 0.05186713
v 0.58527809 -1.53099692 -0.0518669
v 0.65230405 -1.80713189 -0.05186687
v 0.66844511 -1.78152883 -0.02579788
v 0.60431206 -1.51731789 -0.02579791
v 0.5600611 -1.79758894 -0.02579787
v 0.71084911 -1.87425089 0.02579813
v 0.71084911 -1.87425089 -0.02579787
v 0.5600611 -1.79758894 0.02579813
v -0.40418792 -1.11863089 -0.03074896
v -0.1232509 -0.93801886 -0.05045098
v -0.11418691 -0.89933085 -0.03074898
v -0.37567693 -1.12597895 -0.05045095
v -0.40418792 -1.11863089 0.03074905
v -0.1232509 -0.93801886 0.05045102
v -0.37567693 -1.12597895 0.05045105
v -0.11418691 -0.89933085 0.03074902
v -0.30888292 -1.0754509 -0.04912096
v -0.45396888 -0.77962989 -0.049121
v -0.47180194 -0.77916884 -0.029124
v -0.32288492 -1.08650291 -0.02912396
v -0.47180194 -0.77916884 0.029124
v -0.30888292 -1.0754509 0.04912204
v -0.32288492 -1.08650291 0.02912404
v -0.45396888 -0.77962989 0.049122
v -0.2877579 -1.48399985 -0.03074891
v -0.0964869 -1.48852992 0.03074908
v -0.0964869 -1.48852992 -0.03074891
v -0.2877579 -1.48399985 0.03074908
v 0.57881409 -1.78275192 -0.05186688
v 0.71084911 -1.87425089 -0.02579787
v 0.71390307 -1.85143197 -0.05186687
v 0.5600611 -1.79758894 -0.02579787
v 0.71084911 -1.87425089 0.02579813
v 0.5600611 -1.79758894 0.02579813
v 0.57881409 -1.78275192 0.05186713
v 0.71390307 -1.85143197 0.05186713
v 0.25973707 -1.59335589 -0.0516179
v 0.25973707 -1.59335589 0.0516181
v 0.37897009 -1.6660099 -0.05161789
v 0.37897009 -1.6660099 0.05161811
v -0.07879591 -1.25282192 -0.03041294
v -0.2949779 -0.72032285 -0.03041301
v -0.2949779 -0.72032285 0.03041299
v -0.07879591 -1.25282192 0.03041306
v -0.0964869 -1.48852992 0.03074908
v -0.2877579 -1.48399985 0.03074908
v -0.2712599 -1.4604789 0.05045108
v -0.10890791 -1.46432388 0.05045108
v -0.0964869 -1.48852992 -0.03074891
v -0.2712599 -1.4604789 -0.05045092
v -0.2877579 -1.48399985 -0.03074891
v -0.10890791 -1.46432388 -0.05045092
v -0.03898191 -1.17668188 0.03074905
v -0.13612491 -1.3487289 -0.03074893
v -0.03898191 -1.17668188 -0.03074895
v -0.13612491 -1.3487289 0.03074907
v -0.13612491 -1.3487289 -0.03074893
v -0.03077991 -1.20742285 -0.05045095
v -0.03898191 -1.17668188 -0.03074895
v -0.1235559 -1.37293792 -0.05045092
v -0.03077991 -1.20742285 0.05045105
v -0.1235559 -1.37293792 0.05045107
v -0.13612491 -1.3487289 0.03074907
v -0.03898191 -1.17668188 0.03074905
v -0.07879591 -1.25282192 0.03041306
v 0.3123281 -1.53047991 0.0304131
v -0.07879591 -1.25282192 -0.03041294
v 0.3123281 -1.53047991 -0.0304129
v 0.52030408 -1.63379788 -0.0257979
v 0.38119009 -1.54633391 -0.0257979
v 0.38119009 -1.54633391 0.0257981
v 0.52030408 -1.63379788 0.0257981
v 0.91395408 -1.54763186 0.0257981
v 0.79162312 -1.47784889 0.02579809
v 0.91395408 -1.54763186 -0.0257979
v 0.79162312 -1.47784889 -0.02579791
v 0.52030408 -1.63379788 0.0257981
v 0.38119009 -1.54633391 0.0257981
v 0.40896809 -1.53919995 0.0518671
v 0.5394721 -1.62067091 0.0518671
v 0.40896809 -1.53919995 -0.0518669
v 0.52030408 -1.63379788 -0.0257979
v 0.5394721 -1.62067091 -0.0518669
v 0.38119009 -1.54633391 -0.0257979
v 0.89505309 -1.56185997 -0.0518669
v 0.79162312 -1.47784889 -0.02579791
v 0.78835809 -1.50099587 -0.05186691
v 0.91395408 -1.54763186 -0.0257979
v 0.79162312 -1.47784889 0.02579809
v 0.91395408 -1.54763186 0.0257981
v 0.89505309 -1.56185997 0.0518671
v 0.78835809 -1.50099587 0.05186709
v -0.2949779 -0.72032285 -0.03041301
v -0.0585549 -1.23436391 -0.05593595
v -0.26259491 -0.71223485 -0.05593601
v -0.07879591 -1.25282192 -0.03041294
v 0.3123281 -1.53047991 -0.0304129
v 0.3239401 -1.50354683 -0.05593591
v -0.2949779 -0.72032285 0.03041299
v -0.0585549 -1.23436391 0.05593605
v -0.07879591 -1.25282192 0.03041306
v -0.26259491 -0.71223485 0.05593599
v 0.3123281 -1.53047991 0.0304131
v 0.3239401 -1.50354683 0.0559361
v 0.42973909 -1.31436992 -0.05161794
v 0.54897213 -1.38702488 -0.05161792
v 0.54897213 -1.38702488 0.05161807
v 0.42973909 -1.31436992 0.05161807
v -0.31333992 -0.80034685 0.07660401
v -0.4788909 -0.80034685 0.07660401
v -0.43750292 -0.72866088 0.07660399
v -0.35472792 -0.72866088 0.07660399
v -0.4788909 -0.65697485 0.07660399
v -0.31333992 -0.65697485 0.07660399
v -0.56166691 -0.65697485 0.07660399
v -0.23056391 -0.65697485 0.07660399
v -0.4788909 -0.51360285 0.07660397
v -0.31333992 -0.51360285 0.07660397
v -0.43750292 -0.58528882 0.07660398
v -0.35472792 -0.58528882 0.07660398
v -0.31333992 -0.80034685 -0.07660399
v -0.23056391 -0.65697485 -0.07660401
v -0.31333992 -0.65697485 -0.07660401
v -0.31333992 -0.51360285 -0.07660403
v -0.35472792 -0.72866088 -0.07660401
v -0.35472792 -0.58528882 -0.07660403
v -0.4788909 -0.80034685 -0.07660399
v -0.43750292 -0.58528882 -0.07660403
v -0.43750292 -0.72866088 -0.07660401
v -0.4788909 -0.51360285 -0.07660403
v -0.4788909 -0.65697485 -0.07660401
v -0.56166691 -0.65697485 -0.07660401
v -0.4788909 -0.65697485 -0.07660401
v -0.43750292 -0.72866088 -0.07660401
v -0.42781991 -0.71188885 -0.06321201
v -0.45952493 -0.65697485 -0.06321201
v -0.36441094 -0.71188885 -0.06321201
v -0.42781991 -0.60206085 -0.06321201
v -0.35472792 -0.72866088 -0.07660401
v -0.43750292 -0.58528882 -0.07660403
v -0.31333992 -0.65697485 -0.07660401
v -0.35472792 -0.58528882 -0.07660403
v -0.33270591 -0.65697485 -0.06321201
v -0.36441094 -0.60206085 -0.06321201
v -0.31333992 -0.65697485 0.07660399
v -0.36441094 -0.60206085 0.06321198
v -0.35472792 -0.58528882 0.07660398
v -0.43750292 -0.58528882 0.07660398
v -0.33270591 -0.65697485 0.06321199
v -0.42781991 -0.60206085 0.06321198
v -0.36441094 -0.71188885 0.06321199
v -0.4788909 -0.65697485 0.07660399
v -0.35472792 -0.72866088 0.07660399
v -0.45952493 -0.65697485 0.06321199
v -0.42781991 -0.71188885 0.06321199
v -0.43750292 -0.72866088 0.07660399
v -0.14518192 -0.68719786 0.05593599
v 0.06555109 -1.11501288 0.03041304
v 0.04581809 -1.13316488 0.05593605
v -0.1169509 -0.68372887 0.03041299
v 0.35792208 -1.40747988 0.05593608
v 0.38169709 -1.3890779 0.03041307
v -0.14518192 -0.68719786 -0.05593601
v 0.06555109 -1.11501288 -0.03041296
v -0.1169509 -0.68372887 -0.03041301
v 0.04581809 -1.13316488 -0.05593595
v 0.35792208 -1.40747988 -0.05593592
v 0.38169709 -1.3890779 -0.03041293
v -0.1169509 -0.68372887 -0.03041301
v 0.06555109 -1.11501288 -0.03041296
v 0.06555109 -1.11501288 0.03041304
v -0.1169509 -0.68372887 0.03041299
v 0.38169709 -1.3890779 -0.03041293
v 0.38169709 -1.3890779 0.03041307
v 0.27578408 -1.53248191 0.0640331
v 0.53292608 -1.44789791 0.06403308
v 0.42571211 -1.62384284 0.0640331
v 0.37181509 -1.63692486 0.06403311
v 0.2888661 -1.58637989 0.0640331
v 0.3829971 -1.35653889 0.06403308
v 0.5198431 -1.39400089 0.06403308
v 0.43689409 -1.34345496 0.06403308
v 0.3829971 -1.35653889 -0.06403293
v 0.5198431 -1.39400089 -0.06403293
v 0.43689409 -1.34345496 -0.06403293
v 0.53292608 -1.44789791 -0.06403292
v 0.27578408 -1.53248191 -0.0640329
v 0.42571211 -1.62384284 -0.0640329
v 0.37181509 -1.63692486 -0.06403288
v 0.2888661 -1.58637989 -0.0640329
v -0.36441094 -0.60206085 0.06321198
v -0.36441094 -0.71188885 0.06321199
v -0.42781991 -0.71188885 0.06321199
v -0.33270591 -0.65697485 0.06321199
v -0.42781991 -0.60206085 0.06321198
v -0.45952493 -0.65697485 0.06321199
v -0.36441094 -0.71188885 -0.06321201
v -0.36441094 -0.60206085 -0.06321201
v -0.42781991 -0.71188885 -0.06321201
v -0.33270591 -0.65697485 -0.06321201
v -0.42781991 -0.60206085 -0.06321201
v -0.45952493 -0.65697485 -0.06321201
v -0.4788909 -0.51360285 -0.07660403
v -0.58912194 -0.65697485 -0.04514801
v -0.56166691 -0.65697485 -0.07660401
v -0.4788909 -0.80034685 -0.07660399
v -0.49261892 -0.48982689 -0.04514803
v -0.49261892 -0.82412285 -0.04514799
v -0.29961291 -0.48982689 -0.04514803
v -0.31333992 -0.80034685 -0.07660399
v -0.31333992 -0.51360285 -0.07660403
v -0.2996119 -0.82412285 -0.04514799
v -0.20310891 -0.65697485 -0.04514801
v -0.23056391 -0.65697485 -0.07660401
v -0.58912194 -0.65697485 0.04514799
v -0.49261892 -0.48982689 0.04514797
v -0.4788909 -0.51360285 0.07660397
v -0.29961291 -0.48982689 0.04514797
v -0.56166691 -0.65697485 0.07660399
v -0.31333992 -0.51360285 0.07660397
v -0.4788909 -0.80034685 0.07660401
v -0.20310891 -0.65697485 0.04514799
v -0.49261892 -0.82412285 0.04514801
v -0.23056391 -0.65697485 0.07660399
v -0.31333992 -0.80034685 0.07660401
v -0.2996119 -0.82412285 0.04514801
v 0.37602109 -1.32740891 -0.05161794
v 0.24669808 -1.53963697 -0.0516179
v 0.27578408 -1.53248191 -0.0640329
v 0.2888661 -1.58637989 -0.0640329
v 0.3829971 -1.35653889 -0.06403293
v 0.25973707 -1.59335589 -0.0516179
v 0.42973909 -1.31436992 -0.05161794
v 0.37181509 -1.63692486 -0.06403288
v 0.43689409 -1.34345496 -0.06403293
v 0.37897009 -1.6660099 -0.05161789
v 0.54897213 -1.38702488 -0.05161792
v 0.42571211 -1.62384284 -0.0640329
v 0.5198431 -1.39400089 -0.06403293
v 0.43268809 -1.65297091 -0.05161789
v 0.53292608 -1.44789791 -0.06403292
v 0.56201112 -1.44074392 -0.05161792
v 0.54897213 -1.38702488 0.05161807
v 0.43689409 -1.34345496 0.06403308
v 0.42973909 -1.31436992 0.05161807
v 0.3829971 -1.35653889 0.06403308
v 0.5198431 -1.39400089 0.06403308
v 0.37602109 -1.32740891 0.05161807
v 0.53292608 -1.44789791 0.06403308
v 0.27578408 -1.53248191 0.0640331
v 0.56201112 -1.44074392 0.05161808
v 0.24669808 -1.53963697 0.05161809
v 0.43268809 -1.65297091 0.05161811
v 0.2888661 -1.58637989 0.0640331
v 0.42571211 -1.62384284 0.0640331
v 0.25973707 -1.59335589 0.0516181
v 0.37897009 -1.6660099 0.05161811
v 0.37181509 -1.63692486 0.06403311
v -0.26259491 -0.71223485 0.05593599
v 0.04581809 -1.13316488 0.05593605
v -0.0585549 -1.23436391 0.05593605
v -0.14518192 -0.68719786 0.05593599
v 0.35792208 -1.40747988 0.05593608
v 0.3239401 -1.50354683 0.0559361
v 0.35792208 -1.40747988 -0.05593592
v -0.0585549 -1.23436391 -0.05593595
v 0.3239401 -1.50354683 -0.05593591
v 0.04581809 -1.13316488 -0.05593595
v -0.26259491 -0.71223485 -0.05593601
v -0.14518192 -0.68719786 -0.05593601
v 0.8821491 -1.75869989 -0.05186688
v 0.65230405 -1.80713189 -0.05186687
v 0.71390307 -1.85143197 -0.05186687
v 0.57881409 -1.78275192 -0.05186688
v 0.8658691 -1.81995285 -0.05186687
v 0.5394721 -1.62067091 -0.0518669
v 0.93201607 -1.71414089 -0.05186689
v 0.58527809 -1.53099692 -0.0518669
v 0.40896809 -1.53919995 -0.0518669
v 0.44798309 -1.46045589 -0.05186692
v 0.83041209 -1.54555488 -0.0518669
v 0.89505309 -1.56185997 -0.0518669
v 0.78835809 -1.50099587 -0.05186691
v 0.6542601 -1.58485997 -0.0518669
v 0.64170611 -1.53313994 -0.0518669
v 0.83041209 -1.54555488 0.0518671
v 0.93201607 -1.71414089 0.05186712
v 0.8821491 -1.75869989 0.05186713
v 0.8658691 -1.81995285 0.05186713
v 0.89505309 -1.56185997 0.0518671
v 0.71390307 -1.85143197 0.05186713
v 0.78835809 -1.50099587 0.05186709
v 0.6542601 -1.58485997 0.0518671
v 0.64170611 -1.53313994 0.0518671
v 0.65230405 -1.80713189 0.05186713
v 0.57881409 -1.78275192 0.05186713
v 0.5394721 -1.62067091 0.0518671
v 0.58527809 -1.53099692 0.0518671
v 0.40896809 -1.53919995 0.0518671
v 0.44798309 -1.46045589 0.05186708
v -0.0887709 -1.01619291 0.05045104
v -0.2967079 -1.15715694 0.05045105
v -0.1232509 -0.93801886 0.05045102
v -0.37567693 -1.12597895 0.05045105
v -0.22192892 -1.37060893 0.05045107
v -0.2712599 -1.4604789 0.05045108
v -0.10890791 -1.46432388 0.05045108
v -0.1235559 -1.37293792 0.05045107
v 0.02796909 -1.2365309 0.05045105
v -0.03077991 -1.20742285 0.05045105
v -0.2712599 -1.4604789 -0.05045092
v -0.10890791 -1.46432388 -0.05045092
v -0.22192892 -1.37060893 -0.05045092
v -0.37567693 -1.12597895 -0.05045095
v -0.1235559 -1.37293792 -0.05045092
v 0.02796909 -1.2365309 -0.05045095
v -0.03077991 -1.20742285 -0.05045095
v -0.2967079 -1.15715694 -0.05045095
v -0.1232509 -0.93801886 -0.05045098
v -0.0887709 -1.01619291 -0.05045097
v -0.37186992 -0.78175086 0.049122
v -0.30888292 -1.0754509 0.04912204
v -0.45396888 -0.77962989 0.049122
v -0.24441892 -1.02456689 0.04912204
v -0.37186992 -0.78175086 -0.049121
v -0.30888292 -1.0754509 -0.04912096
v -0.24441892 -1.02456689 -0.04912097
v -0.45396888 -0.77962989 -0.049121
v 0.43920609 -1.42923689 0.02579808
v 0.60431206 -1.51731789 0.0257981
v 0.58527809 -1.53099692 0.0518671
v 0.44798309 -1.46045589 0.05186708
v 0.58527809 -1.53099692 -0.0518669
v 0.43920609 -1.42923689 -0.02579792
v 0.44798309 -1.46045589 -0.05186692
v 0.60431206 -1.51731789 -0.02579791
v -0.0964869 -1.48852992 0.03074908
v 0.02796909 -1.2365309 0.05045105
v 0.06320309 -1.22730994 0.03074905
v -0.10890791 -1.46432388 0.05045108
v 0.02796909 -1.2365309 -0.05045095
v -0.10890791 -1.46432388 -0.05045092
v -0.0964869 -1.48852992 -0.03074891
v 0.06320309 -1.22730994 -0.03074895
v 0.43920609 -1.42923689 -0.02579792
v 0.60431206 -1.51731789 -0.02579791
v 0.60431206 -1.51731789 0.0257981
v 0.43920609 -1.42923689 0.02579808
v 0.25973707 -1.59335589 0.0516181
v 0.25973707 -1.59335589 -0.0516179
v 0.24669808 -1.53963697 -0.0516179
v 0.24669808 -1.53963697 0.05161809
v -0.1235559 -1.37293792 0.05045107
v -0.20659292 -1.34705985 0.03074907
v -0.13612491 -1.3487289 0.03074907
v -0.22192892 -1.37060893 0.05045107
v -0.1235559 -1.37293792 -0.05045092
v -0.20659292 -1.34705985 -0.03074893
v -0.22192892 -1.37060893 -0.05045092
v -0.13612491 -1.3487289 -0.03074893
v 0.06320309 -1.22730994 -0.03074895
v -0.0964869 -1.48852992 -0.03074891
v -0.0964869 -1.48852992 0.03074908
v 0.06320309 -1.22730994 0.03074905
v -0.20659292 -1.34705985 -0.03074893
v -0.13612491 -1.3487289 -0.03074893
v -0.20659292 -1.34705985 0.03074907
v -0.13612491 -1.3487289 0.03074907
v 0.37602109 -1.32740891 0.05161807
v 0.37602109 -1.32740891 -0.05161794
v 0.42973909 -1.31436992 -0.05161794
v 0.42973909 -1.31436992 0.05161807
v -0.23041692 -1.01351297 0.02912403
v -0.37186992 -0.78175086 0.049122
v -0.35403693 -0.78221184 0.029124
v -0.24441892 -1.02456689 0.04912204
v -0.23041692 -1.01351297 -0.02912397
v -0.37186992 -0.78175086 -0.049121
v -0.24441892 -1.02456689 -0.04912097
v -0.35403693 -0.78221184 -0.029124
v -0.0887709 -1.01619291 -0.05045097
v -0.2967079 -1.15715694 -0.05045095
v -0.26691192 -1.16432488 -0.03074895
v -0.0593539 -1.02365386 -0.03074897
v -0.26691192 -1.16432488 0.03074905
v -0.0887709 -1.01619291 0.05045104
v -0.0593539 -1.02365386 0.03074903
v -0.2967079 -1.15715694 0.05045105
v 0.57881409 -1.78275192 -0.05186688
v 0.5394721 -1.62067091 -0.0518669
v 0.52030408 -1.63379788 -0.0257979
v 0.5600611 -1.79758894 -0.02579787
v 0.52030408 -1.63379788 0.0257981
v 0.57881409 -1.78275192 0.05186713
v 0.5600611 -1.79758894 0.02579813
v 0.5394721 -1.62067091 0.0518671
v -0.2967079 -1.15715694 0.05045105
v -0.20659292 -1.34705985 0.03074907
v -0.22192892 -1.37060893 0.05045107
v -0.26691192 -1.16432488 0.03074905
v -0.2967079 -1.15715694 -0.05045095
v -0.22192892 -1.37060893 -0.05045092
v -0.20659292 -1.34705985 -0.03074893
v -0.26691192 -1.16432488 -0.03074895
v -0.35403693 -0.78221184 -0.029124
v -0.23041692 -1.01351297 -0.02912397
v -0.23041692 -1.01351297 0.02912403
v -0.35403693 -0.78221184 0.029124
v 0.37602109 -1.32740891 0.05161807
v 0.24669808 -1.53963697 0.05161809
v 0.37602109 -1.32740891 -0.05161794
v 0.24669808 -1.53963697 -0.0516179
v 0.79162312 -1.47784889 0.02579809
v 0.64170611 -1.53313994 0.0518671
v 0.61547005 -1.51715291 0.0257981
v 0.78835809 -1.50099587 0.05186709
v 0.64170611 -1.53313994 -0.0518669
v 0.78835809 -1.50099587 -0.05186691
v 0.79162312 -1.47784889 -0.02579791
v 0.61547005 -1.51715291 -0.02579791
v 0.52030408 -1.63379788 0.0257981
v 0.5600611 -1.79758894 0.02579813
v 0.52030408 -1.63379788 -0.0257979
v 0.5600611 -1.79758894 -0.02579787
v -0.26691192 -1.16432488 0.03074905
v -0.0593539 -1.02365386 0.03074903
v -0.26691192 -1.16432488 -0.03074895
v -0.0593539 -1.02365386 -0.03074897
v 0.61547005 -1.51715291 0.0257981
v 0.6542601 -1.58485997 0.0518671
v 0.63827312 -1.61109483 0.0257981
v 0.64170611 -1.53313994 0.0518671
v 0.61547005 -1.51715291 -0.02579791
v 0.63827312 -1.61109483 -0.0257979
v 0.6542601 -1.58485997 -0.0518669
v 0.64170611 -1.53313994 -0.0518669
v -0.20659292 -1.34705985 0.03074907
v -0.26691192 -1.16432488 0.03074905
v -0.20659292 -1.34705985 -0.03074893
v -0.26691192 -1.16432488 -0.03074895
v 0.79162312 -1.47784889 0.02579809
v 0.61547005 -1.51715291 0.0257981
v 0.79162312 -1.47784889 -0.02579791
v 0.61547005 -1.51715291 -0.02579791
v 0.61547005 -1.51715291 -0.02579791
v 0.63827312 -1.61109483 0.0257981
v 0.63827312 -1.61109483 -0.0257979
v 0.61547005 -1.51715291 0.0257981
v 0.8821491 -1.75869989 -0.05186688
v 0.83041209 -1.54555488 -0.0518669
v 0.81442606 -1.57178986 -0.0257979
v 0.85575509 -1.74205983 -0.02579788
v 0.81442606 -1.57178986 0.0257981
v 0.8821491 -1.75869989 0.05186713
v 0.85575509 -1.74205983 0.02579812
v 0.83041209 -1.54555488 0.0518671
v 0.65230405 -1.80713189 0.05186713
v 0.85575509 -1.74205983 0.02579812
v 0.8821491 -1.75869989 0.05186713
v 0.66844511 -1.78152883 0.02579813
v 0.65230405 -1.80713189 -0.05186687
v 0.8821491 -1.75869989 -0.05186688
v 0.85575509 -1.74205983 -0.02579788
v 0.66844511 -1.78152883 -0.02579788
v -0.29961291 -0.48982689 0.04514797
v -0.49261892 -0.48982689 0.04514797
v -0.29961291 -0.48982689 -0.04514803
v -0.49261892 -0.48982689 -0.04514803
v -0.20310891 -0.65697485 -0.04514801
v -0.58912194 -0.65697485 0.04514799
v -0.20310891 -0.65697485 0.04514799
v -0.58912194 -0.65697485 -0.04514801
v -0.2996119 -0.82412285 -0.04514799
v -0.49261892 -0.82412285 0.04514801
v -0.2996119 -0.82412285 0.04514801
v -0.49261892 -0.82412285 -0.04514799
v 0.81442606 -1.57178986 -0.0257979
v 0.85575509 -1.74205983 0.02579812
v 0.85575509 -1.74205983 -0.02579788
v 0.81442606 -1.57178986 0.0257981
v 0.85575509 -1.74205983 -0.02579788
v 0.66844511 -1.78152883 0.02579813
v 0.66844511 -1.78152883 -0.02579788
v 0.85575509 -1.74205983 0.02579812
vn -0.84795 0.53008 0
vn -0.84795 0.53008 0
vn -0.84795 0.53008 0
vn -0.84795 0.53008 0
vn -0.65141 0.40722 0.64018
vn -0.65142 0.40722 0.64018
vn -0.65142 0.40723 0.64017
vn -0.65141 0.40722 0.64018
vn -0.65142 0.40722 -0.64018
vn -0.65141 0.40722 -0.64018
vn -0.65141 0.40722 -0.64018
vn -0.65142 0.40723 -0.64017
vn -0.20285 0.97921 0
vn -0.20285 0.97921 0
vn -0.20285 0.97921 0
vn -0.20285 0.97921 0
vn -0.97178 -0.23588 0
vn -0.97178 -0.23588 0
vn -0.97178 -0.23588 0
vn -0.97178 -0.23588 0
vn -0.15583 0.75225 0.64018
vn -0.15582 0.75224 0.6402
vn -0.15582 0.75224 0.6402
vn -0.15583 0.75225 0.64018
vn -0.15582 0.75224 -0.6402
vn -0.15583 0.75225 -0.64019
vn -0.15583 0.75225 -0.64018
vn -0.15582 0.75224 -0.6402
vn -0.74654 -0.18121 -0.64019
vn -0.74655 -0.18121 -0.64018
vn -0.74655 -0.18121 -0.64018
vn -0.74654 -0.18121 -0.64019
vn -0.74655 -0.18121 0.64018
vn -0.74654 -0.18121 0.64019
vn -0.74654 -0.18121 0.64019
vn -0.74655 -0.18121 0.64018
vn 0.95279 0.30362 0
vn 0.95279 0.30362 0
vn 0.95279 0.30362 0
vn 0.95279 0.30362 0
vn -0.21777 0.976 0
vn -0.21777 0.976 0
vn -0.21777 0.976 0
vn -0.21777 0.976 0
vn -0.23588 0.97178 0
vn -0.23588 0.97178 0
vn -0.23588 0.97178 0
vn -0.23588 0.97178 0
vn -0.85395 0.52036 0
vn -0.85395 0.52036 0
vn -0.85395 0.52036 0
vn -0.85395 0.52036 0
vn 0.60316 -0.79762 0
vn 0.60316 -0.79762 0
vn 0.60316 -0.79762 0
vn 0.60316 -0.79762 0
vn -0.97178 -0.23588 0
vn -0.97178 -0.23588 0
vn -0.97178 -0.23588 0
vn -0.97178 -0.23588 0
vn -0.16604 0.74414 -0.64705
vn -0.16604 0.74415 -0.64705
vn -0.16604 0.74415 -0.64705
vn -0.16604 0.74414 -0.64706
vn -0.16604 0.74415 0.64705
vn -0.16604 0.74414 0.64705
vn -0.16604 0.74414 0.64706
vn -0.16604 0.74415 0.64705
vn -0.97178 -0.23588 0
vn -0.97178 -0.23588 0
vn -0.97178 -0.23588 0
vn -0.97178 -0.23588 0
vn 0.89992 0.43605 0
vn 0.89992 0.43605 0
vn 0.89992 0.43605 0
vn 0.89992 0.43605 0
vn 0.57876 0.17925 -0.79555
vn 0.63448 0.2038 -0.74559
vn 0.63703 0.20493 -0.7431
vn 0.57391 0.17714 -0.79953
vn 0.57876 0.17925 0.79555
vn 0.63703 0.20493 0.7431
vn 0.63448 0.2038 0.74559
vn 0.57391 0.17714 0.79953
vn -0.74653 -0.18121 -0.6402
vn -0.74655 -0.18121 -0.64017
vn -0.74655 -0.18121 -0.64017
vn -0.74653 -0.18121 -0.6402
vn -0.74655 -0.18121 0.64017
vn -0.74653 -0.18121 0.6402
vn -0.74653 -0.18121 0.6402
vn -0.74655 -0.18121 0.64017
vn 0.4532 0.89141 0
vn 0.4532 0.89141 0
vn 0.4532 0.89141 0
vn 0.4532 0.89141 0
vn 0.39624 -0.53488 0.74626
vn 0.36229 -0.47607 0.80131
vn 0.36073 -0.47339 0.8036
vn 0.3997 -0.54094 0.74001
vn 0.39624 -0.53488 -0.74626
vn 0.36229 -0.47607 -0.80131
vn 0.3997 -0.54094 -0.74001
vn 0.36073 -0.47339 -0.8036
vn 0.66796 0.32203 0.67092
vn 0.71707 0.35379 0.60054
vn 0.71407 0.35182 0.60524
vn 0.6656 0.32053 0.67397
vn 0.71411 0.35185 -0.60519
vn 0.668 0.32206 -0.67086
vn 0.66561 0.32054 -0.67395
vn 0.71709 0.35379 -0.60052
vn 0.02368 0.99972 0
vn 0.02368 0.99972 0
vn 0.02368 0.99972 0
vn 0.02368 0.99972 0
vn 0.34815 0.68479 0.64019
vn 0.34815 0.68479 0.6402
vn 0.34815 0.68479 0.6402
vn 0.34816 0.68479 0.64019
vn 0.34815 0.68479 -0.6402
vn 0.34816 0.68479 -0.64019
vn 0.34815 0.68479 -0.64019
vn 0.34815 0.68479 -0.6402
vn 0.52035 0.85395 0
vn 0.52035 0.85395 0
vn 0.52035 0.85395 0
vn 0.52035 0.85395 0
vn 0.92656 0.37616 0
vn 0.92655 0.37616 0
vn 0.92655 0.37616 0
vn 0.92656 0.37616 0
vn 0.01506 0.63582 -0.77169
vn 0.01506 0.63582 -0.77169
vn 0.01506 0.63582 -0.77169
vn 0.01506 0.63582 -0.77169
vn 0.01506 0.63582 0.77169
vn 0.01506 0.63582 0.77169
vn 0.01506 0.63582 0.77169
vn 0.01506 0.63582 0.77169
vn 0.87078 -0.49167 0
vn 0.87078 -0.49167 0
vn 0.87078 -0.49167 0
vn 0.87078 -0.49167 0
vn 0.56797 -0.31759 0.75931
vn 0.57948 -0.32802 0.74606
vn 0.58054 -0.32898 0.74482
vn 0.56685 -0.31657 0.76057
vn 0.57945 -0.328 -0.74609
vn 0.56685 -0.31657 -0.76057
vn 0.56797 -0.31759 -0.75931
vn 0.58054 -0.32898 -0.74481
vn 0.57887 0.81542 0
vn 0.57887 0.81542 0
vn 0.57887 0.81542 0
vn 0.57887 0.81542 0
vn 0.53226 0.84658 0
vn 0.53226 0.84658 0
vn 0.53226 0.84658 0
vn 0.53226 0.84658 0
vn -0.49549 -0.86861 0
vn -0.49549 -0.86861 0
vn -0.49549 -0.86861 0
vn -0.49549 -0.86861 0
vn 0.40868 0.65589 -0.63466
vn 0.41861 0.66356 -0.62004
vn 0.41734 0.66258 -0.62194
vn 0.40727 0.6548 -0.63669
vn 0.41734 0.66258 0.62194
vn 0.40868 0.65589 0.63466
vn 0.40727 0.6548 0.63669
vn 0.41861 0.66356 0.62004
vn -0.38065 -0.66729 0.64018
vn -0.38066 -0.66729 0.64017
vn -0.38066 -0.66729 0.64017
vn -0.38065 -0.66729 0.64018
vn -0.38066 -0.66729 -0.64017
vn -0.38065 -0.66729 -0.64018
vn -0.38065 -0.66729 -0.64018
vn -0.38066 -0.66729 -0.64017
vn 0.53425 0.20496 0.82011
vn 0.55849 0.42837 0.71034
vn 0.52591 0.2008 0.82649
vn 0.55349 0.44102 0.7065
vn 0.3757 0.53566 0.75625
vn 0.37377 0.53345 0.75877
vn 0.53425 0.20496 -0.82011
vn 0.55851 0.42839 -0.71031
vn 0.55349 0.44102 -0.7065
vn 0.52592 0.20079 -0.82649
vn 0.3757 0.53566 -0.75625
vn 0.37377 0.53345 -0.75877
vn -0.52036 -0.85395 0
vn -0.52036 -0.85395 0
vn -0.52036 -0.85395 0
vn -0.52036 -0.85395 0
vn 0 -0 -1
vn 0 -0 -1
vn 0 -0 -1
vn 0 -0 -1
vn 0 -0 -1
vn 0 -0 -1
vn 0 -0 -1
vn 0 -0 -1
vn 0 -0 -1
vn 0 -0 -1
vn 0 -0 -1
vn 0 -0 -1
vn -0 0 1
vn 0 0 1
vn -0 0 1
vn -0 0 1
vn -0 0 1
vn -0 0 1
vn 0 0 1
vn 0 0 1
vn 0 0 1
vn 0 0 1
vn 0 0 1
vn 0 0 1
vn -0.56877 -0 0.8225
vn -0.28438 -0.49257 0.8225
vn -0.28438 -0.49257 0.8225
vn -0.56877 -0 0.82249
vn 0.28438 -0.49256 0.8225
vn -0.28438 0.49256 0.8225
vn 0.28438 -0.49256 0.8225
vn -0.28438 0.49256 0.8225
vn 0.56877 -0 0.8225
vn 0.28438 0.49257 0.8225
vn 0.56877 -0 0.8225
vn 0.28438 0.49257 0.8225
vn 0.56877 -0 -0.8225
vn 0.28438 0.49256 -0.8225
vn 0.28438 0.49256 -0.8225
vn -0.28438 0.49257 -0.8225
vn 0.56877 -0 -0.8225
vn -0.28438 0.49257 -0.8225
vn 0.28438 -0.49257 -0.8225
vn -0.56877 -0 -0.8225
vn 0.28438 -0.49257 -0.8225
vn -0.56877 -0 -0.8225
vn -0.28438 -0.49256 -0.8225
vn -0.28438 -0.49256 -0.8225
vn -0.6184 -0.26041 -0.74147
vn -0.57894 -0.4078 -0.70607
vn -0.5708 -0.42282 -0.70385
vn -0.61559 -0.25885 -0.74434
vn -0.41782 -0.48476 -0.76839
vn -0.41486 -0.48209 -0.77167
vn -0.6184 -0.26041 0.74147
vn -0.57894 -0.40779 0.70607
vn -0.61559 -0.25885 0.74434
vn -0.5708 -0.42282 0.70385
vn -0.41782 -0.48476 0.76839
vn -0.41486 -0.48209 0.77167
vn -0.92094 -0.3897 0
vn -0.80894 -0.58789 0
vn -0.80894 -0.58789 0
vn -0.92094 -0.3897 0
vn -0.65503 -0.7556 0
vn -0.65503 -0.7556 0
vn 0 -0 -1
vn -0 -0 -1
vn -0 -0 -1
vn -0 -0 -1
vn 0 0 -1
vn -0 -0 -1
vn -0 0 -1
vn 0 0 -1
vn 0 0 1
vn 0 0 1
vn 0 0 1
vn 0 0 1
vn 0 0 1
vn 0 0 1
vn 0 0 1
vn -0 -0 1
vn 0 -0 -1
vn 0 -0 -1
vn -0 -0 -1
vn 0 -0 -1
vn -0 -0 -1
vn -0 -0 -1
vn 0 0 1
vn 0 0 1
vn 0 0 1
vn 0 0 1
vn 0 0 1
vn 0 0 1
vn 0.37669 -0.65247 0.65756
vn 0.75339 0 0.65757
vn 0.75339 0 0.65757
vn 0.37668 0.65247 0.65756
vn 0.3767 -0.65246 0.65756
vn 0.3767 0.65246 0.65756
vn -0.3767 -0.65247 0.65756
vn -0.37669 0.65247 0.65756
vn -0.37669 -0.65248 0.65756
vn -0.3767 0.65246 0.65756
vn -0.7534 -0 0.65757
vn -0.7534 0 0.65757
vn 0.75339 -0 -0.65757
vn 0.3767 -0.65246 -0.65756
vn 0.37669 -0.65247 -0.65756
vn -0.3767 -0.65247 -0.65756
vn 0.75339 -0 -0.65757
vn -0.37669 -0.65248 -0.65756
vn 0.37668 0.65247 -0.65756
vn -0.7534 -0 -0.65757
vn 0.3767 0.65246 -0.65756
vn -0.75339 -0 -0.65757
vn -0.37669 0.65247 -0.65756
vn -0.3767 0.65246 -0.65756
vn 0.21429 -0.33909 0.91602
vn 0.3996 -0.03499 0.91602
vn 0.41482 -0.12164 0.90174
vn 0.31289 0.29827 0.90174
vn 0.29827 -0.31289 0.90174
vn 0.33909 0.21429 0.91602
vn -0.03499 -0.39961 0.91602
vn 0.12164 0.41483 0.90173
vn -0.12163 -0.41483 0.90173
vn 0.03499 0.39961 0.91602
vn -0.3391 -0.2143 0.91602
vn -0.29828 0.3129 0.90173
vn -0.31289 -0.29827 0.90174
vn -0.2143 0.3391 0.91602
vn -0.41483 0.12164 0.90173
vn -0.39961 0.035 0.91602
vn -0.3391 -0.2143 -0.91602
vn -0.12163 -0.41483 -0.90173
vn -0.03499 -0.39961 -0.91602
vn 0.29827 -0.31289 -0.90174
vn -0.31289 -0.29827 -0.90174
vn 0.21429 -0.33909 -0.91602
vn -0.41482 0.12164 -0.90173
vn 0.41482 -0.12164 -0.90174
vn -0.39961 0.035 -0.91602
vn 0.3996 -0.03499 -0.91602
vn -0.2143 0.3391 -0.91602
vn 0.31289 0.29827 -0.90174
vn -0.29828 0.3129 -0.90173
vn 0.33909 0.21429 -0.91602
vn 0.03499 0.39961 -0.91602
vn 0.12164 0.41483 -0.90173
vn 0 -0 -1
vn 0 -0 -1
vn 0 -0 -1
vn 0 -0 -1
vn -0 -0 -1
vn -0 -0 -1
vn -0 0 1
vn -0 0 1
vn -0 0 1
vn -0 0 1
vn -0 0 1
vn 0 0 1
vn 0 0 1
vn -0 -0 1
vn 0 0 1
vn -0 0 1
vn -0 0 1
vn -0 0 1
vn 0 0 1
vn -0 0 1
vn -0 0 1
vn -0 0 1
vn 0 0 1
vn 0 0 1
vn -0 0 1
vn 0 0 1
vn 0 0 1
vn -0 -0 -1
vn 0 -0 -1
vn -0 0 -1
vn -0 0 -1
vn -0 -0 -1
vn 0 0 -1
vn 0 -0 -1
vn 0 -0 -1
vn 0 -0 -1
vn -0 -0 -1
vn -0 -0 -1
vn 0 -0 -1
vn 0 -0 -1
vn 0 -0 -1
vn 0 -0 -1
vn 0 -0 -1
vn -0 -0 -1
vn 0 -0 -1
vn -0 -0 -1
vn -0 -0 -1
vn -0 -0 -1
vn -0 -0 -1
vn -0 -0 -1
vn -0 -0 -1
vn 0 -0 -1
vn -0 0 1
vn 0 0 1
vn -0 0 1
vn 0 0 1
vn 0 0 1
vn 0 0 1
vn 0 0 1
vn 0 0 1
vn -0 0 1
vn -0 0 1
vn 0 -0 -1
vn 0 -0 -1
vn 0 -0 -1
vn 0 -0 -1
vn 0 0 1
vn 0 0 1
vn 0 0 1
vn -0 0 1
vn -0.33314 -0.65254 -0.6806
vn -0.37921 -0.69949 -0.60574
vn -0.37339 -0.69373 -0.61588
vn -0.32198 -0.64071 -0.69701
vn -0.37339 -0.69373 0.61588
vn -0.33314 -0.65253 0.6806
vn -0.32198 -0.64071 0.69701
vn -0.37921 -0.69949 0.60574
vn -0.56676 0.33862 -0.75108
vn -0.51351 0.31597 -0.79779
vn -0.51047 0.31467 -0.80025
vn -0.57275 0.34114 -0.74537
vn -0.51351 0.31597 0.79779
vn -0.57275 0.34114 0.74537
vn -0.56676 0.33862 0.75108
vn -0.51047 0.31467 0.80025
vn -0.47069 -0.8823 0
vn -0.47069 -0.8823 0
vn -0.47069 -0.8823 0
vn -0.47069 -0.8823 0
vn 0.97178 0.23588 0
vn 0.97178 0.23588 0
vn 0.97178 0.23588 0
vn 0.97178 0.23588 0
vn -0.01506 -0.63583 -0.77168
vn -0.01505 -0.63582 -0.77169
vn -0.01506 -0.63583 -0.77168
vn -0.01505 -0.63582 -0.77169
vn -0.01506 -0.63583 0.77168
vn -0.01505 -0.63582 0.77169
vn -0.01505 -0.63582 0.77169
vn -0.01506 -0.63583 0.77168
vn -0.8532 0.52158 0
vn -0.8532 0.52158 0
vn -0.8532 0.52158 0
vn -0.8532 0.52158 0
vn -0.02368 -0.99972 0
vn -0.02368 -0.99972 0
vn -0.02368 -0.99972 0
vn -0.02368 -0.99972 0
vn 0.23588 -0.97178 0
vn 0.23588 -0.97178 0
vn 0.23588 -0.97178 0
vn 0.23588 -0.97178 0
vn -0.6538 -0.34071 -0.67561
vn -0.70763 -0.38049 -0.59539
vn -0.71223 -0.38396 -0.58763
vn -0.65006 -0.338 -0.68057
vn -0.65376 -0.34069 0.67567
vn -0.70762 -0.38048 0.59541
vn -0.65004 -0.33799 0.68059
vn -0.71219 -0.38394 0.58769
vn -0.36795 0.54289 0.75491
vn -0.36846 0.54349 0.75422
vn -0.36823 0.54318 0.75456
vn -0.36764 0.54264 0.75524
vn -0.36823 0.54318 -0.75456
vn -0.36795 0.54289 -0.75491
vn -0.36764 0.54264 -0.75524
vn -0.3684 0.54341 -0.75432
vn 0.74655 0.18121 0.64018
vn 0.74655 0.18121 0.64017
vn 0.74655 0.18121 0.64017
vn 0.74655 0.18121 0.64018
vn 0.74655 0.18121 -0.64017
vn 0.74655 0.18121 -0.64018
vn 0.74655 0.18121 -0.64018
vn 0.74655 0.18121 -0.64017
vn -0.55844 -0.18097 -0.80957
vn -0.64248 -0.22898 -0.73129
vn -0.64961 -0.23316 -0.72363
vn -0.54426 -0.17308 -0.82086
vn -0.55844 -0.18097 0.80957
vn -0.64961 -0.23316 0.72363
vn -0.64248 -0.22898 0.73129
vn -0.54426 -0.17308 0.82086
vn -0.88194 -0.47136 0
vn -0.88194 -0.47136 0
vn -0.88194 -0.47136 0
vn -0.88194 -0.47136 0
vn 0.85395 -0.52036 0
vn 0.85395 -0.52036 0
vn 0.85395 -0.52036 0
vn 0.85395 -0.52036 0
vn 0.16286 -0.74595 -0.64578
vn 0.1698 -0.75752 -0.63034
vn 0.17077 -0.7591 -0.62818
vn 0.16138 -0.74347 -0.64901
vn 0.16982 -0.75754 0.63031
vn 0.16138 -0.74347 0.64901
vn 0.16286 -0.74596 0.64578
vn 0.17075 -0.75907 0.62821
vn 0.97178 0.23588 0
vn 0.97178 0.23588 0
vn 0.97178 0.23588 0
vn 0.97178 0.23588 0
vn -0.56103 0.82779 0
vn -0.56103 0.82779 0
vn -0.56103 0.82779 0
vn -0.56103 0.82779 0
vn 0.74654 0.18121 -0.64019
vn 0.74654 0.18121 -0.64019
vn 0.74654 0.18121 -0.64019
vn 0.74654 0.18121 -0.64019
vn 0.74654 0.18121 0.64019
vn 0.74654 0.18121 0.64019
vn 0.74654 0.18121 0.64019
vn 0.74654 0.18121 0.64019
vn -0.9496 -0.31345 0
vn -0.9496 -0.31345 0
vn -0.9496 -0.31345 0
vn -0.9496 -0.31345 0
vn 0.21777 -0.976 0
vn 0.21777 -0.976 0
vn 0.21777 -0.976 0
vn 0.21777 -0.976 0
vn 0.97178 0.23589 0
vn 0.97178 0.23589 0
vn 0.97178 0.23589 0
vn 0.97178 0.23589 0
vn 0.74655 0.18121 0.64018
vn 0.74656 0.18121 0.64017
vn 0.74655 0.18121 0.64017
vn 0.74654 0.18121 0.64018
vn 0.74655 0.18121 -0.64017
vn 0.74655 0.18121 -0.64018
vn 0.74654 0.18121 -0.64019
vn 0.74656 0.18121 -0.64017
vn 0.1584 -0.7517 -0.6402
vn 0.1584 -0.75171 -0.64019
vn 0.1584 -0.75171 -0.64019
vn 0.1584 -0.7517 -0.6402
vn 0.1584 -0.75171 0.64019
vn 0.1584 -0.75171 0.64019
vn 0.1584 -0.75171 0.64019
vn 0.1584 -0.75171 0.64019
vn -0.49999 -0.86603 0
vn 0.50001 -0.86602 0
vn -0.50001 -0.86602 0
vn 0.49999 -0.86603 0
vn -1 1E-05 0
vn 1 1E-05 0
vn -1 -1E-05 0
vn 1 -1E-05 0
vn -0.49999 0.86603 0
vn 0.49999 0.86603 0
vn -0.50001 0.86602 0
vn 0.50001 0.86602 0
vn 0.97178 0.23588 0
vn 0.97178 0.23588 0
vn 0.97178 0.23588 0
vn 0.97178 0.23588 0
vn 0.20619 -0.97851 0
vn 0.20619 -0.97851 0
vn 0.20619 -0.97851 0
vn 0.20619 -0.97851 0
vt 0 0
usemtl mat1
f 573/2/573 574/2/574 575/2/575
f 574/2/574 573/2/573 576/2/576
f 577/2/577 578/2/578 579/2/579
f 578/2/578 577/2/577 580/2/580
f 581/2/581 582/2/582 583/2/583
f 581/2/581 583/2/583 584/2/584
f 585/2/585 586/2/586 587/2/587
f 588/2/588 587/2/587 586/2/586
f 589/2/589 590/2/590 591/2/591
f 592/2/592 591/2/591 590/2/590
f 593/2/593 594/2/594 595/2/595
f 593/2/593 595/2/595 596/2/596
f 597/2/597 598/2/598 599/2/599
f 598/2/598 597/2/597 600/2/600
f 601/2/601 602/2/602 603/2/603
f 602/2/602 601/2/601 604/2/604
f 605/2/605 606/2/606 607/2/607
f 605/2/605 607/2/607 608/2/608
f 609/2/609 610/2/610 611/2/611
f 610/2/610 609/2/609 612/2/612
f 613/2/613 614/2/614 615/2/615
f 614/2/614 613/2/613 616/2/616
f 617/2/617 618/2/618 619/2/619
f 619/2/619 620/2/620 617/2/617
f 621/2/621 622/2/622 623/2/623
f 622/2/622 621/2/621 624/2/624
f 625/2/625 626/2/626 627/2/627
f 626/2/626 625/2/625 628/2/628
f 629/2/629 630/2/630 631/2/631
f 630/2/630 629/2/629 632/2/632
f 633/2/633 634/2/634 635/2/635
f 633/2/633 635/2/635 636/2/636
f 637/2/637 638/2/638 639/2/639
f 638/2/638 637/2/637 640/2/640
f 641/2/641 642/2/642 643/2/643
f 642/2/642 641/2/641 644/2/644
f 645/2/645 646/2/646 647/2/647
f 646/2/646 645/2/645 648/2/648
f 649/2/649 650/2/650 651/2/651
f 650/2/650 649/2/649 652/2/652
f 653/2/653 654/2/654 655/2/655
f 653/2/653 655/2/655 656/2/656
f 657/2/657 658/2/658 659/2/659
f 658/2/658 657/2/657 660/2/660
f 661/2/661 662/2/662 663/2/663
f 663/2/663 664/2/664 661/2/661
f 665/2/665 666/2/666 667/2/667
f 666/2/666 665/2/665 668/2/668
f 669/2/669 670/2/670 671/2/671
f 670/2/670 669/2/669 672/2/672
f 673/2/673 674/2/674 675/2/675
f 673/2/673 676/2/676 674/2/674
f 677/2/677 678/2/678 679/2/679
f 679/2/679 680/2/680 677/2/677
f 681/2/681 682/2/682 683/2/683
f 682/2/682 681/2/681 684/2/684
f 685/2/685 686/2/686 687/2/687
f 686/2/686 685/2/685 688/2/688
f 689/2/689 690/2/690 691/2/691
f 690/2/690 689/2/689 692/2/692
f 693/2/693 694/2/694 695/2/695
f 693/2/693 695/2/695 696/2/696
f 697/2/697 698/2/698 699/2/699
f 699/2/699 698/2/698 700/2/700
f 701/2/701 702/2/702 703/2/703
f 701/2/701 703/2/703 704/2/704
f 705/2/705 706/2/706 707/2/707
f 705/2/705 707/2/707 708/2/708
f 709/2/709 710/2/710 711/2/711
f 710/2/710 709/2/709 712/2/712
f 713/2/713 714/2/714 715/2/715
f 714/2/714 713/2/713 716/2/716
f 717/2/717 718/2/718 719/2/719
f 718/2/718 717/2/717 720/2/720
f 721/2/721 722/2/722 723/2/723
f 721/2/721 723/2/723 724/2/724
f 725/2/725 726/2/726 727/2/727
f 728/2/728 727/2/727 726/2/726
f 729/2/729 730/2/730 731/2/731
f 729/2/729 731/2/731 732/2/732
f 733/2/733 734/2/734 735/2/735
f 736/2/736 735/2/735 734/2/734
f 737/2/737 738/2/738 739/2/739
f 739/2/739 740/2/740 737/2/737
f 741/2/741 742/2/742 743/2/743
f 742/2/742 741/2/741 744/2/744
f 745/2/745 746/2/746 747/2/747
f 746/2/746 745/2/745 748/2/748
f 749/2/749 750/2/750 751/2/751
f 749/2/749 751/2/751 752/2/752
f 753/2/753 754/2/754 755/2/755
f 754/2/754 753/2/753 756/2/756
f 757/2/757 754/2/754 756/2/756
f 754/2/754 757/2/757 758/2/758
f 759/2/759 760/2/760 761/2/761
f 760/2/760 759/2/759 762/2/762
f 763/2/763 761/2/761 760/2/760
f 763/2/763 760/2/760 764/2/764
f 765/2/765 766/2/766 767/2/767
f 765/2/765 767/2/767 768/2/768
f 769/2/769 770/2/770 771/2/771
f 769/2/769 771/2/771 772/2/772
f 770/2/770 773/2/773 771/2/771
f 774/2/774 769/2/769 772/2/772
f 775/2/775 773/2/773 770/2/770
f 769/2/769 774/2/774 776/2/776
f 777/2/777 773/2/773 775/2/775
f 778/2/778 776/2/776 774/2/774
f 773/2/773 777/2/777 779/2/779
f 778/2/778 774/2/774 780/2/780
f 777/2/777 780/2/780 779/2/779
f 780/2/780 777/2/777 778/2/778
f 781/2/781 782/2/782 783/2/783
f 784/2/784 783/2/783 782/2/782
f 781/2/781 783/2/783 785/2/785
f 783/2/783 784/2/784 786/2/786
f 781/2/781 785/2/785 787/2/787
f 784/2/784 788/2/788 786/2/786
f 787/2/787 785/2/785 789/2/789
f 784/2/784 790/2/790 788/2/788
f 791/2/791 787/2/787 789/2/789
f 790/2/790 791/2/791 788/2/788
f 787/2/787 791/2/791 792/2/792
f 792/2/792 791/2/791 790/2/790
f 793/2/793 794/2/794 795/2/795
f 793/2/793 795/2/795 796/2/796
f 794/2/794 797/2/797 795/2/795
f 798/2/798 793/2/793 796/2/796
f 797/2/797 794/2/794 799/2/799
f 793/2/793 798/2/798 800/2/800
f 801/2/801 797/2/797 799/2/799
f 802/2/802 800/2/800 798/2/798
f 797/2/797 801/2/801 803/2/803
f 802/2/802 798/2/798 804/2/804
f 801/2/801 804/2/804 803/2/803
f 804/2/804 801/2/801 802/2/802
f 805/2/805 806/2/806 807/2/807
f 806/2/806 808/2/808 807/2/807
f 806/2/806 805/2/805 809/2/809
f 808/2/808 806/2/806 810/2/810
f 805/2/805 811/2/811 809/2/809
f 812/2/812 808/2/808 810/2/810
f 811/2/811 805/2/805 813/2/813
f 812/2/812 810/2/810 814/2/814
f 813/2/813 815/2/815 811/2/811
f 815/2/815 812/2/812 814/2/814
f 813/2/813 816/2/816 815/2/815
f 812/2/812 815/2/815 816/2/816
f 817/2/817 818/2/818 819/2/819
f 818/2/818 817/2/817 820/2/820
f 821/2/821 819/2/819 818/2/818
f 818/2/818 822/2/822 821/2/821
f 823/2/823 824/2/824 825/2/825
f 824/2/824 823/2/823 826/2/826
f 827/2/827 824/2/824 826/2/826
f 824/2/824 827/2/827 828/2/828
f 829/2/829 830/2/830 831/2/831
f 829/2/829 831/2/831 832/2/832
f 833/2/833 831/2/831 830/2/830
f 831/2/831 833/2/833 834/2/834
f 835/2/835 836/2/836 837/2/837
f 838/2/838 835/2/835 837/2/837
f 835/2/835 838/2/838 839/2/839
f 836/2/836 835/2/835 840/2/840
f 836/2/836 840/2/840 841/2/841
f 841/2/841 840/2/840 842/2/842
f 843/2/843 844/2/844 845/2/845
f 844/2/844 843/2/843 846/2/846
f 847/2/847 846/2/846 843/2/843
f 847/2/847 848/2/848 846/2/846
f 848/2/848 847/2/847 849/2/849
f 849/2/849 847/2/847 850/2/850
f 851/2/851 852/2/852 853/2/853
f 852/2/852 851/2/851 854/2/854
f 851/2/851 853/2/853 855/2/855
f 853/2/853 856/2/856 855/2/855
f 857/2/857 858/2/858 859/2/859
f 858/2/858 857/2/857 860/2/860
f 861/2/861 859/2/859 858/2/858
f 859/2/859 861/2/861 862/2/862
f 863/2/863 864/2/864 865/2/865
f 866/2/866 865/2/865 864/2/864
f 864/2/864 863/2/863 867/2/867
f 864/2/864 868/2/868 866/2/866
f 869/2/869 867/2/867 863/2/863
f 868/2/868 870/2/870 866/2/866
f 869/2/869 863/2/863 871/2/871
f 868/2/868 872/2/872 870/2/870
f 873/2/873 869/2/869 871/2/871
f 873/2/873 870/2/870 872/2/872
f 871/2/871 874/2/874 873/2/873
f 870/2/870 873/2/873 874/2/874
f 875/2/875 876/2/876 877/2/877
f 878/2/878 877/2/877 876/2/876
f 875/2/875 877/2/877 879/2/879
f 877/2/877 878/2/878 880/2/880
f 881/2/881 875/2/875 879/2/879
f 882/2/882 880/2/880 878/2/878
f 875/2/875 881/2/881 883/2/883
f 880/2/880 882/2/882 884/2/884
f 885/2/885 883/2/883 881/2/881
f 882/2/882 885/2/885 884/2/884
f 883/2/883 885/2/885 886/2/886
f 885/2/885 882/2/882 886/2/886
f 887/2/887 888/2/888 889/2/889
f 888/2/888 890/2/890 889/2/889
f 887/2/887 889/2/889 891/2/891
f 890/2/890 888/2/888 892/2/892
f 891/2/891 893/2/893 887/2/887
f 892/2/892 894/2/894 890/2/890
f 893/2/893 891/2/891 895/2/895
f 892/2/892 896/2/896 894/2/894
f 897/2/897 893/2/893 895/2/895
f 896/2/896 898/2/898 894/2/894
f 897/2/897 895/2/895 899/2/899
f 898/2/898 896/2/896 900/2/900
f 901/2/901 897/2/897 899/2/899
f 900/2/900 901/2/901 898/2/898
f 897/2/897 901/2/901 902/2/902
f 900/2/900 902/2/902 901/2/901
f 903/2/903 904/2/904 905/2/905
f 905/2/905 904/2/904 906/2/906
f 904/2/904 903/2/903 907/2/907
f 908/2/908 905/2/905 906/2/906
f 903/2/903 909/2/909 907/2/907
f 910/2/910 908/2/908 906/2/906
f 909/2/909 903/2/903 911/2/911
f 908/2/908 910/2/910 912/2/912
f 913/2/913 909/2/909 911/2/911
f 910/2/910 914/2/914 912/2/912
f 909/2/909 913/2/913 915/2/915
f 912/2/912 914/2/914 916/2/916
f 917/2/917 915/2/915 913/2/913
f 918/2/918 916/2/916 914/2/914
f 915/2/915 917/2/917 918/2/918
f 916/2/916 918/2/918 917/2/917
f 919/2/919 920/2/920 921/2/921
f 920/2/920 919/2/919 922/2/922
f 923/2/923 921/2/921 920/2/920
f 921/2/921 923/2/923 924/2/924
f 925/2/925 926/2/926 927/2/927
f 926/2/926 925/2/925 928/2/928
f 929/2/929 926/2/926 928/2/928
f 929/2/929 928/2/928 930/2/930
f 931/2/931 932/2/932 933/2/933
f 934/2/934 933/2/933 932/2/932
f 931/2/931 933/2/933 935/2/935
f 932/2/932 936/2/936 934/2/934
f 935/2/935 937/2/937 931/2/931
f 936/2/936 932/2/932 938/2/938
f 938/2/938 939/2/939 936/2/936
f 939/2/939 938/2/938 940/2/940
f 941/2/941 931/2/931 937/2/937
f 941/2/941 937/2/937 942/2/942
f 942/2/942 943/2/943 941/2/941
f 944/2/944 941/2/941 943/2/943
f 943/2/943 945/2/945 944/2/944
f 946/2/946 947/2/947 948/2/948
f 947/2/947 949/2/949 948/2/948
f 947/2/947 946/2/946 950/2/950
f 951/2/951 948/2/948 949/2/949
f 952/2/952 950/2/950 946/2/946
f 953/2/953 952/2/952 946/2/946
f 952/2/952 953/2/953 954/2/954
f 955/2/955 948/2/948 951/2/951
f 951/2/951 956/2/956 955/2/955
f 957/2/957 955/2/955 956/2/956
f 955/2/955 957/2/957 958/2/958
f 959/2/959 958/2/958 957/2/957
f 958/2/958 959/2/959 960/2/960
f 961/2/961 962/2/962 963/2/963
f 964/2/964 963/2/963 962/2/962
f 965/2/965 964/2/964 962/2/962
f 964/2/964 965/2/965 966/2/966
f 967/2/967 966/2/966 965/2/965
f 967/2/967 965/2/965 968/2/968
f 968/2/968 969/2/969 967/2/967
f 969/2/969 968/2/968 970/2/970
f 971/2/971 972/2/972 973/2/973
f 973/2/973 974/2/974 971/2/971
f 973/2/973 972/2/972 975/2/975
f 976/2/976 975/2/975 972/2/972
f 975/2/975 976/2/976 977/2/977
f 974/2/974 973/2/973 978/2/978
f 979/2/979 974/2/974 978/2/978
f 979/2/979 978/2/978 980/2/980
f 981/2/981 982/2/982 983/2/983
f 982/2/982 981/2/981 984/2/984
f 985/2/985 986/2/986 987/2/987
f 986/2/986 985/2/985 988/2/988
f 989/2/989 990/2/990 991/2/991
f 989/2/989 991/2/991 992/2/992
f 993/2/993 994/2/994 995/2/995
f 994/2/994 993/2/993 996/2/996
f 997/2/997 998/2/998 999/2/999
f 998/2/998 997/2/997 1000/2/1000
f 1001/2/1001 1002/2/1002 1003/2/1003
f 1001/2/1001 1003/2/1003 1004/2/1004
f 1005/2/1005 1006/2/1006 1007/2/1007
f 1005/2/1005 1007/2/1007 1008/2/1008
f 1009/2/1009 1010/2/1010 1011/2/1011
f 1011/2/1011 1012/2/1012 1009/2/1009
f 1013/2/1013 1014/2/1014 1015/2/1015
f 1014/2/1014 1013/2/1013 1016/2/1016
f 1017/2/1017 1018/2/1018 1019/2/1019
f 1018/2/1018 1017/2/1017 1020/2/1020
f 1021/2/1021 1022/2/1022 1023/2/1023
f 1021/2/1021 1023/2/1023 1024/2/1024
f 1025/2/1025 1026/2/1026 1027/2/1027
f 1026/2/1026 1028/2/1028 1027/2/1027
f 1029/2/1029 1030/2/1030 1031/2/1031
f 1031/2/1031 1032/2/1032 1029/2/1029
f 1033/2/1033 1034/2/1034 1035/2/1035
f 1034/2/1034 1033/2/1033 1036/2/1036
f 1037/2/1037 1038/2/1038 1039/2/1039
f 1038/2/1038 1037/2/1037 1040/2/1040
f 1041/2/1041 1042/2/1042 1043/2/1043
f 1043/2/1043 1044/2/1044 1041/2/1041
f 1045/2/1045 1046/2/1046 1047/2/1047
f 1046/2/1046 1045/2/1045 1048/2/1048
f 1049/2/1049 1050/2/1050 1051/2/1051
f 1049/2/1049 1051/2/1051 1052/2/1052
f 1053/2/1053 1054/2/1054 1055/2/1055
f 1054/2/1054 1053/2/1053 1056/2/1056
f 1057/2/1057 1058/2/1058 1059/2/1059
f 1058/2/1058 1057/2/1057 1060/2/1060
f 1061/2/1061 1062/2/1062 1063/2/1063
f 1063/2/1063 1064/2/1064 1061/2/1061
f 1065/2/1065 1066/2/1066 1067/2/1067
f 1065/2/1065 1067/2/1067 1068/2/1068
f 1069/2/1069 1070/2/1070 1071/2/1071
f 1072/2/1072 1071/2/1071 1070/2/1070
f 1073/2/1073 1074/2/1074 1075/2/1075
f 1074/2/1074 1073/2/1073 1076/2/1076
f 1077/2/1077 1078/2/1078 1079/2/1079
f 1077/2/1077 1079/2/1079 1080/2/1080
f 1081/2/1081 1082/2/1082 1083/2/1083
f 1084/2/1084 1083/2/1083 1082/2/1082
f 1085/2/1085 1086/2/1086 1087/2/1087
f 1088/2/1088 1087/2/1087 1086/2/1086
f 1089/2/1089 1090/2/1090 1091/2/1091
f 1090/2/1090 1089/2/1089 1092/2/1092
f 1093/2/1093 1094/2/1094 1095/2/1095
f 1093/2/1093 1095/2/1095 1096/2/1096
f 1097/2/1097 1098/2/1098 1099/2/1099
f 1100/2/1100 1099/2/1099 1098/2/1098
f 1101/2/1101 1102/2/1102 1103/2/1103
f 1104/2/1104 1103/2/1103 1102/2/1102
f 1105/2/1105 1106/2/1106 1107/2/1107
f 1106/2/1106 1105/2/1105 1108/2/1108
f 1109/2/1109 1110/2/1110 1111/2/1111
f 1109/2/1109 1111/2/1111 1112/2/1112
f 1113/2/1113 1114/2/1114 1115/2/1115
f 1114/2/1114 1113/2/1113 1116/2/1116
f 1117/2/1117 1118/2/1118 1119/2/1119
f 1118/2/1118 1117/2/1117 1120/2/1120
f 1121/2/1121 1122/2/1122 1123/2/1123
f 1121/2/1121 1123/2/1123 1124/2/1124
f 1125/2/1125 1126/2/1126 1127/2/1127
f 1128/2/1128 1127/2/1127 1126/2/1126
f 1127/2/1127 1129/2/1129 1125/2/1125
f 1126/2/1126 1130/2/1130 1128/2/1128
f 1131/2/1131 1125/2/1125 1129/2/1129
f 1132/2/1132 1128/2/1128 1130/2/1130
f 1129/2/1129 1133/2/1133 1131/2/1131
f 1130/2/1130 1134/2/1134 1132/2/1132
f 1135/2/1135 1131/2/1131 1133/2/1133
f 1136/2/1136 1132/2/1132 1134/2/1134
f 1134/2/1134 1135/2/1135 1136/2/1136
f 1133/2/1133 1136/2/1136 1135/2/1135
f 1137/2/1137 1138/2/1138 1139/2/1139
f 1138/2/1138 1137/2/1137 1140/2/1140
f 1141/2/1141 1142/2/1142 1143/2/1143
f 1142/2/1142 1141/2/1141 1144/2/1144
# Vertices: 572, normals: 572, texture coordinates: 1, faces: 374

