# Converted from Roblox mesh format
# Vertices: 570, Faces: 432

v 0.106814 0.546660 -0.063919 1.000000 1.000000 1.000000
v 0.130606 0.543945 0.073697 1.000000 1.000000 1.000000
v 0.130606 0.543945 -0.073697 1.000000 1.000000 1.000000
v 0.106814 0.546660 0.063919 1.000000 1.000000 1.000000
v 0.106814 -0.546660 -0.063919 1.000000 1.000000 1.000000
v 0.130606 -0.543944 0.073697 1.000000 1.000000 1.000000
v 0.106814 -0.546660 0.063919 1.000000 1.000000 1.000000
v 0.130606 -0.543944 -0.073697 1.000000 1.000000 1.000000
v -0.411995 0.735473 -0.042588 1.000000 1.000000 1.000000
v -0.024649 0.675054 0.042552 1.000000 1.000000 1.000000
v -0.024649 0.675054 -0.042552 1.000000 1.000000 1.000000
v -0.411995 0.735473 0.042588 1.000000 1.000000 1.000000
v 0.087487 0.529613 0.042441 1.000000 1.000000 1.000000
v 0.087487 0.529613 -0.042441 1.000000 1.000000 1.000000
v -0.411995 -0.735473 -0.042588 1.000000 1.000000 1.000000
v -0.024649 -0.675053 -0.042552 1.000000 1.000000 1.000000
v -0.024649 -0.675053 0.042552 1.000000 1.000000 1.000000
v -0.411995 -0.735473 0.042588 1.000000 1.000000 1.000000
v 0.087487 -0.529613 0.042441 1.000000 1.000000 1.000000
v 0.087487 -0.529613 -0.042441 1.000000 1.000000 1.000000
v 0.106814 0.546660 -0.063919 1.000000 1.000000 1.000000
v 0.117190 0.531989 -0.090624 1.000000 1.000000 1.000000
v 0.086412 0.528665 -0.078295 1.000000 1.000000 1.000000
v 0.130606 0.543945 -0.073697 1.000000 1.000000 1.000000
v 0.106814 0.546660 0.063919 1.000000 1.000000 1.000000
v 0.117190 0.531989 0.090624 1.000000 1.000000 1.000000
v 0.130606 0.543945 0.073697 1.000000 1.000000 1.000000
v 0.086412 0.528665 0.078295 1.000000 1.000000 1.000000
v 0.117190 -0.531987 -0.090624 1.000000 1.000000 1.000000
v 0.106814 -0.546660 -0.063919 1.000000 1.000000 1.000000
v 0.086412 -0.528664 -0.078295 1.000000 1.000000 1.000000
v 0.130606 -0.543944 -0.073697 1.000000 1.000000 1.000000
v 0.117190 -0.531987 0.090624 1.000000 1.000000 1.000000
v 0.106814 -0.546660 0.063919 1.000000 1.000000 1.000000
v 0.130606 -0.543944 0.073697 1.000000 1.000000 1.000000
v 0.086412 -0.528664 0.078295 1.000000 1.000000 1.000000
v 0.106814 0.546660 0.063919 1.000000 1.000000 1.000000
v 0.087487 0.529613 -0.042441 1.000000 1.000000 1.000000
v 0.087487 0.529613 0.042441 1.000000 1.000000 1.000000
v 0.072313 0.516230 0.060416 1.000000 1.000000 1.000000
v 0.106814 0.546660 -0.063919 1.000000 1.000000 1.000000
v 0.086412 0.528665 0.078295 1.000000 1.000000 1.000000
v 0.072313 0.516230 -0.060416 1.000000 1.000000 1.000000
v -0.027942 0.427804 0.060416 1.000000 1.000000 1.000000
v 0.086412 0.528665 -0.078295 1.000000 1.000000 1.000000
v -0.042052 0.415358 0.078295 1.000000 1.000000 1.000000
v -0.027942 0.427804 -0.060416 1.000000 1.000000 1.000000
v -0.062747 0.397105 0.063919 1.000000 1.000000 1.000000
v -0.042052 0.415358 -0.078295 1.000000 1.000000 1.000000
v -0.043420 0.414152 0.042441 1.000000 1.000000 1.000000
v -0.062747 0.397105 -0.063919 1.000000 1.000000 1.000000
v -0.043420 0.414152 -0.042441 1.000000 1.000000 1.000000
v 0.087487 -0.529613 -0.042441 1.000000 1.000000 1.000000
v 0.106814 -0.546660 0.063919 1.000000 1.000000 1.000000
v 0.087487 -0.529613 0.042441 1.000000 1.000000 1.000000
v 0.072313 -0.516230 0.060416 1.000000 1.000000 1.000000
v 0.106814 -0.546660 -0.063919 1.000000 1.000000 1.000000
v 0.086412 -0.528664 0.078295 1.000000 1.000000 1.000000
v 0.072313 -0.516230 -0.060416 1.000000 1.000000 1.000000
v -0.027942 -0.427803 0.060416 1.000000 1.000000 1.000000
v 0.086412 -0.528664 -0.078295 1.000000 1.000000 1.000000
v -0.042052 -0.415358 0.078295 1.000000 1.000000 1.000000
v -0.027942 -0.427803 -0.060416 1.000000 1.000000 1.000000
v -0.062747 -0.397105 0.063919 1.000000 1.000000 1.000000
v -0.042052 -0.415358 -0.078295 1.000000 1.000000 1.000000
v -0.043420 -0.414151 0.042441 1.000000 1.000000 1.000000
v -0.062747 -0.397105 -0.063919 1.000000 1.000000 1.000000
v -0.043420 -0.414151 -0.042441 1.000000 1.000000 1.000000
v -0.036377 0.657499 0.060416 1.000000 1.000000 1.000000
v -0.411995 0.735473 0.042588 1.000000 1.000000 1.000000
v -0.411995 0.716138 0.060416 1.000000 1.000000 1.000000
v -0.024649 0.675054 0.042552 1.000000 1.000000 1.000000
v 0.087487 0.529613 0.042441 1.000000 1.000000 1.000000
v 0.072313 0.516230 0.060416 1.000000 1.000000 1.000000
v -0.036377 0.657499 -0.060416 1.000000 1.000000 1.000000
v -0.411995 0.735473 -0.042588 1.000000 1.000000 1.000000
v -0.024649 0.675054 -0.042552 1.000000 1.000000 1.000000
v -0.411995 0.716138 -0.060416 1.000000 1.000000 1.000000
v 0.087487 0.529613 -0.042441 1.000000 1.000000 1.000000
v 0.072313 0.516230 -0.060416 1.000000 1.000000 1.000000
v -0.036377 -0.657498 0.060416 1.000000 1.000000 1.000000
v -0.411995 -0.735473 0.042588 1.000000 1.000000 1.000000
v -0.024649 -0.675053 0.042552 1.000000 1.000000 1.000000
v -0.411995 -0.716137 0.060416 1.000000 1.000000 1.000000
v 0.087487 -0.529613 0.042441 1.000000 1.000000 1.000000
v 0.072313 -0.516230 0.060416 1.000000 1.000000 1.000000
v -0.036377 -0.657498 -0.060416 1.000000 1.000000 1.000000
v -0.411995 -0.735473 -0.042588 1.000000 1.000000 1.000000
v -0.411995 -0.716137 -0.060416 1.000000 1.000000 1.000000
v -0.024649 -0.675053 -0.042552 1.000000 1.000000 1.000000
v 0.087487 -0.529613 -0.042441 1.000000 1.000000 1.000000
v 0.072313 -0.516230 -0.060416 1.000000 1.000000 1.000000
v 0.256999 0.367160 -0.073697 1.000000 1.000000 1.000000
v 0.130606 0.543945 -0.073697 1.000000 1.000000 1.000000
v 0.130606 0.543945 0.073697 1.000000 1.000000 1.000000
v 0.256999 0.367160 0.073697 1.000000 1.000000 1.000000
v 0.256999 -0.367160 -0.073697 1.000000 1.000000 1.000000
v 0.130606 -0.543944 0.073697 1.000000 1.000000 1.000000
v 0.130606 -0.543944 -0.073697 1.000000 1.000000 1.000000
v 0.256999 -0.367160 0.073697 1.000000 1.000000 1.000000
v -0.062747 0.397105 -0.063919 1.000000 1.000000 1.000000
v -0.042052 0.415358 -0.078295 1.000000 1.000000 1.000000
v -0.050928 0.383705 -0.090624 1.000000 1.000000 1.000000
v -0.064327 0.371887 -0.073697 1.000000 1.000000 1.000000
v -0.050928 0.383705 0.090624 1.000000 1.000000 1.000000
v -0.062747 0.397105 0.063919 1.000000 1.000000 1.000000
v -0.064327 0.371887 0.073697 1.000000 1.000000 1.000000
v -0.042052 0.415358 0.078295 1.000000 1.000000 1.000000
v -0.062747 -0.397105 -0.063919 1.000000 1.000000 1.000000
v -0.050928 -0.383704 -0.090624 1.000000 1.000000 1.000000
v -0.042052 -0.415358 -0.078295 1.000000 1.000000 1.000000
v -0.064327 -0.371885 -0.073697 1.000000 1.000000 1.000000
v -0.062747 -0.397105 0.063919 1.000000 1.000000 1.000000
v -0.050928 -0.383704 0.090624 1.000000 1.000000 1.000000
v -0.064327 -0.371885 0.073697 1.000000 1.000000 1.000000
v -0.042052 -0.415358 0.078295 1.000000 1.000000 1.000000
v 0.117190 0.531989 -0.090624 1.000000 1.000000 1.000000
v -0.042052 0.415358 -0.078295 1.000000 1.000000 1.000000
v 0.086412 0.528665 -0.078295 1.000000 1.000000 1.000000
v -0.050928 0.383705 -0.090624 1.000000 1.000000 1.000000
v -0.050928 0.383705 0.090624 1.000000 1.000000 1.000000
v 0.117190 0.531989 0.090624 1.000000 1.000000 1.000000
v -0.042052 0.415358 0.078295 1.000000 1.000000 1.000000
v 0.086412 0.528665 0.078295 1.000000 1.000000 1.000000
v 0.117190 -0.531987 -0.090624 1.000000 1.000000 1.000000
v -0.042052 -0.415358 -0.078295 1.000000 1.000000 1.000000
v -0.050928 -0.383704 -0.090624 1.000000 1.000000 1.000000
v 0.086412 -0.528664 -0.078295 1.000000 1.000000 1.000000
v 0.117190 -0.531987 0.090624 1.000000 1.000000 1.000000
v -0.050928 -0.383704 0.090624 1.000000 1.000000 1.000000
v -0.042052 -0.415358 0.078295 1.000000 1.000000 1.000000
v 0.086412 -0.528664 0.078295 1.000000 1.000000 1.000000
v 0.130606 0.543945 -0.073697 1.000000 1.000000 1.000000
v 0.240411 0.359641 -0.090624 1.000000 1.000000 1.000000
v 0.117190 0.531989 -0.090624 1.000000 1.000000 1.000000
v 0.256999 0.367160 -0.073697 1.000000 1.000000 1.000000
v 0.130606 0.543945 0.073697 1.000000 1.000000 1.000000
v 0.240411 0.359641 0.090624 1.000000 1.000000 1.000000
v 0.256999 0.367160 0.073697 1.000000 1.000000 1.000000
v 0.117190 0.531989 0.090624 1.000000 1.000000 1.000000
v 0.130606 -0.543944 -0.073697 1.000000 1.000000 1.000000
v 0.240411 -0.359640 -0.090624 1.000000 1.000000 1.000000
v 0.256999 -0.367160 -0.073697 1.000000 1.000000 1.000000
v 0.117190 -0.531987 -0.090624 1.000000 1.000000 1.000000
v 0.130606 -0.543944 0.073697 1.000000 1.000000 1.000000
v 0.256999 -0.367160 0.073697 1.000000 1.000000 1.000000
v 0.240411 -0.359640 0.090624 1.000000 1.000000 1.000000
v 0.117190 -0.531987 0.090624 1.000000 1.000000 1.000000
v 0.411995 -0.002362 -0.078855 1.000000 1.000000 1.000000
v 0.407518 0.132610 -0.078855 1.000000 1.000000 1.000000
v 0.407518 0.132610 0.078855 1.000000 1.000000 1.000000
v 0.411995 -0.002362 0.078855 1.000000 1.000000 1.000000
v 0.407518 0.346418 0.078855 1.000000 1.000000 1.000000
v 0.407518 -0.137334 0.078855 1.000000 1.000000 1.000000
v 0.407518 0.346418 -0.078855 1.000000 1.000000 1.000000
v 0.407518 -0.137334 -0.078855 1.000000 1.000000 1.000000
v 0.342518 0.400638 -0.078855 1.000000 1.000000 1.000000
v 0.407518 -0.351141 0.078855 1.000000 1.000000 1.000000
v 0.342518 0.400638 0.078855 1.000000 1.000000 1.000000
v 0.407518 -0.351141 -0.078855 1.000000 1.000000 1.000000
v 0.209918 0.400638 -0.078855 1.000000 1.000000 1.000000
v 0.342518 -0.405362 0.078855 1.000000 1.000000 1.000000
v 0.209918 0.400638 0.078855 1.000000 1.000000 1.000000
v 0.147518 0.400638 -0.078855 1.000000 1.000000 1.000000
v 0.147518 0.400638 0.078855 1.000000 1.000000 1.000000
v 0.342518 -0.405362 -0.078855 1.000000 1.000000 1.000000
v 0.209918 -0.405362 -0.078855 1.000000 1.000000 1.000000
v 0.209918 -0.405362 0.078855 1.000000 1.000000 1.000000
v 0.147518 -0.405362 -0.078855 1.000000 1.000000 1.000000
v 0.147518 -0.405362 0.078855 1.000000 1.000000 1.000000
v 0.400623 -0.002362 -0.095830 1.000000 1.000000 1.000000
v 0.396146 0.132610 -0.095830 1.000000 1.000000 1.000000
v 0.407518 0.132610 -0.078855 1.000000 1.000000 1.000000
v 0.396146 0.334866 -0.095830 1.000000 1.000000 1.000000
v 0.411995 -0.002362 -0.078855 1.000000 1.000000 1.000000
v 0.407518 0.346418 -0.078855 1.000000 1.000000 1.000000
v 0.407518 -0.137334 -0.078855 1.000000 1.000000 1.000000
v 0.342518 0.400638 -0.078855 1.000000 1.000000 1.000000
v 0.396146 -0.137334 -0.095830 1.000000 1.000000 1.000000
v 0.342518 0.389267 -0.095830 1.000000 1.000000 1.000000
v 0.396146 -0.339590 -0.095830 1.000000 1.000000 1.000000
v 0.209918 0.400638 -0.078855 1.000000 1.000000 1.000000
v 0.407518 -0.351141 -0.078855 1.000000 1.000000 1.000000
v 0.209918 0.389267 -0.095830 1.000000 1.000000 1.000000
v 0.159410 0.389267 -0.095830 1.000000 1.000000 1.000000
v 0.147518 0.400638 -0.078855 1.000000 1.000000 1.000000
v 0.342518 -0.405362 -0.078855 1.000000 1.000000 1.000000
v 0.342518 -0.393990 -0.095830 1.000000 1.000000 1.000000
v 0.209918 -0.405362 -0.078855 1.000000 1.000000 1.000000
v 0.209918 -0.393990 -0.095830 1.000000 1.000000 1.000000
v 0.159410 -0.393990 -0.095830 1.000000 1.000000 1.000000
v 0.147518 -0.405362 -0.078855 1.000000 1.000000 1.000000
v 0.407518 0.132610 0.078855 1.000000 1.000000 1.000000
v 0.407518 0.346418 0.078855 1.000000 1.000000 1.000000
v 0.396146 0.334866 0.095830 1.000000 1.000000 1.000000
v 0.342518 0.400638 0.078855 1.000000 1.000000 1.000000
v 0.396146 0.132610 0.095830 1.000000 1.000000 1.000000
v 0.342518 0.389267 0.095830 1.000000 1.000000 1.000000
v 0.411995 -0.002362 0.078855 1.000000 1.000000 1.000000
v 0.209918 0.389267 0.095830 1.000000 1.000000 1.000000
v 0.400623 -0.002362 0.095830 1.000000 1.000000 1.000000
v 0.209918 0.400638 0.078855 1.000000 1.000000 1.000000
v 0.159410 0.389267 0.095830 1.000000 1.000000 1.000000
v 0.147518 0.400638 0.078855 1.000000 1.000000 1.000000
v 0.396146 -0.137334 0.095830 1.000000 1.000000 1.000000
v 0.407518 -0.137334 0.078855 1.000000 1.000000 1.000000
v 0.396146 -0.339590 0.095830 1.000000 1.000000 1.000000
v 0.407518 -0.351141 0.078855 1.000000 1.000000 1.000000
v 0.342518 -0.405362 0.078855 1.000000 1.000000 1.000000
v 0.342518 -0.393990 0.095830 1.000000 1.000000 1.000000
v 0.209918 -0.393990 0.095830 1.000000 1.000000 1.000000
v 0.209918 -0.405362 0.078855 1.000000 1.000000 1.000000
v 0.159410 -0.393990 0.095830 1.000000 1.000000 1.000000
v 0.147518 -0.405362 0.078855 1.000000 1.000000 1.000000
v -0.064327 0.371887 -0.073697 1.000000 1.000000 1.000000
v -0.062747 0.397105 0.063919 1.000000 1.000000 1.000000
v -0.062747 0.397105 -0.063919 1.000000 1.000000 1.000000
v -0.064327 0.371887 0.073697 1.000000 1.000000 1.000000
v -0.064327 -0.371885 -0.073697 1.000000 1.000000 1.000000
v -0.062747 -0.397105 0.063919 1.000000 1.000000 1.000000
v -0.064327 -0.371885 0.073697 1.000000 1.000000 1.000000
v -0.062747 -0.397105 -0.063919 1.000000 1.000000 1.000000
v 0.159410 -0.393990 -0.095830 1.000000 1.000000 1.000000
v 0.147518 -0.332562 -0.078855 1.000000 1.000000 1.000000
v 0.159431 -0.332562 -0.095830 1.000000 1.000000 1.000000
v 0.147518 -0.405362 -0.078855 1.000000 1.000000 1.000000
v 0.108518 -0.267562 -0.078855 1.000000 1.000000 1.000000
v 0.115772 -0.259790 -0.095830 1.000000 1.000000 1.000000
v 0.054528 -0.235922 -0.095830 1.000000 1.000000 1.000000
v 0.041992 -0.240082 -0.078855 1.000000 1.000000 1.000000
v 0.159410 -0.393990 0.095830 1.000000 1.000000 1.000000
v 0.147518 -0.332562 0.078855 1.000000 1.000000 1.000000
v 0.147518 -0.405362 0.078855 1.000000 1.000000 1.000000
v 0.159431 -0.332562 0.095830 1.000000 1.000000 1.000000
v 0.108518 -0.267562 0.078855 1.000000 1.000000 1.000000
v 0.115772 -0.259790 0.095830 1.000000 1.000000 1.000000
v 0.054528 -0.235922 0.095830 1.000000 1.000000 1.000000
v 0.041992 -0.240082 0.078855 1.000000 1.000000 1.000000
v 0.159410 0.389267 -0.095830 1.000000 1.000000 1.000000
v 0.159431 0.327837 -0.095830 1.000000 1.000000 1.000000
v 0.147518 0.327837 -0.078855 1.000000 1.000000 1.000000
v 0.147518 0.400638 -0.078855 1.000000 1.000000 1.000000
v 0.108518 0.262837 -0.078855 1.000000 1.000000 1.000000
v 0.115772 0.255066 -0.095830 1.000000 1.000000 1.000000
v 0.054528 0.231198 -0.095830 1.000000 1.000000 1.000000
v 0.041992 0.235358 -0.078855 1.000000 1.000000 1.000000
v 0.147518 0.327837 0.078855 1.000000 1.000000 1.000000
v 0.159410 0.389267 0.095830 1.000000 1.000000 1.000000
v 0.147518 0.400638 0.078855 1.000000 1.000000 1.000000
v 0.159431 0.327837 0.095830 1.000000 1.000000 1.000000
v 0.108518 0.262837 0.078855 1.000000 1.000000 1.000000
v 0.115772 0.255066 0.095830 1.000000 1.000000 1.000000
v 0.054528 0.231198 0.095830 1.000000 1.000000 1.000000
v 0.041992 0.235358 0.078855 1.000000 1.000000 1.000000
v 0.147518 -0.332562 -0.078855 1.000000 1.000000 1.000000
v 0.147518 -0.332562 0.078855 1.000000 1.000000 1.000000
v 0.108518 -0.267562 -0.078855 1.000000 1.000000 1.000000
v 0.147518 -0.405362 -0.078855 1.000000 1.000000 1.000000
v 0.147518 -0.405362 0.078855 1.000000 1.000000 1.000000
v 0.108518 -0.267562 0.078855 1.000000 1.000000 1.000000
v 0.041992 -0.240082 -0.078855 1.000000 1.000000 1.000000
v 0.041992 -0.240082 0.078855 1.000000 1.000000 1.000000
v 0.108518 0.262837 -0.078855 1.000000 1.000000 1.000000
v 0.147518 0.327837 0.078855 1.000000 1.000000 1.000000
v 0.147518 0.327837 -0.078855 1.000000 1.000000 1.000000
v 0.147518 0.400638 -0.078855 1.000000 1.000000 1.000000
v 0.147518 0.400638 0.078855 1.000000 1.000000 1.000000
v 0.108518 0.262837 0.078855 1.000000 1.000000 1.000000
v 0.041992 0.235358 -0.078855 1.000000 1.000000 1.000000
v 0.041992 0.235358 0.078855 1.000000 1.000000 1.000000
v 0.054506 0.114418 -0.095830 1.000000 1.000000 1.000000
v -0.026184 -0.002362 -0.095830 1.000000 1.000000 1.000000
v -0.038675 -0.002362 -0.078855 1.000000 1.000000 1.000000
v 0.054506 -0.119142 -0.095830 1.000000 1.000000 1.000000
v 0.041992 0.116498 -0.078855 1.000000 1.000000 1.000000
v 0.054528 0.231198 -0.095830 1.000000 1.000000 1.000000
v 0.041992 0.235358 -0.078855 1.000000 1.000000 1.000000
v 0.041992 -0.121222 -0.078855 1.000000 1.000000 1.000000
v 0.054528 -0.235922 -0.095830 1.000000 1.000000 1.000000
v 0.041992 -0.240082 -0.078855 1.000000 1.000000 1.000000
v 0.041992 0.116498 0.078855 1.000000 1.000000 1.000000
v 0.054528 0.231198 0.095830 1.000000 1.000000 1.000000
v 0.041992 0.235358 0.078855 1.000000 1.000000 1.000000
v 0.054506 0.114418 0.095830 1.000000 1.000000 1.000000
v -0.038675 -0.002362 0.078855 1.000000 1.000000 1.000000
v -0.026184 -0.002362 0.095830 1.000000 1.000000 1.000000
v 0.054506 -0.119142 0.095830 1.000000 1.000000 1.000000
v 0.041992 -0.121222 0.078855 1.000000 1.000000 1.000000
v 0.054528 -0.235922 0.095830 1.000000 1.000000 1.000000
v 0.041992 -0.240082 0.078855 1.000000 1.000000 1.000000
v -0.038675 -0.002362 -0.078855 1.000000 1.000000 1.000000
v 0.041992 0.116498 0.078855 1.000000 1.000000 1.000000
v 0.041992 0.116498 -0.078855 1.000000 1.000000 1.000000
v 0.041992 0.235358 0.078855 1.000000 1.000000 1.000000
v 0.041992 0.235358 -0.078855 1.000000 1.000000 1.000000
v -0.038675 -0.002362 0.078855 1.000000 1.000000 1.000000
v 0.041992 -0.121222 0.078855 1.000000 1.000000 1.000000
v 0.041992 -0.121222 -0.078855 1.000000 1.000000 1.000000
v 0.041992 -0.240082 0.078855 1.000000 1.000000 1.000000
v 0.041992 -0.240082 -0.078855 1.000000 1.000000 1.000000
v 0.396146 0.132610 -0.095830 1.000000 1.000000 1.000000
v 0.328972 -0.002362 -0.095830 1.000000 1.000000 1.000000
v 0.328972 0.132610 -0.095830 1.000000 1.000000 1.000000
v 0.400623 -0.002362 -0.095830 1.000000 1.000000 1.000000
v 0.396146 -0.137334 -0.095830 1.000000 1.000000 1.000000
v 0.328972 0.281721 -0.095830 1.000000 1.000000 1.000000
v 0.328972 -0.137334 -0.095830 1.000000 1.000000 1.000000
v 0.396146 0.334866 -0.095830 1.000000 1.000000 1.000000
v 0.342518 0.389267 -0.095830 1.000000 1.000000 1.000000
v 0.209918 0.389267 -0.095830 1.000000 1.000000 1.000000
v 0.328972 -0.286445 -0.095830 1.000000 1.000000 1.000000
v 0.396146 -0.339590 -0.095830 1.000000 1.000000 1.000000
v 0.342518 -0.393990 -0.095830 1.000000 1.000000 1.000000
v 0.209918 -0.393990 -0.095830 1.000000 1.000000 1.000000
v 0.208144 0.281721 -0.095830 1.000000 1.000000 1.000000
v 0.208144 -0.286445 -0.095830 1.000000 1.000000 1.000000
v 0.159431 0.327837 -0.095830 1.000000 1.000000 1.000000
v 0.159410 0.389267 -0.095830 1.000000 1.000000 1.000000
v 0.115772 0.255066 -0.095830 1.000000 1.000000 1.000000
v 0.153756 0.194644 -0.095830 1.000000 1.000000 1.000000
v 0.116520 0.172007 -0.095830 1.000000 1.000000 1.000000
v 0.054528 0.231198 -0.095830 1.000000 1.000000 1.000000
v 0.054506 0.114418 -0.095830 1.000000 1.000000 1.000000
v 0.116542 0.084823 -0.095830 1.000000 1.000000 1.000000
v -0.026184 -0.002362 -0.095830 1.000000 1.000000 1.000000
v 0.168564 -0.002362 -0.095830 1.000000 1.000000 1.000000
v 0.116542 -0.089546 -0.095830 1.000000 1.000000 1.000000
v 0.054506 -0.119142 -0.095830 1.000000 1.000000 1.000000
v 0.116520 -0.176731 -0.095830 1.000000 1.000000 1.000000
v 0.054528 -0.235922 -0.095830 1.000000 1.000000 1.000000
v 0.115772 -0.259790 -0.095830 1.000000 1.000000 1.000000
v 0.153756 -0.199367 -0.095830 1.000000 1.000000 1.000000
v 0.159431 -0.332562 -0.095830 1.000000 1.000000 1.000000
v 0.159410 -0.393990 -0.095830 1.000000 1.000000 1.000000
v 0.208144 0.281721 0.095830 1.000000 1.000000 1.000000
v 0.328972 0.281721 0.095830 1.000000 1.000000 1.000000
v 0.209918 0.389267 0.095830 1.000000 1.000000 1.000000
v 0.342518 0.389267 0.095830 1.000000 1.000000 1.000000
v 0.396146 0.334866 0.095830 1.000000 1.000000 1.000000
v 0.396146 0.132610 0.095830 1.000000 1.000000 1.000000
v 0.328972 0.132610 0.095830 1.000000 1.000000 1.000000
v 0.328972 -0.002362 0.095830 1.000000 1.000000 1.000000
v 0.400623 -0.002362 0.095830 1.000000 1.000000 1.000000
v 0.396146 -0.137334 0.095830 1.000000 1.000000 1.000000
v 0.328972 -0.137334 0.095830 1.000000 1.000000 1.000000
v 0.328972 -0.286445 0.095830 1.000000 1.000000 1.000000
v 0.396146 -0.339590 0.095830 1.000000 1.000000 1.000000
v 0.342518 -0.393990 0.095830 1.000000 1.000000 1.000000
v 0.209918 -0.393990 0.095830 1.000000 1.000000 1.000000
v 0.208144 -0.286445 0.095830 1.000000 1.000000 1.000000
v 0.159431 -0.332562 0.095830 1.000000 1.000000 1.000000
v 0.159410 -0.393990 0.095830 1.000000 1.000000 1.000000
v 0.115772 -0.259790 0.095830 1.000000 1.000000 1.000000
v 0.153756 -0.199367 0.095830 1.000000 1.000000 1.000000
v 0.116520 -0.176731 0.095830 1.000000 1.000000 1.000000
v 0.054528 -0.235922 0.095830 1.000000 1.000000 1.000000
v 0.054506 -0.119142 0.095830 1.000000 1.000000 1.000000
v 0.116542 -0.089546 0.095830 1.000000 1.000000 1.000000
v -0.026184 -0.002362 0.095830 1.000000 1.000000 1.000000
v 0.168564 -0.002362 0.095830 1.000000 1.000000 1.000000
v 0.116542 0.084823 0.095830 1.000000 1.000000 1.000000
v 0.054506 0.114418 0.095830 1.000000 1.000000 1.000000
v 0.116520 0.172007 0.095830 1.000000 1.000000 1.000000
v 0.054528 0.231198 0.095830 1.000000 1.000000 1.000000
v 0.115772 0.255066 0.095830 1.000000 1.000000 1.000000
v 0.153756 0.194644 0.095830 1.000000 1.000000 1.000000
v 0.159431 0.327837 0.095830 1.000000 1.000000 1.000000
v 0.159410 0.389267 0.095830 1.000000 1.000000 1.000000
v -0.050928 -0.383704 -0.090624 1.000000 1.000000 1.000000
v 0.240411 -0.359640 -0.090624 1.000000 1.000000 1.000000
v 0.117190 -0.531987 -0.090624 1.000000 1.000000 1.000000
v 0.099448 -0.220169 -0.090624 1.000000 1.000000 1.000000
v -0.050928 0.383705 -0.090624 1.000000 1.000000 1.000000
v 0.240411 0.359641 -0.090624 1.000000 1.000000 1.000000
v 0.099448 0.220170 -0.090624 1.000000 1.000000 1.000000
v 0.117190 0.531989 -0.090624 1.000000 1.000000 1.000000
v 0.099448 -0.220169 0.090624 1.000000 1.000000 1.000000
v -0.050928 -0.383704 0.090624 1.000000 1.000000 1.000000
v 0.240411 -0.359640 0.090624 1.000000 1.000000 1.000000
v 0.117190 -0.531987 0.090624 1.000000 1.000000 1.000000
v 0.240411 0.359641 0.090624 1.000000 1.000000 1.000000
v 0.117190 0.531989 0.090624 1.000000 1.000000 1.000000
v -0.050928 0.383705 0.090624 1.000000 1.000000 1.000000
v 0.099448 0.220170 0.090624 1.000000 1.000000 1.000000
v -0.123787 -0.526652 -0.060416 1.000000 1.000000 1.000000
v 0.072313 -0.516230 -0.060416 1.000000 1.000000 1.000000
v -0.036377 -0.657498 -0.060416 1.000000 1.000000 1.000000
v -0.027942 -0.427803 -0.060416 1.000000 1.000000 1.000000
v -0.411995 -0.716137 -0.060416 1.000000 1.000000 1.000000
v -0.411995 -0.558104 -0.060416 1.000000 1.000000 1.000000
v -0.123787 0.526652 -0.060416 1.000000 1.000000 1.000000
v 0.072313 0.516230 -0.060416 1.000000 1.000000 1.000000
v -0.027942 0.427804 -0.060416 1.000000 1.000000 1.000000
v -0.036377 0.657499 -0.060416 1.000000 1.000000 1.000000
v -0.411995 0.716138 -0.060416 1.000000 1.000000 1.000000
v -0.411995 0.558104 -0.060416 1.000000 1.000000 1.000000
v -0.027942 -0.427803 0.060416 1.000000 1.000000 1.000000
v -0.123787 -0.526652 0.060416 1.000000 1.000000 1.000000
v 0.072313 -0.516230 0.060416 1.000000 1.000000 1.000000
v -0.036377 -0.657498 0.060416 1.000000 1.000000 1.000000
v -0.411995 -0.716137 0.060416 1.000000 1.000000 1.000000
v -0.411995 -0.558104 0.060416 1.000000 1.000000 1.000000
v 0.072313 0.516230 0.060416 1.000000 1.000000 1.000000
v -0.036377 0.657499 0.060416 1.000000 1.000000 1.000000
v -0.123787 0.526652 0.060416 1.000000 1.000000 1.000000
v -0.027942 0.427804 0.060416 1.000000 1.000000 1.000000
v -0.411995 0.716138 0.060416 1.000000 1.000000 1.000000
v -0.411995 0.558104 0.060416 1.000000 1.000000 1.000000
v 0.319761 0.272510 0.075871 1.000000 1.000000 1.000000
v 0.208144 0.281721 0.095830 1.000000 1.000000 1.000000
v 0.212355 0.272510 0.075871 1.000000 1.000000 1.000000
v 0.328972 0.281721 0.095830 1.000000 1.000000 1.000000
v 0.153756 0.194644 0.095830 1.000000 1.000000 1.000000
v 0.159705 0.188270 0.075871 1.000000 1.000000 1.000000
v 0.126879 0.168570 0.075871 1.000000 1.000000 1.000000
v 0.116520 0.172007 0.095830 1.000000 1.000000 1.000000
v 0.116542 0.084823 0.095830 1.000000 1.000000 1.000000
v 0.126879 0.083104 0.075871 1.000000 1.000000 1.000000
v 0.168564 -0.002362 0.095830 1.000000 1.000000 1.000000
v 0.178879 -0.002362 0.075871 1.000000 1.000000 1.000000
v 0.208144 0.281721 -0.095830 1.000000 1.000000 1.000000
v 0.328972 0.281721 -0.095830 1.000000 1.000000 1.000000
v 0.319761 0.272510 -0.075871 1.000000 1.000000 1.000000
v 0.212355 0.272510 -0.075871 1.000000 1.000000 1.000000
v 0.153756 0.194644 -0.095830 1.000000 1.000000 1.000000
v 0.159705 0.188270 -0.075871 1.000000 1.000000 1.000000
v 0.126879 0.168570 -0.075871 1.000000 1.000000 1.000000
v 0.116520 0.172007 -0.095830 1.000000 1.000000 1.000000
v 0.116542 0.084823 -0.095830 1.000000 1.000000 1.000000
v 0.126879 0.083104 -0.075871 1.000000 1.000000 1.000000
v 0.168564 -0.002362 -0.095830 1.000000 1.000000 1.000000
v 0.178879 -0.002362 -0.075871 1.000000 1.000000 1.000000
v 0.208144 -0.286445 0.095830 1.000000 1.000000 1.000000
v 0.319761 -0.277234 0.075871 1.000000 1.000000 1.000000
v 0.212355 -0.277234 0.075871 1.000000 1.000000 1.000000
v 0.328972 -0.286445 0.095830 1.000000 1.000000 1.000000
v 0.153756 -0.199367 0.095830 1.000000 1.000000 1.000000
v 0.159705 -0.192994 0.075871 1.000000 1.000000 1.000000
v 0.126879 -0.173293 0.075871 1.000000 1.000000 1.000000
v 0.116520 -0.176731 0.095830 1.000000 1.000000 1.000000
v 0.116542 -0.089546 0.095830 1.000000 1.000000 1.000000
v 0.126879 -0.087828 0.075871 1.000000 1.000000 1.000000
v 0.168564 -0.002362 0.095830 1.000000 1.000000 1.000000
v 0.178879 -0.002362 0.075871 1.000000 1.000000 1.000000
v 0.328972 -0.286445 -0.095830 1.000000 1.000000 1.000000
v 0.208144 -0.286445 -0.095830 1.000000 1.000000 1.000000
v 0.319761 -0.277234 -0.075871 1.000000 1.000000 1.000000
v 0.212355 -0.277234 -0.075871 1.000000 1.000000 1.000000
v 0.153756 -0.199367 -0.095830 1.000000 1.000000 1.000000
v 0.159705 -0.192994 -0.075871 1.000000 1.000000 1.000000
v 0.126879 -0.173293 -0.075871 1.000000 1.000000 1.000000
v 0.116520 -0.176731 -0.095830 1.000000 1.000000 1.000000
v 0.116542 -0.089546 -0.095830 1.000000 1.000000 1.000000
v 0.126879 -0.087828 -0.075871 1.000000 1.000000 1.000000
v 0.168564 -0.002362 -0.095830 1.000000 1.000000 1.000000
v 0.178879 -0.002362 -0.075871 1.000000 1.000000 1.000000
v -0.050928 -0.383704 0.090624 1.000000 1.000000 1.000000
v 0.099448 -0.220169 0.090624 1.000000 1.000000 1.000000
v 0.082429 -0.212454 0.073697 1.000000 1.000000 1.000000
v -0.064327 -0.371885 0.073697 1.000000 1.000000 1.000000
v -0.050928 -0.383704 -0.090624 1.000000 1.000000 1.000000
v 0.082429 -0.212454 -0.073697 1.000000 1.000000 1.000000
v 0.099448 -0.220169 -0.090624 1.000000 1.000000 1.000000
v -0.064327 -0.371885 -0.073697 1.000000 1.000000 1.000000
v 0.212355 0.272510 -0.075871 1.000000 1.000000 1.000000
v 0.319761 0.272510 -0.075871 1.000000 1.000000 1.000000
v 0.212355 0.272510 0.075871 1.000000 1.000000 1.000000
v 0.319761 0.272510 0.075871 1.000000 1.000000 1.000000
v 0.159705 0.188270 0.075871 1.000000 1.000000 1.000000
v 0.159705 0.188270 -0.075871 1.000000 1.000000 1.000000
v 0.126879 0.168570 0.075871 1.000000 1.000000 1.000000
v 0.126879 0.168570 -0.075871 1.000000 1.000000 1.000000
v 0.126879 0.083104 0.075871 1.000000 1.000000 1.000000
v 0.126879 0.083104 -0.075871 1.000000 1.000000 1.000000
v 0.178879 -0.002362 0.075871 1.000000 1.000000 1.000000
v 0.178879 -0.002362 -0.075871 1.000000 1.000000 1.000000
v -0.050928 0.383705 0.090624 1.000000 1.000000 1.000000
v 0.082429 0.212455 0.073697 1.000000 1.000000 1.000000
v 0.099448 0.220170 0.090624 1.000000 1.000000 1.000000
v -0.064327 0.371887 0.073697 1.000000 1.000000 1.000000
v -0.050928 0.383705 -0.090624 1.000000 1.000000 1.000000
v 0.082429 0.212455 -0.073697 1.000000 1.000000 1.000000
v -0.064327 0.371887 -0.073697 1.000000 1.000000 1.000000
v 0.099448 0.220170 -0.090624 1.000000 1.000000 1.000000
v 0.212355 -0.277234 0.075871 1.000000 1.000000 1.000000
v 0.319761 -0.277234 -0.075871 1.000000 1.000000 1.000000
v 0.212355 -0.277234 -0.075871 1.000000 1.000000 1.000000
v 0.319761 -0.277234 0.075871 1.000000 1.000000 1.000000
v 0.159705 -0.192994 0.075871 1.000000 1.000000 1.000000
v 0.159705 -0.192994 -0.075871 1.000000 1.000000 1.000000
v 0.126879 -0.173293 0.075871 1.000000 1.000000 1.000000
v 0.126879 -0.173293 -0.075871 1.000000 1.000000 1.000000
v 0.126879 -0.087828 0.075871 1.000000 1.000000 1.000000
v 0.126879 -0.087828 -0.075871 1.000000 1.000000 1.000000
v 0.178879 -0.002362 0.075871 1.000000 1.000000 1.000000
v 0.178879 -0.002362 -0.075871 1.000000 1.000000 1.000000
v 0.082429 -0.212454 -0.073697 1.000000 1.000000 1.000000
v -0.064327 -0.371885 -0.073697 1.000000 1.000000 1.000000
v 0.082429 -0.212454 0.073697 1.000000 1.000000 1.000000
v -0.064327 -0.371885 0.073697 1.000000 1.000000 1.000000
v 0.082429 0.212455 -0.073697 1.000000 1.000000 1.000000
v 0.082429 0.212455 0.073697 1.000000 1.000000 1.000000
v -0.064327 0.371887 -0.073697 1.000000 1.000000 1.000000
v -0.064327 0.371887 0.073697 1.000000 1.000000 1.000000
v 0.319761 0.132610 0.075871 1.000000 1.000000 1.000000
v 0.319761 -0.002362 0.075871 1.000000 1.000000 1.000000
v 0.328972 -0.002362 0.095830 1.000000 1.000000 1.000000
v 0.319761 -0.137334 0.075871 1.000000 1.000000 1.000000
v 0.328972 0.132610 0.095830 1.000000 1.000000 1.000000
v 0.319761 0.272510 0.075871 1.000000 1.000000 1.000000
v 0.328972 0.281721 0.095830 1.000000 1.000000 1.000000
v 0.328972 -0.137334 0.095830 1.000000 1.000000 1.000000
v 0.319761 -0.277234 0.075871 1.000000 1.000000 1.000000
v 0.328972 -0.286445 0.095830 1.000000 1.000000 1.000000
v 0.328972 0.132610 -0.095830 1.000000 1.000000 1.000000
v 0.319761 0.272510 -0.075871 1.000000 1.000000 1.000000
v 0.328972 0.281721 -0.095830 1.000000 1.000000 1.000000
v 0.319761 0.132610 -0.075871 1.000000 1.000000 1.000000
v 0.319761 -0.002362 -0.075871 1.000000 1.000000 1.000000
v 0.328972 -0.002362 -0.095830 1.000000 1.000000 1.000000
v 0.328972 -0.137334 -0.095830 1.000000 1.000000 1.000000
v 0.319761 -0.137334 -0.075871 1.000000 1.000000 1.000000
v 0.319761 -0.277234 -0.075871 1.000000 1.000000 1.000000
v 0.328972 -0.286445 -0.095830 1.000000 1.000000 1.000000
v 0.319761 0.272510 -0.075871 1.000000 1.000000 1.000000
v 0.319761 0.132610 -0.075871 1.000000 1.000000 1.000000
v 0.319761 0.132610 0.075871 1.000000 1.000000 1.000000
v 0.319761 0.272510 0.075871 1.000000 1.000000 1.000000
v 0.319761 -0.002362 0.075871 1.000000 1.000000 1.000000
v 0.319761 -0.002362 -0.075871 1.000000 1.000000 1.000000
v 0.319761 -0.137334 -0.075871 1.000000 1.000000 1.000000
v 0.319761 -0.137334 0.075871 1.000000 1.000000 1.000000
v 0.319761 -0.277234 -0.075871 1.000000 1.000000 1.000000
v 0.319761 -0.277234 0.075871 1.000000 1.000000 1.000000
v -0.411995 -0.558104 0.060416 1.000000 1.000000 1.000000
v -0.123787 -0.526652 0.060416 1.000000 1.000000 1.000000
v -0.135416 -0.509242 0.042552 1.000000 1.000000 1.000000
v -0.411995 -0.539451 0.042588 1.000000 1.000000 1.000000
v -0.027942 -0.427803 0.060416 1.000000 1.000000 1.000000
v -0.043420 -0.414151 0.042441 1.000000 1.000000 1.000000
v -0.411995 -0.558104 -0.060416 1.000000 1.000000 1.000000
v -0.135416 -0.509242 -0.042552 1.000000 1.000000 1.000000
v -0.123787 -0.526652 -0.060416 1.000000 1.000000 1.000000
v -0.411995 -0.539451 -0.042588 1.000000 1.000000 1.000000
v -0.027942 -0.427803 -0.060416 1.000000 1.000000 1.000000
v -0.043420 -0.414151 -0.042441 1.000000 1.000000 1.000000
v -0.411995 0.558104 -0.060416 1.000000 1.000000 1.000000
v -0.135416 0.509243 -0.042552 1.000000 1.000000 1.000000
v -0.411995 0.539452 -0.042588 1.000000 1.000000 1.000000
v -0.123787 0.526652 -0.060416 1.000000 1.000000 1.000000
v -0.027942 0.427804 -0.060416 1.000000 1.000000 1.000000
v -0.043420 0.414152 -0.042441 1.000000 1.000000 1.000000
v -0.123787 0.526652 0.060416 1.000000 1.000000 1.000000
v -0.411995 0.558104 0.060416 1.000000 1.000000 1.000000
v -0.135416 0.509243 0.042552 1.000000 1.000000 1.000000
v -0.411995 0.539452 0.042588 1.000000 1.000000 1.000000
v -0.027942 0.427804 0.060416 1.000000 1.000000 1.000000
v -0.043420 0.414152 0.042441 1.000000 1.000000 1.000000
v -0.135416 -0.509242 -0.042552 1.000000 1.000000 1.000000
v -0.411995 -0.539451 -0.042588 1.000000 1.000000 1.000000
v -0.411995 -0.539451 0.042588 1.000000 1.000000 1.000000
v -0.135416 -0.509242 0.042552 1.000000 1.000000 1.000000
v -0.043420 -0.414151 0.042441 1.000000 1.000000 1.000000
v -0.043420 -0.414151 -0.042441 1.000000 1.000000 1.000000
v -0.135416 0.509243 -0.042552 1.000000 1.000000 1.000000
v -0.411995 0.539452 0.042588 1.000000 1.000000 1.000000
v -0.411995 0.539452 -0.042588 1.000000 1.000000 1.000000
v -0.135416 0.509243 0.042552 1.000000 1.000000 1.000000
v -0.043420 0.414152 0.042441 1.000000 1.000000 1.000000
v -0.043420 0.414152 -0.042441 1.000000 1.000000 1.000000

vn 0.113406 0.993549 0.000000
vn 0.113406 0.993549 0.000000
vn 0.113406 0.993549 0.000000
vn 0.113406 0.993549 0.000000
vn 0.113406 -0.993549 -0.000000
vn 0.113406 -0.993549 -0.000000
vn 0.113406 -0.993549 -0.000000
vn 0.113406 -0.993549 -0.000000
vn 0.154093 0.988056 0.000000
vn 0.509221 0.860636 0.000000
vn 0.509221 0.860636 0.000000
vn 0.154093 0.988056 0.000000
vn 0.791925 0.610619 0.000000
vn 0.791925 0.610619 0.000000
vn 0.154093 -0.988056 -0.000000
vn 0.509221 -0.860636 -0.000000
vn 0.509221 -0.860636 -0.000000
vn 0.154093 -0.988056 -0.000000
vn 0.791925 -0.610619 -0.000000
vn 0.791925 -0.610619 -0.000000
vn -0.225803 0.814112 -0.535008
vn -0.225803 0.814112 -0.535008
vn -0.225803 0.814112 -0.535008
vn -0.225803 0.814112 -0.535008
vn -0.225803 0.814112 0.535008
vn -0.225803 0.814112 0.535008
vn -0.225803 0.814112 0.535008
vn -0.225803 0.814112 0.535008
vn -0.225803 -0.814112 -0.535008
vn -0.225803 -0.814112 -0.535008
vn -0.225803 -0.814112 -0.535008
vn -0.225803 -0.814112 -0.535008
vn -0.225803 -0.814112 0.535008
vn -0.225803 -0.814112 0.535008
vn -0.225803 -0.814112 0.535008
vn -0.225803 -0.814112 0.535008
vn -0.661473 0.749969 0.000000
vn -0.661473 0.749969 0.000000
vn -0.661473 0.749969 0.000000
vn -0.661473 0.749969 0.000000
vn -0.661473 0.749969 0.000000
vn -0.661473 0.749969 0.000000
vn -0.661473 0.749969 0.000000
vn -0.661473 0.749969 0.000000
vn -0.661473 0.749969 0.000000
vn -0.661473 0.749969 0.000000
vn -0.661473 0.749969 0.000000
vn -0.661473 0.749969 0.000000
vn -0.661473 0.749969 0.000000
vn -0.661473 0.749969 0.000000
vn -0.661473 0.749969 0.000000
vn -0.661473 0.749969 0.000000
vn -0.661473 -0.749969 -0.000000
vn -0.661473 -0.749969 -0.000000
vn -0.661473 -0.749969 -0.000000
vn -0.661473 -0.749969 -0.000000
vn -0.661473 -0.749969 -0.000000
vn -0.661473 -0.749969 -0.000000
vn -0.661473 -0.749969 -0.000000
vn -0.661473 -0.749969 -0.000000
vn -0.661473 -0.749969 -0.000000
vn -0.661473 -0.749969 -0.000000
vn -0.661473 -0.749969 -0.000000
vn -0.661473 -0.749969 -0.000000
vn -0.661473 -0.749969 -0.000000
vn -0.661473 -0.749969 -0.000000
vn -0.661473 -0.749969 -0.000000
vn -0.661473 -0.749969 -0.000000
vn 0.321986 0.560676 0.762868
vn 0.105200 0.674001 0.731201
vn 0.105200 0.674001 0.731201
vn 0.333591 0.553284 0.763278
vn 0.527395 0.405896 0.746393
vn 0.527395 0.405896 0.746393
vn 0.321986 0.560676 -0.762868
vn 0.105200 0.674001 -0.731201
vn 0.333591 0.553284 -0.763278
vn 0.105200 0.674001 -0.731201
vn 0.527395 0.405896 -0.746393
vn 0.527395 0.405896 -0.746393
vn 0.321986 -0.560676 0.762868
vn 0.105200 -0.674001 0.731201
vn 0.333591 -0.553284 0.763278
vn 0.105200 -0.674001 0.731201
vn 0.527395 -0.405896 0.746393
vn 0.527395 -0.405896 0.746393
vn 0.321986 -0.560676 -0.762868
vn 0.105200 -0.674001 -0.731201
vn 0.105200 -0.674001 -0.731201
vn 0.333591 -0.553284 -0.763278
vn 0.527395 -0.405896 -0.746393
vn 0.527395 -0.405896 -0.746393
vn 0.813483 0.581588 0.000000
vn 0.813483 0.581588 0.000000
vn 0.813483 0.581588 0.000000
vn 0.813483 0.581588 0.000000
vn 0.813483 -0.581588 -0.000000
vn 0.813483 -0.581588 -0.000000
vn 0.813483 -0.581588 -0.000000
vn 0.813483 -0.581588 -0.000000
vn -0.781596 0.345598 -0.519297
vn -0.781596 0.345598 -0.519297
vn -0.781596 0.345598 -0.519297
vn -0.781596 0.345598 -0.519297
vn -0.781596 0.345598 0.519297
vn -0.781596 0.345598 0.519297
vn -0.781596 0.345598 0.519297
vn -0.781596 0.345598 0.519297
vn -0.781596 -0.345598 -0.519297
vn -0.781596 -0.345598 -0.519297
vn -0.781596 -0.345598 -0.519297
vn -0.781596 -0.345598 -0.519297
vn -0.781596 -0.345598 0.519297
vn -0.781596 -0.345598 0.519297
vn -0.781596 -0.345598 0.519297
vn -0.781596 -0.345598 0.519297
vn -0.375677 0.425974 -0.823051
vn -0.375677 0.425974 -0.823051
vn -0.375677 0.425974 -0.823051
vn -0.375677 0.425974 -0.823051
vn -0.375693 0.425893 0.823086
vn -0.375693 0.425893 0.823086
vn -0.375693 0.425893 0.823086
vn -0.375693 0.425893 0.823086
vn -0.375693 -0.425893 -0.823086
vn -0.375693 -0.425893 -0.823086
vn -0.375693 -0.425893 -0.823086
vn -0.375693 -0.425893 -0.823086
vn -0.375693 -0.425893 0.823086
vn -0.375693 -0.425893 0.823086
vn -0.375693 -0.425893 0.823086
vn -0.375693 -0.425893 0.823086
vn 0.559508 0.400006 -0.725910
vn 0.559508 0.400006 -0.725910
vn 0.559508 0.400006 -0.725910
vn 0.559508 0.400006 -0.725910
vn 0.559508 0.400006 0.725910
vn 0.559508 0.400006 0.725910
vn 0.559508 0.400006 0.725910
vn 0.559508 0.400006 0.725910
vn 0.559508 -0.400006 -0.725910
vn 0.559508 -0.400006 -0.725910
vn 0.559508 -0.400006 -0.725910
vn 0.559508 -0.400006 -0.725910
vn 0.559508 -0.400006 0.725910
vn 0.559508 -0.400006 0.725910
vn 0.559508 -0.400006 0.725910
vn 0.559508 -0.400006 0.725910
vn 1.000000 -0.000000 0.000000
vn 0.999862 0.016599 0.000000
vn 0.999862 0.016599 0.000000
vn 1.000000 -0.000000 0.000000
vn 0.905707 0.423903 0.000000
vn 0.999862 -0.016599 -0.000000
vn 0.905707 0.423903 0.000000
vn 0.999862 -0.016599 -0.000000
vn 0.340691 0.940175 0.000000
vn 0.905707 -0.423903 -0.000000
vn 0.340691 0.940175 0.000000
vn 0.905707 -0.423903 -0.000000
vn 0.000000 1.000000 0.000000
vn 0.340691 -0.940175 -0.000000
vn 0.000000 1.000000 0.000000
vn 0.000000 1.000000 0.000000
vn 0.000000 1.000000 0.000000
vn 0.340691 -0.940175 -0.000000
vn -0.000000 -1.000000 -0.000000
vn -0.000000 -1.000000 -0.000000
vn -0.000000 -1.000000 -0.000000
vn -0.000000 -1.000000 -0.000000
vn 0.830787 -0.000000 -0.556591
vn 0.830724 0.013700 -0.556516
vn 0.830722 0.013900 -0.556515
vn 0.750692 0.270597 -0.602693
vn 0.830787 -0.000000 -0.556591
vn 0.701854 0.372176 -0.607360
vn 0.830722 -0.013900 -0.556515
vn 0.248610 0.763432 -0.596125
vn 0.830724 -0.013700 -0.556516
vn 0.319195 0.733489 -0.600091
vn 0.750692 -0.270597 -0.602693
vn 0.000000 0.830787 -0.556591
vn 0.701854 -0.372176 -0.607360
vn 0.000000 0.830787 -0.556591
vn 0.000000 0.830787 -0.556591
vn 0.000000 0.830787 -0.556591
vn 0.248596 -0.763386 -0.596189
vn 0.319195 -0.733489 -0.600091
vn -0.000000 -0.830787 -0.556591
vn -0.000000 -0.830787 -0.556591
vn -0.000000 -0.830787 -0.556591
vn -0.000000 -0.830787 -0.556591
vn 0.830722 0.013900 0.556515
vn 0.701854 0.372176 0.607360
vn 0.750692 0.270597 0.602693
vn 0.248610 0.763432 0.596125
vn 0.830724 0.013700 0.556516
vn 0.319195 0.733489 0.600091
vn 0.830787 -0.000000 0.556591
vn 0.000000 0.830787 0.556591
vn 0.830787 -0.000000 0.556591
vn 0.000000 0.830787 0.556591
vn 0.000000 0.830787 0.556591
vn 0.000000 0.830787 0.556591
vn 0.830724 -0.013700 0.556516
vn 0.830722 -0.013900 0.556515
vn 0.750692 -0.270597 0.602693
vn 0.701854 -0.372176 0.607360
vn 0.248596 -0.763386 0.596189
vn 0.319195 -0.733489 0.600091
vn -0.000000 -0.830787 0.556591
vn -0.000000 -0.830787 0.556591
vn -0.000000 -0.830787 0.556591
vn -0.000000 -0.830787 0.556591
vn -0.998039 0.062602 0.000000
vn -0.998039 0.062602 0.000000
vn -0.998039 0.062602 0.000000
vn -0.998039 0.062602 0.000000
vn -0.998039 -0.062602 -0.000000
vn -0.998039 -0.062602 -0.000000
vn -0.998039 -0.062602 -0.000000
vn -0.998039 -0.062602 -0.000000
vn -0.818790 0.000100 -0.574093
vn -0.793490 -0.245897 -0.556693
vn -0.801723 -0.202306 -0.562416
vn -0.818790 0.000100 -0.574093
vn -0.550325 -0.655929 -0.516623
vn -0.556689 -0.650087 -0.517189
vn -0.327620 -0.815249 -0.477529
vn -0.327620 -0.815249 -0.477529
vn -0.818790 0.000100 0.574093
vn -0.793490 -0.245897 0.556693
vn -0.818790 0.000100 0.574093
vn -0.801723 -0.202306 0.562416
vn -0.550325 -0.655929 0.516623
vn -0.556689 -0.650087 0.517189
vn -0.327620 -0.815249 0.477529
vn -0.327620 -0.815249 0.477529
vn -0.818790 -0.000100 -0.574093
vn -0.801723 0.202306 -0.562416
vn -0.793490 0.245897 -0.556693
vn -0.818790 -0.000100 -0.574093
vn -0.550325 0.655929 -0.516623
vn -0.556689 0.650087 -0.517189
vn -0.327620 0.815249 -0.477529
vn -0.327620 0.815249 -0.477529
vn -0.793490 0.245897 0.556693
vn -0.818790 -0.000100 0.574093
vn -0.818790 -0.000100 0.574093
vn -0.801723 0.202306 0.562416
vn -0.550325 0.655929 0.516623
vn -0.556689 0.650087 0.517189
vn -0.327620 0.815249 0.477529
vn -0.327620 0.815249 0.477529
vn -0.963723 -0.266906 -0.000000
vn -0.963723 -0.266906 -0.000000
vn -0.652601 -0.757702 -0.000000
vn -1.000000 0.000000 0.000000
vn -1.000000 0.000000 0.000000
vn -0.652601 -0.757702 -0.000000
vn -0.381781 -0.924253 -0.000000
vn -0.381781 -0.924253 -0.000000
vn -0.652601 0.757702 0.000000
vn -0.963723 0.266906 0.000000
vn -0.963723 0.266906 0.000000
vn -1.000000 0.000000 0.000000
vn -1.000000 0.000000 0.000000
vn -0.652601 0.757702 0.000000
vn -0.381781 0.924253 0.000000
vn -0.381781 0.924253 0.000000
vn -0.776288 0.231096 -0.586491
vn -0.789083 0.000000 -0.614287
vn -0.789083 0.000000 -0.614287
vn -0.776288 -0.231096 -0.586491
vn -0.770514 0.256105 -0.583711
vn -0.804608 0.000100 -0.593806
vn -0.804608 0.000100 -0.593806
vn -0.770514 -0.256105 -0.583711
vn -0.804608 -0.000100 -0.593806
vn -0.804608 -0.000100 -0.593806
vn -0.770514 0.256105 0.583711
vn -0.804608 0.000100 0.593806
vn -0.804608 0.000100 0.593806
vn -0.776288 0.231096 0.586491
vn -0.789083 0.000000 0.614287
vn -0.789083 0.000000 0.614287
vn -0.776288 -0.231096 0.586491
vn -0.770514 -0.256105 0.583711
vn -0.804608 -0.000100 0.593806
vn -0.804608 -0.000100 0.593806
vn -1.000000 0.000000 0.000000
vn -0.955898 0.293699 0.000000
vn -0.955898 0.293699 0.000000
vn -1.000000 0.000000 0.000000
vn -1.000000 0.000000 0.000000
vn -1.000000 0.000000 0.000000
vn -0.955898 -0.293699 -0.000000
vn -0.955898 -0.293699 -0.000000
vn -1.000000 0.000000 0.000000
vn -1.000000 0.000000 0.000000
vn 0.000000 0.000000 -1.000000
vn 0.000000 0.000000 -1.000000
vn 0.000000 0.000000 -1.000000
vn 0.000000 0.000000 -1.000000
vn 0.000000 0.000000 -1.000000
vn 0.000000 0.000000 -1.000000
vn 0.000000 0.000000 -1.000000
vn 0.000000 0.000000 -1.000000
vn 0.000000 0.000000 -1.000000
vn 0.000000 0.000000 -1.000000
vn 0.000000 0.000000 -1.000000
vn 0.000000 0.000000 -1.000000
vn 0.000000 0.000000 -1.000000
vn 0.000000 0.000000 -1.000000
vn 0.000000 0.000000 -1.000000
vn 0.000000 0.000000 -1.000000
vn 0.000000 0.000000 -1.000000
vn 0.000000 0.000000 -1.000000
vn 0.000000 0.000000 -1.000000
vn 0.000000 0.000000 -1.000000
vn 0.000000 0.000000 -1.000000
vn 0.000000 0.000000 -1.000000
vn 0.000000 0.000000 -1.000000
vn 0.000000 0.000000 -1.000000
vn 0.000000 0.000000 -1.000000
vn 0.000000 0.000000 -1.000000
vn 0.000000 0.000000 -1.000000
vn 0.000000 0.000000 -1.000000
vn 0.000000 0.000000 -1.000000
vn 0.000000 0.000000 -1.000000
vn 0.000000 0.000000 -1.000000
vn 0.000000 0.000000 -1.000000
vn 0.000000 0.000000 -1.000000
vn 0.000000 0.000000 -1.000000
vn -0.000000 -0.000000 1.000000
vn -0.000000 -0.000000 1.000000
vn -0.000000 -0.000000 1.000000
vn -0.000000 -0.000000 1.000000
vn -0.000000 -0.000000 1.000000
vn -0.000000 -0.000000 1.000000
vn -0.000000 -0.000000 1.000000
vn -0.000000 -0.000000 1.000000
vn -0.000000 -0.000000 1.000000
vn -0.000000 -0.000000 1.000000
vn -0.000000 -0.000000 1.000000
vn -0.000000 -0.000000 1.000000
vn -0.000000 -0.000000 1.000000
vn -0.000000 -0.000000 1.000000
vn -0.000000 -0.000000 1.000000
vn -0.000000 -0.000000 1.000000
vn -0.000000 -0.000000 1.000000
vn -0.000000 -0.000000 1.000000
vn -0.000000 -0.000000 1.000000
vn -0.000000 -0.000000 1.000000
vn -0.000000 -0.000000 1.000000
vn -0.000000 -0.000000 1.000000
vn -0.000000 -0.000000 1.000000
vn -0.000000 -0.000000 1.000000
vn -0.000000 -0.000000 1.000000
vn -0.000000 -0.000000 1.000000
vn -0.000000 -0.000000 1.000000
vn -0.000000 -0.000000 1.000000
vn -0.000000 -0.000000 1.000000
vn -0.000000 -0.000000 1.000000
vn -0.000000 -0.000000 1.000000
vn -0.000000 -0.000000 1.000000
vn -0.000000 -0.000000 1.000000
vn -0.000000 -0.000000 1.000000
vn 0.000000 0.000000 -1.000000
vn 0.000000 0.000000 -1.000000
vn 0.000000 0.000000 -1.000000
vn 0.000000 0.000000 -1.000000
vn 0.000000 0.000000 -1.000000
vn 0.000000 0.000000 -1.000000
vn 0.000000 0.000000 -1.000000
vn 0.000000 0.000000 -1.000000
vn -0.000000 -0.000000 1.000000
vn -0.000000 -0.000000 1.000000
vn -0.000000 -0.000000 1.000000
vn -0.000000 -0.000000 1.000000
vn -0.000000 -0.000000 1.000000
vn -0.000000 -0.000000 1.000000
vn -0.000000 -0.000000 1.000000
vn -0.000000 -0.000000 1.000000
vn 0.000000 0.000000 -1.000000
vn 0.000000 0.000000 -1.000000
vn 0.000000 0.000000 -1.000000
vn 0.000000 0.000000 -1.000000
vn 0.000000 0.000000 -1.000000
vn 0.000000 0.000000 -1.000000
vn 0.000000 0.000000 -1.000000
vn 0.000000 0.000000 -1.000000
vn 0.000000 0.000000 -1.000000
vn 0.000000 0.000000 -1.000000
vn 0.000000 0.000000 -1.000000
vn 0.000000 0.000000 -1.000000
vn -0.000000 -0.000000 1.000000
vn -0.000000 -0.000000 1.000000
vn -0.000000 -0.000000 1.000000
vn -0.000000 -0.000000 1.000000
vn -0.000000 -0.000000 1.000000
vn -0.000000 -0.000000 1.000000
vn -0.000000 -0.000000 1.000000
vn -0.000000 -0.000000 1.000000
vn -0.000000 -0.000000 1.000000
vn -0.000000 -0.000000 1.000000
vn -0.000000 -0.000000 1.000000
vn -0.000000 -0.000000 1.000000
vn -0.000000 -0.907989 0.418995
vn 0.425677 -0.784257 0.451375
vn 0.443423 -0.774741 0.450724
vn -0.000000 -0.907989 0.418995
vn 0.644772 -0.652472 0.398183
vn 0.642701 -0.654501 0.398201
vn 0.751476 -0.460685 0.472285
vn 0.775982 -0.413291 0.476489
vn 0.871288 0.213097 0.442094
vn 0.858933 0.273210 0.433117
vn 0.789480 0.475588 0.387990
vn 0.789480 0.475588 0.387990
vn 0.425677 -0.784257 -0.451375
vn -0.000000 -0.907989 -0.418995
vn -0.000000 -0.907989 -0.418995
vn 0.443423 -0.774741 -0.450724
vn 0.644772 -0.652472 -0.398183
vn 0.642701 -0.654501 -0.398201
vn 0.751476 -0.460685 -0.472285
vn 0.775982 -0.413291 -0.476489
vn 0.871288 0.213097 -0.442094
vn 0.858933 0.273210 -0.433117
vn 0.789480 0.475588 -0.387990
vn 0.789480 0.475588 -0.387990
vn 0.425677 0.784257 0.451375
vn 0.000000 0.907989 0.418995
vn 0.443423 0.774741 0.450724
vn 0.000000 0.907989 0.418995
vn 0.644772 0.652472 0.398183
vn 0.642701 0.654501 0.398201
vn 0.751476 0.460685 0.472285
vn 0.775982 0.413291 0.476489
vn 0.871288 -0.213097 0.442094
vn 0.858933 -0.273210 0.433117
vn 0.789480 -0.475588 0.387990
vn 0.789480 -0.475588 0.387990
vn 0.000000 0.907989 -0.418995
vn 0.425677 0.784257 -0.451375
vn 0.000000 0.907989 -0.418995
vn 0.443423 0.774741 -0.450724
vn 0.644772 0.652472 -0.398183
vn 0.642701 0.654501 -0.398201
vn 0.751476 0.460685 -0.472285
vn 0.775982 0.413291 -0.476489
vn 0.871288 -0.213097 -0.442094
vn 0.858933 -0.273210 -0.433117
vn 0.789480 -0.475588 -0.387990
vn 0.789480 -0.475588 -0.387990
vn -0.506998 0.466499 0.724798
vn -0.506998 0.466499 0.724798
vn -0.506998 0.466499 0.724798
vn -0.506998 0.466499 0.724798
vn -0.506998 0.466499 -0.724798
vn -0.506998 0.466499 -0.724798
vn -0.506998 0.466499 -0.724798
vn -0.506998 0.466499 -0.724798
vn 0.484811 -0.874619 -0.000000
vn -0.000000 -1.000000 -0.000000
vn 0.484811 -0.874619 -0.000000
vn -0.000000 -1.000000 -0.000000
vn 0.700678 -0.713478 -0.000000
vn 0.700678 -0.713478 -0.000000
vn 0.870199 -0.492700 -0.000000
vn 0.870199 -0.492700 -0.000000
vn 0.962889 0.269897 0.000000
vn 0.962889 0.269897 0.000000
vn 0.854291 0.519795 0.000000
vn 0.854291 0.519795 0.000000
vn -0.506998 -0.466499 0.724798
vn -0.506998 -0.466499 0.724798
vn -0.506998 -0.466499 0.724798
vn -0.506998 -0.466499 0.724798
vn -0.506998 -0.466499 -0.724798
vn -0.506998 -0.466499 -0.724798
vn -0.506998 -0.466499 -0.724798
vn -0.506998 -0.466499 -0.724798
vn 0.484811 0.874619 0.000000
vn 0.000000 1.000000 0.000000
vn 0.484811 0.874619 0.000000
vn 0.000000 1.000000 0.000000
vn 0.700678 0.713478 0.000000
vn 0.700678 0.713478 0.000000
vn 0.870199 0.492700 0.000000
vn 0.870199 0.492700 0.000000
vn 0.962889 -0.269897 -0.000000
vn 0.962889 -0.269897 -0.000000
vn 0.854291 -0.519795 -0.000000
vn 0.854291 -0.519795 -0.000000
vn -0.735704 0.677303 0.000000
vn -0.735704 0.677303 0.000000
vn -0.735704 0.677303 0.000000
vn -0.735704 0.677303 0.000000
vn -0.735704 -0.677303 -0.000000
vn -0.735704 -0.677303 -0.000000
vn -0.735704 -0.677303 -0.000000
vn -0.735704 -0.677303 -0.000000
vn -0.907989 0.000000 0.418995
vn -0.907989 0.000000 0.418995
vn -0.907989 0.000000 0.418995
vn -0.907989 0.000000 0.418995
vn -0.907989 0.000000 0.418995
vn -0.907989 0.000000 0.418995
vn -0.907989 0.000000 0.418995
vn -0.907989 0.000000 0.418995
vn -0.907989 0.000000 0.418995
vn -0.907989 0.000000 0.418995
vn -0.907989 0.000000 -0.418995
vn -0.907989 0.000000 -0.418995
vn -0.907989 0.000000 -0.418995
vn -0.907989 0.000000 -0.418995
vn -0.907989 0.000000 -0.418995
vn -0.907989 0.000000 -0.418995
vn -0.907989 0.000000 -0.418995
vn -0.907989 0.000000 -0.418995
vn -0.907989 0.000000 -0.418995
vn -0.907989 0.000000 -0.418995
vn -1.000000 0.000000 0.000000
vn -1.000000 0.000000 0.000000
vn -1.000000 0.000000 0.000000
vn -1.000000 0.000000 0.000000
vn -1.000000 0.000000 0.000000
vn -1.000000 0.000000 0.000000
vn -1.000000 0.000000 0.000000
vn -1.000000 0.000000 0.000000
vn -1.000000 0.000000 0.000000
vn -1.000000 0.000000 0.000000
vn -0.075203 0.689127 0.720728
vn -0.296492 0.580084 0.758680
vn -0.270211 0.595524 0.756530
vn -0.075203 0.689127 0.720728
vn -0.471978 0.457578 0.753564
vn -0.471978 0.457578 0.753564
vn -0.075203 0.689127 -0.720728
vn -0.270211 0.595524 -0.756530
vn -0.296492 0.580084 -0.758680
vn -0.075203 0.689127 -0.720728
vn -0.471978 0.457578 -0.753564
vn -0.471978 0.457578 -0.753564
vn -0.075203 -0.689127 -0.720728
vn -0.270211 -0.595524 -0.756530
vn -0.075203 -0.689127 -0.720728
vn -0.296492 -0.580084 -0.758680
vn -0.471978 -0.457578 -0.753564
vn -0.471978 -0.457578 -0.753564
vn -0.296492 -0.580084 0.758680
vn -0.075203 -0.689127 0.720728
vn -0.270211 -0.595524 0.756530
vn -0.075203 -0.689127 0.720728
vn -0.471978 -0.457578 0.753564
vn -0.471978 -0.457578 0.753564
vn -0.439718 0.898136 0.000000
vn -0.108598 0.994086 0.000000
vn -0.108598 0.994086 0.000000
vn -0.439718 0.898136 0.000000
vn -0.718710 0.695310 0.000000
vn -0.718710 0.695310 0.000000
vn -0.439718 -0.898136 -0.000000
vn -0.108598 -0.994086 -0.000000
vn -0.108598 -0.994086 -0.000000
vn -0.439718 -0.898136 -0.000000
vn -0.718710 -0.695310 -0.000000
vn -0.718710 -0.695310 -0.000000

vt 0.000000 0.000000 0.0
vt 0.000000 0.000000 0.0
vt 0.000000 0.000000 0.0
vt 0.000000 0.000000 0.0
vt 0.000000 0.000000 0.0
vt 0.000000 0.000000 0.0
vt 0.000000 0.000000 0.0
vt 0.000000 0.000000 0.0
vt 0.000000 0.000000 0.0
vt 0.000000 0.000000 0.0
vt 0.000000 0.000000 0.0
vt 0.000000 0.000000 0.0
vt 0.000000 0.000000 0.0
vt 0.000000 0.000000 0.0
vt 0.000000 0.000000 0.0
vt 0.000000 0.000000 0.0
vt 0.000000 0.000000 0.0
vt 0.000000 0.000000 0.0
vt 0.000000 0.000000 0.0
vt 0.000000 0.000000 0.0
vt 0.000000 0.000000 0.0
vt 0.000000 0.000000 0.0
vt 0.000000 0.000000 0.0
vt 0.000000 0.000000 0.0
vt 0.000000 0.000000 0.0
vt 0.000000 0.000000 0.0
vt 0.000000 0.000000 0.0
vt 0.000000 0.000000 0.0
vt 0.000000 0.000000 0.0
vt 0.000000 0.000000 0.0
vt 0.000000 0.000000 0.0
vt 0.000000 0.000000 0.0
vt 0.000000 0.000000 0.0
vt 0.000000 0.000000 0.0
vt 0.000000 0.000000 0.0
vt 0.000000 0.000000 0.0
vt 0.000000 0.000000 0.0
vt 0.000000 0.000000 0.0
vt 0.000000 0.000000 0.0
vt 0.000000 0.000000 0.0
vt 0.000000 0.000000 0.0
vt 0.000000 0.000000 0.0
vt 0.000000 0.000000 0.0
vt 0.000000 0.000000 0.0
vt 0.000000 0.000000 0.0
vt 0.000000 0.000000 0.0
vt 0.000000 0.000000 0.0
vt 0.000000 0.000000 0.0
vt 0.000000 0.000000 0.0
vt 0.000000 0.000000 0.0
vt 0.000000 0.000000 0.0
vt 0.000000 0.000000 0.0
vt 0.000000 0.000000 0.0
vt 0.000000 0.000000 0.0
vt 0.000000 0.000000 0.0
vt 0.000000 0.000000 0.0
vt 0.000000 0.000000 0.0
vt 0.000000 0.000000 0.0
vt 0.000000 0.000000 0.0
vt 0.000000 0.000000 0.0
vt 0.000000 0.000000 0.0
vt 0.000000 0.000000 0.0
vt 0.000000 0.000000 0.0
vt 0.000000 0.000000 0.0
vt 0.000000 0.000000 0.0
vt 0.000000 0.000000 0.0
vt 0.000000 0.000000 0.0
vt 0.000000 0.000000 0.0
vt 0.000000 0.000000 0.0
vt 0.000000 0.000000 0.0
vt 0.000000 0.000000 0.0
vt 0.000000 0.000000 0.0
vt 0.000000 0.000000 0.0
vt 0.000000 0.000000 0.0
vt 0.000000 0.000000 0.0
vt 0.000000 0.000000 0.0
vt 0.000000 0.000000 0.0
vt 0.000000 0.000000 0.0
vt 0.000000 0.000000 0.0
vt 0.000000 0.000000 0.0
vt 0.000000 0.000000 0.0
vt 0.000000 0.000000 0.0
vt 0.000000 0.000000 0.0
vt 0.000000 0.000000 0.0
vt 0.000000 0.000000 0.0
vt 0.000000 0.000000 0.0
vt 0.000000 0.000000 0.0
vt 0.000000 0.000000 0.0
vt 0.000000 0.000000 0.0
vt 0.000000 0.000000 0.0
vt 0.000000 0.000000 0.0
vt 0.000000 0.000000 0.0
vt 0.000000 0.000000 0.0
vt 0.000000 0.000000 0.0
vt 0.000000 0.000000 0.0
vt 0.000000 0.000000 0.0
vt 0.000000 0.000000 0.0
vt 0.000000 0.000000 0.0
vt 0.000000 0.000000 0.0
vt 0.000000 0.000000 0.0
vt 0.000000 0.000000 0.0
vt 0.000000 0.000000 0.0
vt 0.000000 0.000000 0.0
vt 0.000000 0.000000 0.0
vt 0.000000 0.000000 0.0
vt 0.000000 0.000000 0.0
vt 0.000000 0.000000 0.0
vt 0.000000 0.000000 0.0
vt 0.000000 0.000000 0.0
vt 0.000000 0.000000 0.0
vt 0.000000 0.000000 0.0
vt 0.000000 0.000000 0.0
vt 0.000000 0.000000 0.0
vt 0.000000 0.000000 0.0
vt 0.000000 0.000000 0.0
vt 0.000000 0.000000 0.0
vt 0.000000 0.000000 0.0
vt 0.000000 0.000000 0.0
vt 0.000000 0.000000 0.0
vt 0.000000 0.000000 0.0
vt 0.000000 0.000000 0.0
vt 0.000000 0.000000 0.0
vt 0.000000 0.000000 0.0
vt 0.000000 0.000000 0.0
vt 0.000000 0.000000 0.0
vt 0.000000 0.000000 0.0
vt 0.000000 0.000000 0.0
vt 0.000000 0.000000 0.0
vt 0.000000 0.000000 0.0
vt 0.000000 0.000000 0.0
vt 0.000000 0.000000 0.0
vt 0.000000 0.000000 0.0
vt 0.000000 0.000000 0.0
vt 0.000000 0.000000 0.0
vt 0.000000 0.000000 0.0
vt 0.000000 0.000000 0.0
vt 0.000000 0.000000 0.0
vt 0.000000 0.000000 0.0
vt 0.000000 0.000000 0.0
vt 0.000000 0.000000 0.0
vt 0.000000 0.000000 0.0
vt 0.000000 0.000000 0.0
vt 0.000000 0.000000 0.0
vt 0.000000 0.000000 0.0
vt 0.000000 0.000000 0.0
vt 0.000000 0.000000 0.0
vt 0.000000 0.000000 0.0
vt 0.000000 0.000000 0.0
vt 0.000000 0.000000 0.0
vt 0.000000 0.000000 0.0
vt 0.000000 0.000000 0.0
vt 0.000000 0.000000 0.0
vt 0.000000 0.000000 0.0
vt 0.000000 0.000000 0.0
vt 0.000000 0.000000 0.0
vt 0.000000 0.000000 0.0
vt 0.000000 0.000000 0.0
vt 0.000000 0.000000 0.0
vt 0.000000 0.000000 0.0
vt 0.000000 0.000000 0.0
vt 0.000000 0.000000 0.0
vt 0.000000 0.000000 0.0
vt 0.000000 0.000000 0.0
vt 0.000000 0.000000 0.0
vt 0.000000 0.000000 0.0
vt 0.000000 0.000000 0.0
vt 0.000000 0.000000 0.0
vt 0.000000 0.000000 0.0
vt 0.000000 0.000000 0.0
vt 0.000000 0.000000 0.0
vt 0.000000 0.000000 0.0
vt 0.000000 0.000000 0.0
vt 0.000000 0.000000 0.0
vt 0.000000 0.000000 0.0
vt 0.000000 0.000000 0.0
vt 0.000000 0.000000 0.0
vt 0.000000 0.000000 0.0
vt 0.000000 0.000000 0.0
vt 0.000000 0.000000 0.0
vt 0.000000 0.000000 0.0
vt 0.000000 0.000000 0.0
vt 0.000000 0.000000 0.0
vt 0.000000 0.000000 0.0
vt 0.000000 0.000000 0.0
vt 0.000000 0.000000 0.0
vt 0.000000 0.000000 0.0
vt 0.000000 0.000000 0.0
vt 0.000000 0.000000 0.0
vt 0.000000 0.000000 0.0
vt 0.000000 0.000000 0.0
vt 0.000000 0.000000 0.0
vt 0.000000 0.000000 0.0
vt 0.000000 0.000000 0.0
vt 0.000000 0.000000 0.0
vt 0.000000 0.000000 0.0
vt 0.000000 0.000000 0.0
vt 0.000000 0.000000 0.0
vt 0.000000 0.000000 0.0
vt 0.000000 0.000000 0.0
vt 0.000000 0.000000 0.0
vt 0.000000 0.000000 0.0
vt 0.000000 0.000000 0.0
vt 0.000000 0.000000 0.0
vt 0.000000 0.000000 0.0
vt 0.000000 0.000000 0.0
vt 0.000000 0.000000 0.0
vt 0.000000 0.000000 0.0
vt 0.000000 0.000000 0.0
vt 0.000000 0.000000 0.0
vt 0.000000 0.000000 0.0
vt 0.000000 0.000000 0.0
vt 0.000000 0.000000 0.0
vt 0.000000 0.000000 0.0
vt 0.000000 0.000000 0.0
vt 0.000000 0.000000 0.0
vt 0.000000 0.000000 0.0
vt 0.000000 0.000000 0.0
vt 0.000000 0.000000 0.0
vt 0.000000 0.000000 0.0
vt 0.000000 0.000000 0.0
vt 0.000000 0.000000 0.0
vt 0.000000 0.000000 0.0
vt 0.000000 0.000000 0.0
vt 0.000000 0.000000 0.0
vt 0.000000 0.000000 0.0
vt 0.000000 0.000000 0.0
vt 0.000000 0.000000 0.0
vt 0.000000 0.000000 0.0
vt 0.000000 0.000000 0.0
vt 0.000000 0.000000 0.0
vt 0.000000 0.000000 0.0
vt 0.000000 0.000000 0.0
vt 0.000000 0.000000 0.0
vt 0.000000 0.000000 0.0
vt 0.000000 0.000000 0.0
vt 0.000000 0.000000 0.0
vt 0.000000 0.000000 0.0
vt 0.000000 0.000000 0.0
vt 0.000000 0.000000 0.0
vt 0.000000 0.000000 0.0
vt 0.000000 0.000000 0.0
vt 0.000000 0.000000 0.0
vt 0.000000 0.000000 0.0
vt 0.000000 0.000000 0.0
vt 0.000000 0.000000 0.0
vt 0.000000 0.000000 0.0
vt 0.000000 0.000000 0.0
vt 0.000000 0.000000 0.0
vt 0.000000 0.000000 0.0
vt 0.000000 0.000000 0.0
vt 0.000000 0.000000 0.0
vt 0.000000 0.000000 0.0
vt 0.000000 0.000000 0.0
vt 0.000000 0.000000 0.0
vt 0.000000 0.000000 0.0
vt 0.000000 0.000000 0.0
vt 0.000000 0.000000 0.0
vt 0.000000 0.000000 0.0
vt 0.000000 0.000000 0.0
vt 0.000000 0.000000 0.0
vt 0.000000 0.000000 0.0
vt 0.000000 0.000000 0.0
vt 0.000000 0.000000 0.0
vt 0.000000 0.000000 0.0
vt 0.000000 0.000000 0.0
vt 0.000000 0.000000 0.0
vt 0.000000 0.000000 0.0
vt 0.000000 0.000000 0.0
vt 0.000000 0.000000 0.0
vt 0.000000 0.000000 0.0
vt 0.000000 0.000000 0.0
vt 0.000000 0.000000 0.0
vt 0.000000 0.000000 0.0
vt 0.000000 0.000000 0.0
vt 0.000000 0.000000 0.0
vt 0.000000 0.000000 0.0
vt 0.000000 0.000000 0.0
vt 0.000000 0.000000 0.0
vt 0.000000 0.000000 0.0
vt 0.000000 0.000000 0.0
vt 0.000000 0.000000 0.0
vt 0.000000 0.000000 0.0
vt 0.000000 0.000000 0.0
vt 0.000000 0.000000 0.0
vt 0.000000 0.000000 0.0
vt 0.000000 0.000000 0.0
vt 0.000000 0.000000 0.0
vt 0.000000 0.000000 0.0
vt 0.000000 0.000000 0.0
vt 0.000000 0.000000 0.0
vt 0.000000 0.000000 0.0
vt 0.000000 0.000000 0.0
vt 0.000000 0.000000 0.0
vt 0.000000 0.000000 0.0
vt 0.000000 0.000000 0.0
vt 0.000000 0.000000 0.0
vt 0.000000 0.000000 0.0
vt 0.000000 0.000000 0.0
vt 0.000000 0.000000 0.0
vt 0.000000 0.000000 0.0
vt 0.000000 0.000000 0.0
vt 0.000000 0.000000 0.0
vt 0.000000 0.000000 0.0
vt 0.000000 0.000000 0.0
vt 0.000000 0.000000 0.0
vt 0.000000 0.000000 0.0
vt 0.000000 0.000000 0.0
vt 0.000000 0.000000 0.0
vt 0.000000 0.000000 0.0
vt 0.000000 0.000000 0.0
vt 0.000000 0.000000 0.0
vt 0.000000 0.000000 0.0
vt 0.000000 0.000000 0.0
vt 0.000000 0.000000 0.0
vt 0.000000 0.000000 0.0
vt 0.000000 0.000000 0.0
vt 0.000000 0.000000 0.0
vt 0.000000 0.000000 0.0
vt 0.000000 0.000000 0.0
vt 0.000000 0.000000 0.0
vt 0.000000 0.000000 0.0
vt 0.000000 0.000000 0.0
vt 0.000000 0.000000 0.0
vt 0.000000 0.000000 0.0
vt 0.000000 0.000000 0.0
vt 0.000000 0.000000 0.0
vt 0.000000 0.000000 0.0
vt 0.000000 0.000000 0.0
vt 0.000000 0.000000 0.0
vt 0.000000 0.000000 0.0
vt 0.000000 0.000000 0.0
vt 0.000000 0.000000 0.0
vt 0.000000 0.000000 0.0
vt 0.000000 0.000000 0.0
vt 0.000000 0.000000 0.0
vt 0.000000 0.000000 0.0
vt 0.000000 0.000000 0.0
vt 0.000000 0.000000 0.0
vt 0.000000 0.000000 0.0
vt 0.000000 0.000000 0.0
vt 0.000000 0.000000 0.0
vt 0.000000 0.000000 0.0
vt 0.000000 0.000000 0.0
vt 0.000000 0.000000 0.0
vt 0.000000 0.000000 0.0
vt 0.000000 0.000000 0.0
vt 0.000000 0.000000 0.0
vt 0.000000 0.000000 0.0
vt 0.000000 0.000000 0.0
vt 0.000000 0.000000 0.0
vt 0.000000 0.000000 0.0
vt 0.000000 0.000000 0.0
vt 0.000000 0.000000 0.0
vt 0.000000 0.000000 0.0
vt 0.000000 0.000000 0.0
vt 0.000000 0.000000 0.0
vt 0.000000 0.000000 0.0
vt 0.000000 0.000000 0.0
vt 0.000000 0.000000 0.0
vt 0.000000 0.000000 0.0
vt 0.000000 0.000000 0.0
vt 0.000000 0.000000 0.0
vt 0.000000 0.000000 0.0
vt 0.000000 0.000000 0.0
vt 0.000000 0.000000 0.0
vt 0.000000 0.000000 0.0
vt 0.000000 0.000000 0.0
vt 0.000000 0.000000 0.0
vt 0.000000 0.000000 0.0
vt 0.000000 0.000000 0.0
vt 0.000000 0.000000 0.0
vt 0.000000 0.000000 0.0
vt 0.000000 0.000000 0.0
vt 0.000000 0.000000 0.0
vt 0.000000 0.000000 0.0
vt 0.000000 0.000000 0.0
vt 0.000000 0.000000 0.0
vt 0.000000 0.000000 0.0
vt 0.000000 0.000000 0.0
vt 0.000000 0.000000 0.0
vt 0.000000 0.000000 0.0
vt 0.000000 0.000000 0.0
vt 0.000000 0.000000 0.0
vt 0.000000 0.000000 0.0
vt 0.000000 0.000000 0.0
vt 0.000000 0.000000 0.0
vt 0.000000 0.000000 0.0
vt 0.000000 0.000000 0.0
vt 0.000000 0.000000 0.0
vt 0.000000 0.000000 0.0
vt 0.000000 0.000000 0.0
vt 0.000000 0.000000 0.0
vt 0.000000 0.000000 0.0
vt 0.000000 0.000000 0.0
vt 0.000000 0.000000 0.0
vt 0.000000 0.000000 0.0
vt 0.000000 0.000000 0.0
vt 0.000000 0.000000 0.0
vt 0.000000 0.000000 0.0
vt 0.000000 0.000000 0.0
vt 0.000000 0.000000 0.0
vt 0.000000 0.000000 0.0
vt 0.000000 0.000000 0.0
vt 0.000000 0.000000 0.0
vt 0.000000 0.000000 0.0
vt 0.000000 0.000000 0.0
vt 0.000000 0.000000 0.0
vt 0.000000 0.000000 0.0
vt 0.000000 0.000000 0.0
vt 0.000000 0.000000 0.0
vt 0.000000 0.000000 0.0
vt 0.000000 0.000000 0.0
vt 0.000000 0.000000 0.0
vt 0.000000 0.000000 0.0
vt 0.000000 0.000000 0.0
vt 0.000000 0.000000 0.0
vt 0.000000 0.000000 0.0
vt 0.000000 0.000000 0.0
vt 0.000000 0.000000 0.0
vt 0.000000 0.000000 0.0
vt 0.000000 0.000000 0.0
vt 0.000000 0.000000 0.0
vt 0.000000 0.000000 0.0
vt 0.000000 0.000000 0.0
vt 0.000000 0.000000 0.0
vt 0.000000 0.000000 0.0
vt 0.000000 0.000000 0.0
vt 0.000000 0.000000 0.0
vt 0.000000 0.000000 0.0
vt 0.000000 0.000000 0.0
vt 0.000000 0.000000 0.0
vt 0.000000 0.000000 0.0
vt 0.000000 0.000000 0.0
vt 0.000000 0.000000 0.0
vt 0.000000 0.000000 0.0
vt 0.000000 0.000000 0.0
vt 0.000000 0.000000 0.0
vt 0.000000 0.000000 0.0
vt 0.000000 0.000000 0.0
vt 0.000000 0.000000 0.0
vt 0.000000 0.000000 0.0
vt 0.000000 0.000000 0.0
vt 0.000000 0.000000 0.0
vt 0.000000 0.000000 0.0
vt 0.000000 0.000000 0.0
vt 0.000000 0.000000 0.0
vt 0.000000 0.000000 0.0
vt 0.000000 0.000000 0.0
vt 0.000000 0.000000 0.0
vt 0.000000 0.000000 0.0
vt 0.000000 0.000000 0.0
vt 0.000000 0.000000 0.0
vt 0.000000 0.000000 0.0
vt 0.000000 0.000000 0.0
vt 0.000000 0.000000 0.0
vt 0.000000 0.000000 0.0
vt 0.000000 0.000000 0.0
vt 0.000000 0.000000 0.0
vt 0.000000 0.000000 0.0
vt 0.000000 0.000000 0.0
vt 0.000000 0.000000 0.0
vt 0.000000 0.000000 0.0
vt 0.000000 0.000000 0.0
vt 0.000000 0.000000 0.0
vt 0.000000 0.000000 0.0
vt 0.000000 0.000000 0.0
vt 0.000000 0.000000 0.0
vt 0.000000 0.000000 0.0
vt 0.000000 0.000000 0.0
vt 0.000000 0.000000 0.0
vt 0.000000 0.000000 0.0
vt 0.000000 0.000000 0.0
vt 0.000000 0.000000 0.0
vt 0.000000 0.000000 0.0
vt 0.000000 0.000000 0.0
vt 0.000000 0.000000 0.0
vt 0.000000 0.000000 0.0
vt 0.000000 0.000000 0.0
vt 0.000000 0.000000 0.0
vt 0.000000 0.000000 0.0
vt 0.000000 0.000000 0.0
vt 0.000000 0.000000 0.0
vt 0.000000 0.000000 0.0
vt 0.000000 0.000000 0.0
vt 0.000000 0.000000 0.0
vt 0.000000 0.000000 0.0
vt 0.000000 0.000000 0.0
vt 0.000000 0.000000 0.0
vt 0.000000 0.000000 0.0
vt 0.000000 0.000000 0.0
vt 0.000000 0.000000 0.0
vt 0.000000 0.000000 0.0
vt 0.000000 0.000000 0.0
vt 0.000000 0.000000 0.0
vt 0.000000 0.000000 0.0
vt 0.000000 0.000000 0.0
vt 0.000000 0.000000 0.0
vt 0.000000 0.000000 0.0
vt 0.000000 0.000000 0.0
vt 0.000000 0.000000 0.0
vt 0.000000 0.000000 0.0
vt 0.000000 0.000000 0.0
vt 0.000000 0.000000 0.0
vt 0.000000 0.000000 0.0
vt 0.000000 0.000000 0.0
vt 0.000000 0.000000 0.0
vt 0.000000 0.000000 0.0
vt 0.000000 0.000000 0.0
vt 0.000000 0.000000 0.0
vt 0.000000 0.000000 0.0
vt 0.000000 0.000000 0.0
vt 0.000000 0.000000 0.0
vt 0.000000 0.000000 0.0
vt 0.000000 0.000000 0.0
vt 0.000000 0.000000 0.0
vt 0.000000 0.000000 0.0
vt 0.000000 0.000000 0.0
vt 0.000000 0.000000 0.0
vt 0.000000 0.000000 0.0
vt 0.000000 0.000000 0.0
vt 0.000000 0.000000 0.0
vt 0.000000 0.000000 0.0
vt 0.000000 0.000000 0.0
vt 0.000000 0.000000 0.0
vt 0.000000 0.000000 0.0
vt 0.000000 0.000000 0.0
vt 0.000000 0.000000 0.0
vt 0.000000 0.000000 0.0
vt 0.000000 0.000000 0.0
vt 0.000000 0.000000 0.0
vt 0.000000 0.000000 0.0
vt 0.000000 0.000000 0.0
vt 0.000000 0.000000 0.0
vt 0.000000 0.000000 0.0
vt 0.000000 0.000000 0.0
vt 0.000000 0.000000 0.0
vt 0.000000 0.000000 0.0
vt 0.000000 0.000000 0.0
vt 0.000000 0.000000 0.0
vt 0.000000 0.000000 0.0
vt 0.000000 0.000000 0.0
vt 0.000000 0.000000 0.0
vt 0.000000 0.000000 0.0
vt 0.000000 0.000000 0.0
vt 0.000000 0.000000 0.0
vt 0.000000 0.000000 0.0
vt 0.000000 0.000000 0.0
vt 0.000000 0.000000 0.0
vt 0.000000 0.000000 0.0
vt 0.000000 0.000000 0.0
vt 0.000000 0.000000 0.0
vt 0.000000 0.000000 0.0
vt 0.000000 0.000000 0.0
vt 0.000000 0.000000 0.0
vt 0.000000 0.000000 0.0
vt 0.000000 0.000000 0.0
vt 0.000000 0.000000 0.0
vt 0.000000 0.000000 0.0
vt 0.000000 0.000000 0.0
vt 0.000000 0.000000 0.0
vt 0.000000 0.000000 0.0
vt 0.000000 0.000000 0.0
vt 0.000000 0.000000 0.0
vt 0.000000 0.000000 0.0
vt 0.000000 0.000000 0.0
vt 0.000000 0.000000 0.0
vt 0.000000 0.000000 0.0
vt 0.000000 0.000000 0.0
vt 0.000000 0.000000 0.0
vt 0.000000 0.000000 0.0

f 1/1/1 2/2/2 3/3/3
f 2/2/2 1/1/1 4/4/4
f 5/5/5 6/6/6 7/7/7
f 6/6/6 5/5/5 8/8/8
f 9/9/9 10/10/10 11/11/11
f 10/10/10 9/9/9 12/12/12
f 13/13/13 11/11/11 10/10/10
f 11/11/11 13/13/13 14/14/14
f 15/15/15 16/16/16 17/17/17
f 15/15/15 17/17/17 18/18/18
f 16/16/16 19/19/19 17/17/17
f 19/19/19 16/16/16 20/20/20
f 21/21/21 22/22/22 23/23/23
f 22/22/22 21/21/21 24/24/24
f 25/25/25 26/26/26 27/27/27
f 26/26/26 25/25/25 28/28/28
f 29/29/29 30/30/30 31/31/31
f 30/30/30 29/29/29 32/32/32
f 33/33/33 34/34/34 35/35/35
f 34/34/34 33/33/33 36/36/36
f 37/37/37 38/38/38 39/39/39
f 40/40/40 37/37/37 39/39/39
f 38/38/38 37/37/37 41/41/41
f 37/37/37 40/40/40 42/42/42
f 41/41/41 43/43/43 38/38/38
f 44/44/44 42/42/42 40/40/40
f 43/43/43 41/41/41 45/45/45
f 46/46/46 42/42/42 44/44/44
f 45/45/45 47/47/47 43/43/43
f 46/46/46 44/44/44 48/48/48
f 47/47/47 45/45/45 49/49/49
f 44/44/44 50/50/50 48/48/48
f 51/51/51 47/47/47 49/49/49
f 52/52/52 48/48/48 50/50/50
f 47/47/47 51/51/51 52/52/52
f 51/51/51 48/48/48 52/52/52
f 53/53/53 54/54/54 55/55/55
f 54/54/54 56/56/56 55/55/55
f 54/54/54 53/53/53 57/57/57
f 56/56/56 54/54/54 58/58/58
f 57/57/57 53/53/53 59/59/59
f 60/60/60 56/56/56 58/58/58
f 57/57/57 59/59/59 61/61/61
f 60/60/60 58/58/58 62/62/62
f 63/63/63 61/61/61 59/59/59
f 64/64/64 60/60/60 62/62/62
f 61/61/61 63/63/63 65/65/65
f 60/60/60 64/64/64 66/66/66
f 63/63/63 67/67/67 65/65/65
f 64/64/64 68/68/68 66/66/66
f 67/67/67 63/63/63 68/68/68
f 64/64/64 67/67/67 68/68/68
f 69/69/69 70/70/70 71/71/71
f 70/70/70 69/69/69 72/72/72
f 69/69/69 73/73/73 72/72/72
f 73/73/73 69/69/69 74/74/74
f 75/75/75 76/76/76 77/77/77
f 76/76/76 75/75/75 78/78/78
f 77/77/77 79/79/79 75/75/75
f 80/80/80 75/75/75 79/79/79
f 81/81/81 82/82/82 83/83/83
f 82/82/82 81/81/81 84/84/84
f 85/85/85 81/81/81 83/83/83
f 81/81/81 85/85/85 86/86/86
f 87/87/87 88/88/88 89/89/89
f 88/88/88 87/87/87 90/90/90
f 91/91/91 90/90/90 87/87/87
f 91/91/91 87/87/87 92/92/92
f 93/93/93 94/94/94 95/95/95
f 93/93/93 95/95/95 96/96/96
f 97/97/97 98/98/98 99/99/99
f 98/98/98 97/97/97 100/100/100
f 101/101/101 102/102/102 103/103/103
f 103/103/103 104/104/104 101/101/101
f 105/105/105 106/106/106 107/107/107
f 106/106/106 105/105/105 108/108/108
f 109/109/109 110/110/110 111/111/111
f 110/110/110 109/109/109 112/112/112
f 113/113/113 114/114/114 115/115/115
f 114/114/114 113/113/113 116/116/116
f 117/117/117 118/118/118 119/119/119
f 118/118/118 117/117/117 120/120/120
f 121/121/121 122/122/122 123/123/123
f 123/123/123 122/122/122 124/124/124
f 125/125/125 126/126/126 127/127/127
f 126/126/126 125/125/125 128/128/128
f 129/129/129 130/130/130 131/131/131
f 129/129/129 131/131/131 132/132/132
f 133/133/133 134/134/134 135/135/135
f 134/134/134 133/133/133 136/136/136
f 137/137/137 138/138/138 139/139/139
f 140/140/140 138/138/138 137/137/137
f 141/141/141 142/142/142 143/143/143
f 142/142/142 141/141/141 144/144/144
f 145/145/145 146/146/146 147/147/147
f 147/147/147 148/148/148 145/145/145
f 149/149/149 150/150/150 151/151/151
f 149/149/149 151/151/151 152/152/152
f 150/150/150 153/153/153 151/151/151
f 154/154/154 149/149/149 152/152/152
f 150/150/150 155/155/155 153/153/153
f 149/149/149 154/154/154 156/156/156
f 157/157/157 153/153/153 155/155/155
f 158/158/158 156/156/156 154/154/154
f 153/153/153 157/157/157 159/159/159
f 156/156/156 158/158/158 160/160/160
f 161/161/161 159/159/159 157/157/157
f 162/162/162 160/160/160 158/158/158
f 159/159/159 161/161/161 163/163/163
f 164/164/164 163/163/163 161/161/161
f 163/163/163 164/164/164 165/165/165
f 160/160/160 162/162/162 166/166/166
f 167/167/167 166/166/166 162/162/162
f 167/167/167 162/162/162 168/168/168
f 167/167/167 168/168/168 169/169/169
f 169/169/169 168/168/168 170/170/170
f 171/171/171 172/172/172 173/173/173
f 174/174/174 173/173/173 172/172/172
f 171/171/171 173/173/173 175/175/175
f 173/173/173 174/174/174 176/176/176
f 177/177/177 171/171/171 175/175/175
f 174/174/174 178/178/178 176/176/176
f 171/171/171 177/177/177 179/179/179
f 178/178/178 174/174/174 180/180/180
f 177/177/177 181/181/181 179/179/179
f 180/180/180 182/182/182 178/178/178
f 181/181/181 177/177/177 183/183/183
f 180/180/180 184/184/184 182/182/182
f 185/185/185 182/182/182 184/184/184
f 182/182/182 185/185/185 186/186/186
f 187/187/187 181/181/181 183/183/183
f 181/181/181 187/187/187 188/188/188
f 187/187/187 189/189/189 188/188/188
f 190/190/190 188/188/188 189/189/189
f 189/189/189 191/191/191 190/190/190
f 191/191/191 189/189/189 192/192/192
f 193/193/193 194/194/194 195/195/195
f 194/194/194 196/196/196 195/195/195
f 193/193/193 195/195/195 197/197/197
f 198/198/198 195/195/195 196/196/196
f 197/197/197 199/199/199 193/193/193
f 196/196/196 200/200/200 198/198/198
f 199/199/199 197/197/197 201/201/201
f 196/196/196 202/202/202 200/200/200
f 202/202/202 203/203/203 200/200/200
f 202/202/202 204/204/204 203/203/203
f 201/201/201 205/205/205 199/199/199
f 206/206/206 199/199/199 205/205/205
f 205/205/205 207/207/207 206/206/206
f 208/208/208 206/206/206 207/207/207
f 207/207/207 209/209/209 208/208/208
f 209/209/209 207/207/207 210/210/210
f 211/211/211 209/209/209 210/210/210
f 209/209/209 211/211/211 212/212/212
f 213/213/213 212/212/212 211/211/211
f 214/214/214 212/212/212 213/213/213
f 215/215/215 216/216/216 217/217/217
f 216/216/216 215/215/215 218/218/218
f 219/219/219 220/220/220 221/221/221
f 220/220/220 219/219/219 222/222/222
f 223/223/223 224/224/224 225/225/225
f 224/224/224 223/223/223 226/226/226
f 227/227/227 225/225/225 224/224/224
f 228/228/228 225/225/225 227/227/227
f 227/227/227 229/229/229 228/228/228
f 229/229/229 227/227/227 230/230/230
f 231/231/231 232/232/232 233/233/233
f 232/232/232 231/231/231 234/234/234
f 234/234/234 235/235/235 232/232/232
f 235/235/235 234/234/234 236/236/236
f 236/236/236 237/237/237 235/235/235
f 238/238/238 235/235/235 237/237/237
f 239/239/239 240/240/240 241/241/241
f 241/241/241 242/242/242 239/239/239
f 240/240/240 243/243/243 241/241/241
f 240/240/240 244/244/244 243/243/243
f 245/245/245 243/243/243 244/244/244
f 243/243/243 245/245/245 246/246/246
f 247/247/247 248/248/248 249/249/249
f 248/248/248 247/247/247 250/250/250
f 251/251/251 250/250/250 247/247/247
f 250/250/250 251/251/251 252/252/252
f 251/251/251 253/253/253 252/252/252
f 251/251/251 254/254/254 253/253/253
f 255/255/255 256/256/256 257/257/257
f 258/258/258 256/256/256 255/255/255
f 256/256/256 258/258/258 259/259/259
f 257/257/257 256/256/256 260/260/260
f 257/257/257 260/260/260 261/261/261
f 261/261/261 260/260/260 262/262/262
f 263/263/263 264/264/264 265/265/265
f 265/265/265 264/264/264 266/266/266
f 266/266/266 264/264/264 267/267/267
f 264/264/264 263/263/263 268/268/268
f 269/269/269 268/268/268 263/263/263
f 268/268/268 269/269/269 270/270/270
f 271/271/271 272/272/272 273/273/273
f 272/272/272 274/274/274 273/273/273
f 271/271/271 273/273/273 275/275/275
f 276/276/276 271/271/271 275/275/275
f 276/276/276 275/275/275 277/277/277
f 278/278/278 273/273/273 274/274/274
f 274/274/274 279/279/279 278/278/278
f 280/280/280 278/278/278 279/279/279
f 281/281/281 282/282/282 283/283/283
f 282/282/282 281/281/281 284/284/284
f 285/285/285 284/284/284 281/281/281
f 284/284/284 285/285/285 286/286/286
f 285/285/285 287/287/287 286/286/286
f 287/287/287 285/285/285 288/288/288
f 288/288/288 289/289/289 287/287/287
f 289/289/289 288/288/288 290/290/290
f 291/291/291 292/292/292 293/293/293
f 294/294/294 293/293/293 292/292/292
f 293/293/293 294/294/294 295/295/295
f 292/292/292 291/291/291 296/296/296
f 291/291/291 297/297/297 296/296/296
f 291/291/291 298/298/298 297/297/297
f 298/298/298 299/299/299 297/297/297
f 298/298/298 300/300/300 299/299/299
f 301/301/301 302/302/302 303/303/303
f 302/302/302 301/301/301 304/304/304
f 305/305/305 302/302/302 304/304/304
f 306/306/306 301/301/301 303/303/303
f 302/302/302 305/305/305 307/307/307
f 308/308/308 301/301/301 306/306/306
f 309/309/309 308/308/308 306/306/306
f 306/306/306 310/310/310 309/309/309
f 305/305/305 311/311/311 307/307/307
f 305/305/305 312/312/312 311/311/311
f 313/313/313 311/311/311 312/312/312
f 314/314/314 311/311/311 313/313/313
f 310/310/310 306/306/306 315/315/315
f 311/311/311 314/314/314 316/316/316
f 310/310/310 315/315/315 317/317/317
f 318/318/318 310/310/310 317/317/317
f 315/315/315 319/319/319 317/317/317
f 319/319/319 315/315/315 320/320/320
f 321/321/321 319/319/319 320/320/320
f 321/321/321 322/322/322 319/319/319
f 321/321/321 323/323/323 322/322/322
f 323/323/323 321/321/321 324/324/324
f 324/324/324 325/325/325 323/323/323
f 325/325/325 324/324/324 326/326/326
f 327/327/327 325/325/325 326/326/326
f 325/325/325 327/327/327 328/328/328
f 329/329/329 328/328/328 327/327/327
f 328/328/328 329/329/329 330/330/330
f 330/330/330 329/329/329 331/331/331
f 332/332/332 331/331/331 329/329/329
f 316/316/316 331/331/331 332/332/332
f 331/331/331 316/316/316 333/333/333
f 333/333/333 316/316/316 314/314/314
f 333/333/333 314/314/314 334/334/334
f 335/335/335 336/336/336 337/337/337
f 336/336/336 338/338/338 337/337/337
f 336/336/336 339/339/339 338/338/338
f 336/336/336 340/340/340 339/339/339
f 340/340/340 336/336/336 341/341/341
f 342/342/342 340/340/340 341/341/341
f 343/343/343 340/340/340 342/342/342
f 342/342/342 344/344/344 343/343/343
f 344/344/344 342/342/342 345/345/345
f 346/346/346 344/344/344 345/345/345
f 344/344/344 346/346/346 347/347/347
f 346/346/346 348/348/348 347/347/347
f 349/349/349 348/348/348 346/346/346
f 349/349/349 346/346/346 350/350/350
f 351/351/351 349/349/349 350/350/350
f 349/349/349 351/351/351 352/352/352
f 350/350/350 353/353/353 351/351/351
f 354/354/354 353/353/353 350/350/350
f 355/355/355 353/353/353 354/354/354
f 353/353/353 355/355/355 356/356/356
f 356/356/356 355/355/355 357/357/357
f 355/355/355 358/358/358 357/357/357
f 358/358/358 359/359/359 357/357/357
f 358/358/358 360/360/360 359/359/359
f 359/359/359 360/360/360 361/361/361
f 359/359/359 361/361/361 362/362/362
f 362/362/362 361/361/361 363/363/363
f 362/362/362 363/363/363 364/364/364
f 363/363/363 365/365/365 364/364/364
f 365/365/365 363/363/363 366/366/366
f 335/335/335 365/365/365 366/366/366
f 365/365/365 335/335/335 367/367/367
f 337/337/337 367/367/367 335/335/335
f 367/367/367 337/337/337 368/368/368
f 369/369/369 370/370/370 371/371/371
f 370/370/370 369/369/369 372/372/372
f 373/373/373 374/374/374 375/375/375
f 374/374/374 373/373/373 376/376/376
f 377/377/377 378/378/378 379/379/379
f 378/378/378 380/380/380 379/379/379
f 381/381/381 382/382/382 383/383/383
f 383/383/383 384/384/384 381/381/381
f 385/385/385 386/386/386 387/387/387
f 386/386/386 385/385/385 388/388/388
f 389/389/389 385/385/385 387/387/387
f 385/385/385 389/389/389 390/390/390
f 391/391/391 392/392/392 393/393/393
f 392/392/392 391/391/391 394/394/394
f 391/391/391 395/395/395 394/394/394
f 395/395/395 391/391/391 396/396/396
f 397/397/397 398/398/398 399/399/399
f 398/398/398 400/400/400 399/399/399
f 398/398/398 401/401/401 400/400/400
f 401/401/401 398/398/398 402/402/402
f 403/403/403 404/404/404 405/405/405
f 405/405/405 406/406/406 403/403/403
f 407/407/407 405/405/405 404/404/404
f 405/405/405 407/407/407 408/408/408
f 409/409/409 410/410/410 411/411/411
f 410/410/410 409/409/409 412/412/412
f 413/413/413 411/411/411 410/410/410
f 411/411/411 413/413/413 414/414/414
f 414/414/414 413/413/413 415/415/415
f 415/415/415 413/413/413 416/416/416
f 417/417/417 415/415/415 416/416/416
f 415/415/415 417/417/417 418/418/418
f 419/419/419 418/418/418 417/417/417
f 418/418/418 419/419/419 420/420/420
f 421/421/421 422/422/422 423/423/423
f 421/421/421 423/423/423 424/424/424
f 425/425/425 421/421/421 424/424/424
f 424/424/424 426/426/426 425/425/425
f 427/427/427 425/425/425 426/426/426
f 425/425/425 427/427/427 428/428/428
f 429/429/429 428/428/428 427/427/427
f 429/429/429 427/427/427 430/430/430
f 431/431/431 429/429/429 430/430/430
f 431/431/431 430/430/430 432/432/432
f 433/433/433 434/434/434 435/435/435
f 434/434/434 433/433/433 436/436/436
f 435/435/435 437/437/437 433/433/433
f 437/437/437 435/435/435 438/438/438
f 438/438/438 439/439/439 437/437/437
f 439/439/439 440/440/440 437/437/437
f 439/439/439 441/441/441 440/440/440
f 441/441/441 439/439/439 442/442/442
f 442/442/442 443/443/443 441/441/441
f 443/443/443 442/442/442 444/444/444
f 445/445/445 446/446/446 447/447/447
f 447/447/447 446/446/446 448/448/448
f 446/446/446 449/449/449 448/448/448
f 448/448/448 449/449/449 450/450/450
f 449/449/449 451/451/451 450/450/450
f 451/451/451 449/449/449 452/452/452
f 452/452/452 453/453/453 451/451/451
f 454/454/454 451/451/451 453/453/453
f 453/453/453 455/455/455 454/454/454
f 456/456/456 454/454/454 455/455/455
f 457/457/457 458/458/458 459/459/459
f 459/459/459 460/460/460 457/457/457
f 461/461/461 462/462/462 463/463/463
f 462/462/462 461/461/461 464/464/464
f 465/465/465 466/466/466 467/467/467
f 466/466/466 468/468/468 467/467/467
f 465/465/465 467/467/467 469/469/469
f 469/469/469 470/470/470 465/465/465
f 470/470/470 469/469/469 471/471/471
f 471/471/471 472/472/472 470/470/470
f 472/472/472 471/471/471 473/473/473
f 473/473/473 474/474/474 472/472/472
f 474/474/474 473/473/473 475/475/475
f 475/475/475 476/476/476 474/474/474
f 477/477/477 478/478/478 479/479/479
f 480/480/480 478/478/478 477/477/477
f 481/481/481 482/482/482 483/483/483
f 482/482/482 481/481/481 484/484/484
f 485/485/485 486/486/486 487/487/487
f 486/486/486 485/485/485 488/488/488
f 487/487/487 489/489/489 485/485/485
f 490/490/490 489/489/489 487/487/487
f 490/490/490 491/491/491 489/489/489
f 492/492/492 491/491/491 490/490/490
f 492/492/492 493/493/493 491/491/491
f 494/494/494 493/493/493 492/492/492
f 494/494/494 495/495/495 493/493/493
f 495/495/495 494/494/494 496/496/496
f 497/497/497 498/498/498 499/499/499
f 498/498/498 500/500/500 499/499/499
f 501/501/501 502/502/502 503/503/503
f 503/503/503 502/502/502 504/504/504
f 505/505/505 506/506/506 507/507/507
f 506/506/506 508/508/508 507/507/507
f 505/505/505 507/507/507 509/509/509
f 510/510/510 505/505/505 509/509/509
f 510/510/510 509/509/509 511/511/511
f 512/512/512 507/507/507 508/508/508
f 508/508/508 513/513/513 512/512/512
f 514/514/514 512/512/512 513/513/513
f 515/515/515 516/516/516 517/517/517
f 516/516/516 515/515/515 518/518/518
f 515/515/515 519/519/519 518/518/518
f 515/515/515 520/520/520 519/519/519
f 521/521/521 519/519/519 520/520/520
f 519/519/519 521/521/521 522/522/522
f 521/521/521 523/523/523 522/522/522
f 523/523/523 521/521/521 524/524/524
f 525/525/525 526/526/526 527/527/527
f 525/525/525 527/527/527 528/528/528
f 526/526/526 529/529/529 527/527/527
f 526/526/526 530/530/530 529/529/529
f 531/531/531 529/529/529 530/530/530
f 529/529/529 531/531/531 532/532/532
f 533/533/533 532/532/532 531/531/531
f 532/532/532 533/533/533 534/534/534
f 535/535/535 536/536/536 537/537/537
f 535/535/535 537/537/537 538/538/538
f 539/539/539 537/537/537 536/536/536
f 537/537/537 539/539/539 540/540/540
f 541/541/541 542/542/542 543/543/543
f 542/542/542 541/541/541 544/544/544
f 542/542/542 545/545/545 543/543/543
f 545/545/545 542/542/542 546/546/546
f 547/547/547 548/548/548 549/549/549
f 548/548/548 547/547/547 550/550/550
f 551/551/551 548/548/548 550/550/550
f 548/548/548 551/551/551 552/552/552
f 553/553/553 554/554/554 555/555/555
f 556/556/556 555/555/555 554/554/554
f 555/555/555 557/557/557 553/553/553
f 557/557/557 555/555/555 558/558/558
f 559/559/559 560/560/560 561/561/561
f 559/559/559 561/561/561 562/562/562
f 559/559/559 562/562/562 563/563/563
f 564/564/564 559/559/559 563/563/563
f 565/565/565 566/566/566 567/567/567
f 566/566/566 565/565/565 568/568/568
f 565/565/565 569/569/569 568/568/568
f 569/569/569 565/565/565 570/570/570
